%TF.GenerationSoftware,KiCad,Pcbnew,(7.0.0)*%
%TF.CreationDate,2023-10-01T16:50:46+07:00*%
%TF.ProjectId,CYPD3177,43595044-3331-4373-972e-6b696361645f,rev?*%
%TF.SameCoordinates,Original*%
%TF.FileFunction,Copper,L2,Bot*%
%TF.FilePolarity,Positive*%
%FSLAX46Y46*%
G04 Gerber Fmt 4.6, Leading zero omitted, Abs format (unit mm)*
G04 Created by KiCad (PCBNEW (7.0.0)) date 2023-10-01 16:50:46*
%MOMM*%
%LPD*%
G01*
G04 APERTURE LIST*
G04 Aperture macros list*
%AMRoundRect*
0 Rectangle with rounded corners*
0 $1 Rounding radius*
0 $2 $3 $4 $5 $6 $7 $8 $9 X,Y pos of 4 corners*
0 Add a 4 corners polygon primitive as box body*
4,1,4,$2,$3,$4,$5,$6,$7,$8,$9,$2,$3,0*
0 Add four circle primitives for the rounded corners*
1,1,$1+$1,$2,$3*
1,1,$1+$1,$4,$5*
1,1,$1+$1,$6,$7*
1,1,$1+$1,$8,$9*
0 Add four rect primitives between the rounded corners*
20,1,$1+$1,$2,$3,$4,$5,0*
20,1,$1+$1,$4,$5,$6,$7,0*
20,1,$1+$1,$6,$7,$8,$9,0*
20,1,$1+$1,$8,$9,$2,$3,0*%
G04 Aperture macros list end*
%TA.AperFunction,ComponentPad*%
%ADD10R,1.700000X1.700000*%
%TD*%
%TA.AperFunction,ComponentPad*%
%ADD11O,1.700000X1.700000*%
%TD*%
%TA.AperFunction,ComponentPad*%
%ADD12RoundRect,0.249999X1.550001X-0.790001X1.550001X0.790001X-1.550001X0.790001X-1.550001X-0.790001X0*%
%TD*%
%TA.AperFunction,ComponentPad*%
%ADD13O,3.600000X2.080000*%
%TD*%
%TA.AperFunction,ComponentPad*%
%ADD14C,0.600000*%
%TD*%
%TA.AperFunction,SMDPad,CuDef*%
%ADD15R,4.500000X2.950000*%
%TD*%
%TA.AperFunction,ComponentPad*%
%ADD16O,2.100000X1.000000*%
%TD*%
%TA.AperFunction,ComponentPad*%
%ADD17O,1.600000X1.000000*%
%TD*%
%TA.AperFunction,ComponentPad*%
%ADD18C,0.500000*%
%TD*%
%TA.AperFunction,SMDPad,CuDef*%
%ADD19R,3.200000X3.200000*%
%TD*%
%TA.AperFunction,ViaPad*%
%ADD20C,0.450000*%
%TD*%
%TA.AperFunction,Conductor*%
%ADD21C,0.400000*%
%TD*%
%TA.AperFunction,Conductor*%
%ADD22C,0.150800*%
%TD*%
%TA.AperFunction,Conductor*%
%ADD23C,0.200000*%
%TD*%
G04 APERTURE END LIST*
D10*
%TO.P,J5,1,Pin_1*%
%TO.N,GND*%
X55574999Y-13774999D03*
D11*
%TO.P,J5,2,Pin_2*%
%TO.N,/MCU/SWDIO*%
X58114999Y-13774999D03*
%TO.P,J5,3,Pin_3*%
%TO.N,/MCU/SWCLK*%
X60654999Y-13774999D03*
%TD*%
D12*
%TO.P,J2,1,Pin_1*%
%TO.N,GND*%
X63472500Y-52540000D03*
D13*
%TO.P,J2,2,Pin_2*%
%TO.N,Net-(J2-Pin_2)*%
X63472499Y-47459999D03*
%TD*%
D14*
%TO.P,U2,9,GNDPAD*%
%TO.N,GND*%
X42300000Y-35150000D03*
X41100000Y-35150000D03*
X39800000Y-35150000D03*
X38700000Y-35150000D03*
D15*
X40499999Y-35749999D03*
D14*
X42300000Y-36350000D03*
X41100000Y-36350000D03*
X39800000Y-36350000D03*
X38700000Y-36350000D03*
%TD*%
D16*
%TO.P,J1,S1,SHIELD*%
%TO.N,unconnected-(J1-SHIELD-PadS1)*%
X38129999Y-45679999D03*
D17*
X33949999Y-45679999D03*
D16*
X38129999Y-54319999D03*
D17*
X33949999Y-54319999D03*
%TD*%
D18*
%TO.P,U4,57,GND*%
%TO.N,GND*%
X50350000Y-25850000D03*
X53050000Y-25850000D03*
D19*
X51699999Y-24499999D03*
D18*
X50350000Y-23150000D03*
X53050000Y-23150000D03*
%TD*%
D10*
%TO.P,J4,1,Pin_1*%
%TO.N,GND*%
X67749999Y-25419999D03*
D11*
%TO.P,J4,2,Pin_2*%
%TO.N,+3V3*%
X67749999Y-27959999D03*
%TO.P,J4,3,Pin_3*%
%TO.N,/SCL*%
X67749999Y-30499999D03*
%TO.P,J4,4,Pin_4*%
%TO.N,/SDA*%
X67749999Y-33039999D03*
%TD*%
D20*
%TO.N,GND*%
X48250000Y-57250000D03*
X61500000Y-21000000D03*
X49500000Y-18000000D03*
X40750000Y-55000000D03*
X57000000Y-43250000D03*
X62500000Y-22250000D03*
X57750000Y-21250000D03*
X57000000Y-47750000D03*
X55750000Y-30250000D03*
X49250000Y-50750000D03*
X59500000Y-21000000D03*
X42750000Y-46500000D03*
X50750000Y-49250000D03*
X57000000Y-56750000D03*
X40750000Y-53500000D03*
X64000000Y-20250000D03*
X43750000Y-46500000D03*
X60750000Y-19900000D03*
X49250000Y-49250000D03*
X59500000Y-27500000D03*
X56500000Y-25750000D03*
X34500000Y-26200000D03*
X58000000Y-25750000D03*
X37200000Y-22900000D03*
X57000000Y-52250000D03*
X60750000Y-18400000D03*
X48250000Y-55750000D03*
X37750000Y-18250000D03*
X63250000Y-23250000D03*
X42750000Y-19500000D03*
X63250000Y-27000000D03*
X60750000Y-27500000D03*
X62000000Y-27500000D03*
X35900000Y-24500000D03*
X52500000Y-46250000D03*
X47500000Y-46250000D03*
X42750000Y-45500000D03*
X41250000Y-18500000D03*
X51250000Y-18000000D03*
X52250000Y-56750000D03*
X37200000Y-26200000D03*
X50750000Y-50750000D03*
X50000000Y-50000000D03*
X46000000Y-30250000D03*
%TO.N,VBUS*%
X42500000Y-43000000D03*
X40500000Y-48750000D03*
X43500000Y-42000000D03*
X42500000Y-42000000D03*
X41500000Y-47750000D03*
X43500000Y-43000000D03*
X41500000Y-48750000D03*
X40500000Y-47750000D03*
%TO.N,Net-(J2-Pin_2)*%
X49250000Y-47000000D03*
X53250000Y-59000000D03*
%TO.N,/FAULT*%
X62250000Y-29750000D03*
X62750000Y-39250000D03*
%TO.N,+3V3*%
X37000000Y-43000000D03*
X47750000Y-42250000D03*
X57000000Y-54500000D03*
X49250000Y-30250000D03*
X58500000Y-35750000D03*
X59500000Y-35750000D03*
X58300000Y-20800000D03*
X41250000Y-23750000D03*
X52250000Y-30250000D03*
X35200000Y-18900000D03*
X57500000Y-35750000D03*
X52250000Y-42250000D03*
X60500000Y-35750000D03*
X56500000Y-35750000D03*
X45750000Y-42250000D03*
X49750000Y-42250000D03*
X48300000Y-18000000D03*
X57000000Y-45500000D03*
X52700000Y-18000000D03*
%TO.N,/FLIP*%
X60000000Y-40750000D03*
X61250000Y-30750000D03*
%TO.N,/INT*%
X59500000Y-41750000D03*
X61750000Y-30250000D03*
%TO.N,/SDA*%
X63250000Y-38500000D03*
%TO.N,/SCL*%
X62750000Y-37750000D03*
%TO.N,/MCU/BOOT*%
X33250000Y-29500000D03*
X40000000Y-22000000D03*
%TO.N,/D_P*%
X42713355Y-23700000D03*
X37500000Y-50900000D03*
%TO.N,/D_N*%
X42713355Y-22900000D03*
X37500000Y-50100000D03*
%TO.N,/MCU/GPIO13*%
X64750000Y-28750000D03*
X71750000Y-30250000D03*
%TD*%
D21*
%TO.N,Net-(J2-Pin_2)*%
X49250000Y-47000000D02*
X52500000Y-47000000D01*
X53250000Y-47750000D02*
X53250000Y-59000000D01*
X52500000Y-47000000D02*
X53250000Y-47750000D01*
D22*
%TO.N,/FAULT*%
X62250000Y-38750000D02*
X62750000Y-39250000D01*
X62250000Y-29750000D02*
X62250000Y-38750000D01*
D21*
%TO.N,+3V3*%
X52250000Y-42250000D02*
X54750000Y-42250000D01*
X41250000Y-23750000D02*
X41250000Y-20000000D01*
X48600000Y-19000000D02*
X52750000Y-19000000D01*
D22*
X56300000Y-19000000D02*
X57900000Y-19000000D01*
D21*
X40750000Y-19500000D02*
X35500000Y-19500000D01*
X58500000Y-35750000D02*
X59500000Y-35750000D01*
X59750000Y-31250000D02*
X60500000Y-30500000D01*
X47500000Y-42250000D02*
X47750000Y-42250000D01*
X52250000Y-42250000D02*
X49750000Y-42250000D01*
X63460000Y-29000000D02*
X64500000Y-27960000D01*
X37000000Y-43000000D02*
X37000000Y-42000000D01*
X53250000Y-30250000D02*
X54250000Y-31250000D01*
X64500000Y-27960000D02*
X67750000Y-27960000D01*
X35200000Y-17700000D02*
X35500000Y-17400000D01*
X35500000Y-19500000D02*
X35200000Y-19200000D01*
X54750000Y-42250000D02*
X55250000Y-42750000D01*
X57500000Y-54500000D02*
X58000000Y-54000000D01*
X48000000Y-17400000D02*
X48300000Y-17700000D01*
X37000000Y-42000000D02*
X38000000Y-41000000D01*
X52250000Y-30250000D02*
X53250000Y-30250000D01*
X35500000Y-17400000D02*
X48000000Y-17400000D01*
X54750000Y-42250000D02*
X55250000Y-41750000D01*
X48300000Y-18000000D02*
X48300000Y-18700000D01*
X55750000Y-35750000D02*
X56500000Y-35750000D01*
X61000000Y-29000000D02*
X63460000Y-29000000D01*
X38000000Y-41000000D02*
X43750000Y-41000000D01*
X35200000Y-18900000D02*
X35200000Y-17700000D01*
X47500000Y-42250000D02*
X49750000Y-42250000D01*
X59500000Y-35750000D02*
X60500000Y-35750000D01*
X43750000Y-41000000D02*
X45000000Y-42250000D01*
X57900000Y-19000000D02*
X58300000Y-19400000D01*
X58300000Y-19400000D02*
X58300000Y-20800000D01*
X52700000Y-18000000D02*
X52700000Y-18950000D01*
X60500000Y-35750000D02*
X60500000Y-32000000D01*
X45750000Y-42250000D02*
X47500000Y-42250000D01*
D22*
X48600000Y-19000000D02*
X52400000Y-19000000D01*
D21*
X57250000Y-35750000D02*
X57500000Y-35750000D01*
X58000000Y-54000000D02*
X58000000Y-46000000D01*
X41250000Y-20000000D02*
X40750000Y-19500000D01*
X59750000Y-31250000D02*
X54250000Y-31250000D01*
D22*
X53000000Y-19000000D02*
X56300000Y-19000000D01*
D21*
X55250000Y-42750000D02*
X55250000Y-45000000D01*
X35200000Y-19200000D02*
X35200000Y-18900000D01*
X55250000Y-36250000D02*
X55750000Y-35750000D01*
X56500000Y-35750000D02*
X57250000Y-35750000D01*
X55250000Y-45000000D02*
X55750000Y-45500000D01*
X60500000Y-32000000D02*
X59750000Y-31250000D01*
X49250000Y-30250000D02*
X52250000Y-30250000D01*
X48300000Y-18700000D02*
X48600000Y-19000000D01*
X60500000Y-29500000D02*
X61000000Y-29000000D01*
X45000000Y-42250000D02*
X45750000Y-42250000D01*
X48300000Y-18000000D02*
X48300000Y-17700000D01*
X52700000Y-18950000D02*
X52750000Y-19000000D01*
D22*
X52700000Y-18700000D02*
X53000000Y-19000000D01*
X52700000Y-18700000D02*
X52700000Y-18000000D01*
D21*
X57250000Y-35750000D02*
X58500000Y-35750000D01*
X57500000Y-45500000D02*
X57000000Y-45500000D01*
X55250000Y-41750000D02*
X55250000Y-36250000D01*
X57000000Y-54500000D02*
X57500000Y-54500000D01*
X58000000Y-46000000D02*
X57500000Y-45500000D01*
X55750000Y-45500000D02*
X57000000Y-45500000D01*
X60500000Y-30500000D02*
X60500000Y-29500000D01*
X52750000Y-19000000D02*
X57900000Y-19000000D01*
D22*
X52400000Y-19000000D02*
X52700000Y-18700000D01*
%TO.N,/FLIP*%
X61250000Y-30750000D02*
X61250000Y-40250000D01*
X61250000Y-40250000D02*
X60750000Y-40750000D01*
X60750000Y-40750000D02*
X60000000Y-40750000D01*
%TO.N,/INT*%
X61000000Y-41250000D02*
X60000000Y-41250000D01*
X61750000Y-30250000D02*
X61750000Y-40500000D01*
X61750000Y-40500000D02*
X61000000Y-41250000D01*
X60000000Y-41250000D02*
X59500000Y-41750000D01*
%TO.N,/SDA*%
X63710000Y-33040000D02*
X67750000Y-33040000D01*
X63250000Y-33500000D02*
X63710000Y-33040000D01*
X63250000Y-38500000D02*
X63250000Y-33500000D01*
%TO.N,/SCL*%
X62750000Y-37750000D02*
X62750000Y-31000000D01*
X62750000Y-31000000D02*
X63250000Y-30500000D01*
X63250000Y-30500000D02*
X67750000Y-30500000D01*
%TO.N,/MCU/BOOT*%
X33250000Y-29500000D02*
X39250000Y-29500000D01*
X39250000Y-29500000D02*
X40000000Y-28750000D01*
X40000000Y-28750000D02*
X40000000Y-22000000D01*
D23*
%TO.N,/D_P*%
X36906800Y-39275000D02*
X35525000Y-40656800D01*
X35525000Y-49343200D02*
X36906801Y-50725001D01*
X43156800Y-39275000D02*
X36906800Y-39275000D01*
X37325001Y-50725001D02*
X37500000Y-50900000D01*
X43456801Y-23525001D02*
X44025000Y-24093200D01*
X44025000Y-24093200D02*
X44025000Y-38406800D01*
X36906801Y-50725001D02*
X37325001Y-50725001D01*
X35525000Y-40656800D02*
X35525000Y-49343200D01*
X44025000Y-38406800D02*
X43156800Y-39275000D01*
X42713355Y-23700000D02*
X42888354Y-23525001D01*
X42888354Y-23525001D02*
X43456801Y-23525001D01*
%TO.N,/D_N*%
X37093200Y-39725000D02*
X35975000Y-40843200D01*
X45014620Y-25556800D02*
X44890870Y-25680550D01*
X44890855Y-24030550D02*
X45014605Y-24154300D01*
X44890870Y-25130550D02*
X45014620Y-25254300D01*
X45014620Y-25254300D02*
X45014620Y-25556800D01*
X45014605Y-24154300D02*
X45014605Y-24456800D01*
X37325001Y-50274999D02*
X37500000Y-50100000D01*
X44475000Y-25804300D02*
X44475000Y-26106800D01*
X45014605Y-27756800D02*
X44890855Y-27880550D01*
X45014620Y-26656800D02*
X44890870Y-26780550D01*
X44598750Y-25680550D02*
X44475000Y-25804300D01*
X44890870Y-26230550D02*
X45014620Y-26354300D01*
X44475000Y-28004300D02*
X44475000Y-38593200D01*
X45014605Y-27454300D02*
X45014605Y-27756800D01*
X44475000Y-26904300D02*
X44475000Y-27206800D01*
X45014620Y-26354300D02*
X45014620Y-26656800D01*
X44475000Y-38593200D02*
X43343200Y-39725000D01*
X43343200Y-39725000D02*
X37093200Y-39725000D01*
X44598750Y-25130550D02*
X44890870Y-25130550D01*
X43643199Y-23074999D02*
X44598750Y-24030550D01*
X42713355Y-22900000D02*
X42888354Y-23074999D01*
X44598750Y-24580550D02*
X44475000Y-24704300D01*
X44598750Y-24030550D02*
X44890855Y-24030550D01*
X44475000Y-25006800D02*
X44598750Y-25130550D01*
X44598750Y-26230550D02*
X44890870Y-26230550D01*
X42888354Y-23074999D02*
X43643199Y-23074999D01*
X44475000Y-24704300D02*
X44475000Y-25006800D01*
X35975000Y-49156800D02*
X37093199Y-50274999D01*
X45014605Y-24456800D02*
X44890855Y-24580550D01*
X44890870Y-25680550D02*
X44598750Y-25680550D01*
X44475000Y-27206800D02*
X44598750Y-27330550D01*
X44598750Y-27330550D02*
X44890855Y-27330550D01*
X44890870Y-26780550D02*
X44598750Y-26780550D01*
X44890855Y-27880550D02*
X44598750Y-27880550D01*
X44890855Y-27330550D02*
X45014605Y-27454300D01*
X44890855Y-24580550D02*
X44598750Y-24580550D01*
X44475000Y-26106800D02*
X44598750Y-26230550D01*
X44598750Y-26780550D02*
X44475000Y-26904300D01*
X37093199Y-50274999D02*
X37325001Y-50274999D01*
X44598750Y-27880550D02*
X44475000Y-28004300D01*
X35975000Y-40843200D02*
X35975000Y-49156800D01*
D22*
%TO.N,/MCU/GPIO13*%
X64750000Y-28750000D02*
X65250000Y-29250000D01*
X71750000Y-29750000D02*
X71750000Y-30250000D01*
X65250000Y-29250000D02*
X71250000Y-29250000D01*
X71250000Y-29250000D02*
X71750000Y-29750000D01*
%TD*%
%TA.AperFunction,Conductor*%
%TO.N,GND*%
G36*
X34174518Y-17128497D02*
G01*
X34180501Y-17129495D01*
X34186339Y-17131500D01*
X34951778Y-17131500D01*
X34993113Y-17144039D01*
X35020515Y-17177429D01*
X35024748Y-17220415D01*
X35004386Y-17258509D01*
X34902288Y-17360606D01*
X34896070Y-17366164D01*
X34870385Y-17386647D01*
X34870381Y-17386650D01*
X34866030Y-17390121D01*
X34862894Y-17394719D01*
X34862886Y-17394729D01*
X34833292Y-17438135D01*
X34831684Y-17440402D01*
X34800515Y-17482635D01*
X34800513Y-17482637D01*
X34797207Y-17487118D01*
X34795367Y-17492374D01*
X34794060Y-17494848D01*
X34793958Y-17495017D01*
X34793891Y-17495179D01*
X34792664Y-17497725D01*
X34789528Y-17502327D01*
X34787886Y-17507648D01*
X34787883Y-17507656D01*
X34772396Y-17557863D01*
X34771527Y-17560505D01*
X34770639Y-17563043D01*
X34752354Y-17615301D01*
X34752145Y-17620867D01*
X34751621Y-17623637D01*
X34751578Y-17623808D01*
X34751561Y-17623996D01*
X34751143Y-17626768D01*
X34749500Y-17632098D01*
X34749500Y-17637674D01*
X34749500Y-17690182D01*
X34749448Y-17692964D01*
X34747740Y-17738615D01*
X34747276Y-17751010D01*
X34748718Y-17756392D01*
X34749032Y-17759176D01*
X34749500Y-17767506D01*
X34749500Y-18725632D01*
X34742776Y-18756540D01*
X34741277Y-18759820D01*
X34741274Y-18759828D01*
X34739069Y-18764658D01*
X34738313Y-18769915D01*
X34738312Y-18769919D01*
X34726731Y-18850472D01*
X34719610Y-18900000D01*
X34720367Y-18905264D01*
X34720367Y-18905265D01*
X34729751Y-18970538D01*
X34739069Y-19035342D01*
X34741275Y-19040173D01*
X34741277Y-19040179D01*
X34742776Y-19043460D01*
X34749500Y-19074368D01*
X34749500Y-19170523D01*
X34749032Y-19178853D01*
X34746995Y-19196936D01*
X34744730Y-19217035D01*
X34745765Y-19222509D01*
X34745766Y-19222514D01*
X34755529Y-19274114D01*
X34755995Y-19276855D01*
X34763821Y-19328774D01*
X34764652Y-19334287D01*
X34767070Y-19339308D01*
X34767894Y-19341979D01*
X34767943Y-19342177D01*
X34768015Y-19342351D01*
X34768941Y-19344999D01*
X34769977Y-19350472D01*
X34772578Y-19355395D01*
X34772581Y-19355401D01*
X34797126Y-19401842D01*
X34798380Y-19404325D01*
X34821156Y-19451620D01*
X34821157Y-19451622D01*
X34823575Y-19456642D01*
X34827364Y-19460726D01*
X34828943Y-19463042D01*
X34829041Y-19463205D01*
X34829158Y-19463346D01*
X34830828Y-19465609D01*
X34833434Y-19470538D01*
X34837374Y-19474478D01*
X34874515Y-19511619D01*
X34876445Y-19513623D01*
X34915945Y-19556194D01*
X34920770Y-19558979D01*
X34922961Y-19560727D01*
X34929181Y-19566285D01*
X35160604Y-19797707D01*
X35166163Y-19803928D01*
X35190121Y-19833970D01*
X35238144Y-19866712D01*
X35240345Y-19868272D01*
X35287118Y-19902793D01*
X35292377Y-19904633D01*
X35294839Y-19905934D01*
X35295017Y-19906041D01*
X35295195Y-19906115D01*
X35297720Y-19907331D01*
X35302327Y-19910472D01*
X35347843Y-19924511D01*
X35357845Y-19927596D01*
X35360453Y-19928453D01*
X35415301Y-19947646D01*
X35420871Y-19947854D01*
X35423613Y-19948373D01*
X35423805Y-19948420D01*
X35424003Y-19948439D01*
X35426767Y-19948855D01*
X35432098Y-19950500D01*
X35490182Y-19950500D01*
X35492963Y-19950551D01*
X35551010Y-19952724D01*
X35556394Y-19951281D01*
X35559176Y-19950968D01*
X35567506Y-19950500D01*
X40532578Y-19950500D01*
X40561050Y-19956163D01*
X40585187Y-19972291D01*
X40777709Y-20164812D01*
X40793837Y-20188949D01*
X40799500Y-20217421D01*
X40799500Y-23575632D01*
X40792776Y-23606540D01*
X40791277Y-23609820D01*
X40791274Y-23609828D01*
X40789069Y-23614658D01*
X40788313Y-23619915D01*
X40788312Y-23619919D01*
X40774482Y-23716114D01*
X40769610Y-23750000D01*
X40770367Y-23755265D01*
X40781123Y-23830080D01*
X40789069Y-23885342D01*
X40791274Y-23890172D01*
X40791276Y-23890176D01*
X40824871Y-23963737D01*
X40845870Y-24009718D01*
X40935411Y-24113055D01*
X41050439Y-24186978D01*
X41181633Y-24225500D01*
X41313043Y-24225500D01*
X41318367Y-24225500D01*
X41449561Y-24186978D01*
X41564589Y-24113055D01*
X41654130Y-24009718D01*
X41710931Y-23885342D01*
X41730390Y-23750000D01*
X41710931Y-23614658D01*
X41708118Y-23608499D01*
X41707224Y-23606540D01*
X41700500Y-23575632D01*
X41700500Y-20029477D01*
X41700968Y-20021147D01*
X41703144Y-20001832D01*
X41705270Y-19982965D01*
X41694459Y-19925828D01*
X41694005Y-19923157D01*
X41685348Y-19865713D01*
X41682927Y-19860687D01*
X41682108Y-19858030D01*
X41682056Y-19857823D01*
X41681986Y-19857652D01*
X41681060Y-19855006D01*
X41680024Y-19849529D01*
X41652870Y-19798152D01*
X41651618Y-19795672D01*
X41626425Y-19743358D01*
X41622635Y-19739273D01*
X41621053Y-19736952D01*
X41620955Y-19736789D01*
X41620833Y-19736642D01*
X41619168Y-19734387D01*
X41616566Y-19729463D01*
X41575494Y-19688391D01*
X41573564Y-19686387D01*
X41537845Y-19647891D01*
X41537846Y-19647891D01*
X41534055Y-19643806D01*
X41529229Y-19641019D01*
X41527034Y-19639269D01*
X41520814Y-19633711D01*
X41089394Y-19202291D01*
X41083835Y-19196070D01*
X41063355Y-19170389D01*
X41059879Y-19166030D01*
X41011865Y-19133294D01*
X41009643Y-19131718D01*
X40962882Y-19097207D01*
X40957626Y-19095367D01*
X40955150Y-19094059D01*
X40954982Y-19093958D01*
X40954806Y-19093885D01*
X40952277Y-19092667D01*
X40947673Y-19089528D01*
X40942350Y-19087886D01*
X40942348Y-19087885D01*
X40892135Y-19072397D01*
X40889493Y-19071527D01*
X40858628Y-19060727D01*
X40834699Y-19052354D01*
X40829132Y-19052145D01*
X40826363Y-19051621D01*
X40826188Y-19051577D01*
X40826000Y-19051560D01*
X40823228Y-19051142D01*
X40817902Y-19049500D01*
X40812327Y-19049500D01*
X40759818Y-19049500D01*
X40757036Y-19049448D01*
X40704559Y-19047484D01*
X40704556Y-19047484D01*
X40698990Y-19047276D01*
X40693607Y-19048718D01*
X40690824Y-19049032D01*
X40682494Y-19049500D01*
X35744757Y-19049500D01*
X35704533Y-19037689D01*
X35677080Y-19006006D01*
X35671114Y-18964512D01*
X35680390Y-18900000D01*
X35660931Y-18764658D01*
X35657224Y-18756540D01*
X35650500Y-18725632D01*
X35650500Y-17924900D01*
X35660468Y-17887700D01*
X35687700Y-17860468D01*
X35724900Y-17850500D01*
X47755242Y-17850500D01*
X47795466Y-17862311D01*
X47822918Y-17893993D01*
X47828885Y-17935488D01*
X47819610Y-18000000D01*
X47839069Y-18135342D01*
X47841275Y-18140173D01*
X47841277Y-18140179D01*
X47842776Y-18143460D01*
X47849500Y-18174368D01*
X47849500Y-18670523D01*
X47849032Y-18678852D01*
X47844730Y-18717035D01*
X47845765Y-18722509D01*
X47845766Y-18722514D01*
X47855529Y-18774114D01*
X47855995Y-18776855D01*
X47864652Y-18834287D01*
X47867070Y-18839308D01*
X47867894Y-18841979D01*
X47867943Y-18842177D01*
X47868015Y-18842351D01*
X47868941Y-18844999D01*
X47869977Y-18850472D01*
X47872578Y-18855395D01*
X47872581Y-18855401D01*
X47897126Y-18901842D01*
X47898380Y-18904325D01*
X47921156Y-18951620D01*
X47921157Y-18951622D01*
X47923575Y-18956642D01*
X47927364Y-18960726D01*
X47928943Y-18963042D01*
X47929041Y-18963205D01*
X47929158Y-18963346D01*
X47930828Y-18965609D01*
X47933434Y-18970538D01*
X47937374Y-18974477D01*
X47937374Y-18974478D01*
X47974515Y-19011619D01*
X47976445Y-19013623D01*
X48015945Y-19056194D01*
X48020770Y-19058979D01*
X48022961Y-19060727D01*
X48029181Y-19066285D01*
X48260604Y-19297707D01*
X48266163Y-19303928D01*
X48290121Y-19333970D01*
X48338144Y-19366712D01*
X48340345Y-19368272D01*
X48387118Y-19402793D01*
X48392377Y-19404633D01*
X48394839Y-19405934D01*
X48395017Y-19406041D01*
X48395195Y-19406115D01*
X48397720Y-19407331D01*
X48402327Y-19410472D01*
X48457845Y-19427596D01*
X48460453Y-19428453D01*
X48515301Y-19447646D01*
X48520871Y-19447854D01*
X48523613Y-19448373D01*
X48523805Y-19448420D01*
X48524003Y-19448439D01*
X48526767Y-19448855D01*
X48532098Y-19450500D01*
X48590182Y-19450500D01*
X48592963Y-19450551D01*
X48651010Y-19452724D01*
X48656394Y-19451281D01*
X48659176Y-19450968D01*
X48667506Y-19450500D01*
X52682098Y-19450500D01*
X52740165Y-19450500D01*
X52742948Y-19450552D01*
X52801010Y-19452725D01*
X52806395Y-19451282D01*
X52809184Y-19450968D01*
X52817514Y-19450500D01*
X57682578Y-19450500D01*
X57711050Y-19456163D01*
X57735187Y-19472291D01*
X57827709Y-19564813D01*
X57843837Y-19588950D01*
X57849500Y-19617422D01*
X57849500Y-20625632D01*
X57842776Y-20656540D01*
X57841277Y-20659820D01*
X57841274Y-20659828D01*
X57839069Y-20664658D01*
X57838313Y-20669915D01*
X57838312Y-20669919D01*
X57820859Y-20791311D01*
X57819610Y-20800000D01*
X57839069Y-20935342D01*
X57841274Y-20940172D01*
X57841276Y-20940176D01*
X57893661Y-21054881D01*
X57895870Y-21059718D01*
X57985411Y-21163055D01*
X58100439Y-21236978D01*
X58231633Y-21275500D01*
X58363043Y-21275500D01*
X58368367Y-21275500D01*
X58499561Y-21236978D01*
X58614589Y-21163055D01*
X58704130Y-21059718D01*
X58760931Y-20935342D01*
X58780390Y-20800000D01*
X58760931Y-20664658D01*
X58757224Y-20656540D01*
X58750500Y-20625632D01*
X58750500Y-19429477D01*
X58750968Y-19421147D01*
X58755270Y-19382965D01*
X58744458Y-19325828D01*
X58744006Y-19323165D01*
X58735348Y-19265713D01*
X58732927Y-19260686D01*
X58732107Y-19258028D01*
X58732056Y-19257824D01*
X58731978Y-19257635D01*
X58731059Y-19255010D01*
X58730023Y-19249528D01*
X58702864Y-19198144D01*
X58701632Y-19195704D01*
X58676425Y-19143358D01*
X58672627Y-19139265D01*
X58671057Y-19136962D01*
X58670952Y-19136787D01*
X58670823Y-19136632D01*
X58669170Y-19134392D01*
X58666565Y-19129462D01*
X58625494Y-19088391D01*
X58623564Y-19086387D01*
X58610583Y-19072397D01*
X58584055Y-19043806D01*
X58579229Y-19041019D01*
X58577034Y-19039269D01*
X58570814Y-19033711D01*
X58239394Y-18702291D01*
X58233835Y-18696070D01*
X58213355Y-18670389D01*
X58209879Y-18666030D01*
X58161865Y-18633294D01*
X58159643Y-18631718D01*
X58112882Y-18597207D01*
X58107626Y-18595367D01*
X58105150Y-18594059D01*
X58104982Y-18593958D01*
X58104806Y-18593885D01*
X58102277Y-18592667D01*
X58097673Y-18589528D01*
X58092350Y-18587886D01*
X58092348Y-18587885D01*
X58042135Y-18572397D01*
X58039493Y-18571527D01*
X57989960Y-18554195D01*
X57984699Y-18552354D01*
X57979132Y-18552145D01*
X57976363Y-18551621D01*
X57976188Y-18551577D01*
X57976000Y-18551560D01*
X57973228Y-18551142D01*
X57967902Y-18549500D01*
X57962327Y-18549500D01*
X57909818Y-18549500D01*
X57907036Y-18549448D01*
X57854559Y-18547484D01*
X57854556Y-18547484D01*
X57848990Y-18547276D01*
X57843607Y-18548718D01*
X57840824Y-18549032D01*
X57832494Y-18549500D01*
X53224900Y-18549500D01*
X53187700Y-18539532D01*
X53160468Y-18512300D01*
X53150500Y-18475100D01*
X53150500Y-18174368D01*
X53157224Y-18143460D01*
X53158722Y-18140179D01*
X53158721Y-18140179D01*
X53160931Y-18135342D01*
X53180390Y-18000000D01*
X53160931Y-17864658D01*
X53104130Y-17740282D01*
X53014589Y-17636945D01*
X52899561Y-17563022D01*
X52894459Y-17561523D01*
X52894457Y-17561523D01*
X52773476Y-17526000D01*
X52773475Y-17525999D01*
X52768367Y-17524500D01*
X52631633Y-17524500D01*
X52626525Y-17525999D01*
X52626523Y-17526000D01*
X52505542Y-17561523D01*
X52505538Y-17561524D01*
X52500439Y-17563022D01*
X52495969Y-17565894D01*
X52495966Y-17565896D01*
X52392953Y-17632098D01*
X52385411Y-17636945D01*
X52381924Y-17640968D01*
X52381924Y-17640969D01*
X52340734Y-17688506D01*
X52295870Y-17740282D01*
X52293662Y-17745115D01*
X52293661Y-17745118D01*
X52241276Y-17859823D01*
X52241274Y-17859829D01*
X52239069Y-17864658D01*
X52238313Y-17869915D01*
X52238312Y-17869919D01*
X52228885Y-17935488D01*
X52219610Y-18000000D01*
X52239069Y-18135342D01*
X52241275Y-18140173D01*
X52241277Y-18140179D01*
X52242776Y-18143460D01*
X52249500Y-18174368D01*
X52249500Y-18475100D01*
X52239532Y-18512300D01*
X52212300Y-18539532D01*
X52175100Y-18549500D01*
X48824900Y-18549500D01*
X48787700Y-18539532D01*
X48760468Y-18512300D01*
X48750500Y-18475100D01*
X48750500Y-18174368D01*
X48757224Y-18143460D01*
X48758722Y-18140179D01*
X48758721Y-18140179D01*
X48760931Y-18135342D01*
X48780390Y-18000000D01*
X48760931Y-17864658D01*
X48757224Y-17856540D01*
X48750500Y-17825632D01*
X48750500Y-17729477D01*
X48750968Y-17721147D01*
X48754143Y-17692964D01*
X48755270Y-17682965D01*
X48744458Y-17625828D01*
X48744006Y-17623165D01*
X48735348Y-17565713D01*
X48732927Y-17560686D01*
X48732107Y-17558028D01*
X48732057Y-17557827D01*
X48731978Y-17557636D01*
X48731060Y-17555012D01*
X48730023Y-17549528D01*
X48702859Y-17498133D01*
X48701649Y-17495738D01*
X48676425Y-17443358D01*
X48672633Y-17439271D01*
X48671054Y-17436954D01*
X48670954Y-17436789D01*
X48670835Y-17436645D01*
X48669170Y-17434390D01*
X48666566Y-17429462D01*
X48625483Y-17388378D01*
X48623553Y-17386375D01*
X48587846Y-17347892D01*
X48584055Y-17343806D01*
X48579226Y-17341018D01*
X48577041Y-17339275D01*
X48570820Y-17333716D01*
X48495613Y-17258509D01*
X48475252Y-17220415D01*
X48479485Y-17177428D01*
X48506888Y-17144039D01*
X48548222Y-17131500D01*
X69050019Y-17131500D01*
X69095069Y-17146690D01*
X69121724Y-17186057D01*
X69119100Y-17233526D01*
X69088268Y-17269715D01*
X68973748Y-17338355D01*
X68973736Y-17338362D01*
X68972176Y-17339298D01*
X68970722Y-17340375D01*
X68970706Y-17340387D01*
X68721406Y-17525280D01*
X68721390Y-17525292D01*
X68719942Y-17526367D01*
X68718594Y-17527588D01*
X68718590Y-17527592D01*
X68488615Y-17736029D01*
X68488604Y-17736039D01*
X68487259Y-17737259D01*
X68486039Y-17738604D01*
X68486029Y-17738615D01*
X68278135Y-17967991D01*
X68276367Y-17969942D01*
X68275292Y-17971390D01*
X68275280Y-17971406D01*
X68090387Y-18220706D01*
X68090375Y-18220722D01*
X68089298Y-18222176D01*
X68088362Y-18223736D01*
X68088355Y-18223748D01*
X67928793Y-18489960D01*
X67928787Y-18489969D01*
X67927852Y-18491531D01*
X67927075Y-18493172D01*
X67927070Y-18493183D01*
X67794364Y-18773767D01*
X67794357Y-18773783D01*
X67793586Y-18775414D01*
X67792979Y-18777107D01*
X67792972Y-18777127D01*
X67688407Y-19069365D01*
X67688400Y-19069387D01*
X67687791Y-19071090D01*
X67687350Y-19072848D01*
X67687344Y-19072870D01*
X67611930Y-19373944D01*
X67611927Y-19373955D01*
X67611488Y-19375711D01*
X67611224Y-19377489D01*
X67611221Y-19377506D01*
X67565675Y-19684549D01*
X67565673Y-19684560D01*
X67565409Y-19686346D01*
X67565320Y-19688154D01*
X67565319Y-19688166D01*
X67552154Y-19956163D01*
X67550000Y-20000000D01*
X67550090Y-20001832D01*
X67565319Y-20311833D01*
X67565320Y-20311843D01*
X67565409Y-20313654D01*
X67565674Y-20315441D01*
X67565675Y-20315450D01*
X67611221Y-20622493D01*
X67611223Y-20622504D01*
X67611488Y-20624289D01*
X67611928Y-20626048D01*
X67611930Y-20626055D01*
X67687344Y-20927129D01*
X67687349Y-20927145D01*
X67687791Y-20928910D01*
X67688402Y-20930618D01*
X67688407Y-20930634D01*
X67792972Y-21222872D01*
X67792977Y-21222884D01*
X67793586Y-21224586D01*
X67794360Y-21226223D01*
X67794364Y-21226232D01*
X67800155Y-21238476D01*
X67927852Y-21508469D01*
X67928792Y-21510038D01*
X67928793Y-21510039D01*
X68064386Y-21736262D01*
X68089298Y-21777824D01*
X68090382Y-21779286D01*
X68090387Y-21779293D01*
X68254074Y-22000000D01*
X68276367Y-22030058D01*
X68487259Y-22262741D01*
X68719942Y-22473633D01*
X68721403Y-22474716D01*
X68721406Y-22474719D01*
X68951163Y-22645118D01*
X68972176Y-22660702D01*
X69241531Y-22822148D01*
X69525414Y-22956414D01*
X69527125Y-22957026D01*
X69527127Y-22957027D01*
X69819365Y-23061592D01*
X69819368Y-23061593D01*
X69821090Y-23062209D01*
X69822867Y-23062654D01*
X69822870Y-23062655D01*
X69900553Y-23082113D01*
X70125711Y-23138512D01*
X70436346Y-23184591D01*
X70750000Y-23200000D01*
X71063654Y-23184591D01*
X71374289Y-23138512D01*
X71678910Y-23062209D01*
X71974586Y-22956414D01*
X72258469Y-22822148D01*
X72527824Y-22660702D01*
X72780058Y-22473633D01*
X73012741Y-22262741D01*
X73223633Y-22030058D01*
X73410702Y-21777824D01*
X73489534Y-21646300D01*
X73525726Y-21615469D01*
X73573199Y-21612848D01*
X73612565Y-21639510D01*
X73627748Y-21684567D01*
X73618855Y-64050628D01*
X73603658Y-64095671D01*
X73564291Y-64122319D01*
X73516825Y-64119691D01*
X73480641Y-64088862D01*
X73410702Y-63972176D01*
X73223633Y-63719942D01*
X73012741Y-63487259D01*
X72780058Y-63276367D01*
X72778599Y-63275285D01*
X72778593Y-63275280D01*
X72529293Y-63090387D01*
X72529286Y-63090382D01*
X72527824Y-63089298D01*
X72258469Y-62927852D01*
X72256816Y-62927070D01*
X71976232Y-62794364D01*
X71976223Y-62794360D01*
X71974586Y-62793586D01*
X71972884Y-62792977D01*
X71972872Y-62792972D01*
X71680634Y-62688407D01*
X71680618Y-62688402D01*
X71678910Y-62687791D01*
X71677145Y-62687349D01*
X71677129Y-62687344D01*
X71376055Y-62611930D01*
X71376048Y-62611928D01*
X71374289Y-62611488D01*
X71372504Y-62611223D01*
X71372493Y-62611221D01*
X71065450Y-62565675D01*
X71065441Y-62565674D01*
X71063654Y-62565409D01*
X71061843Y-62565320D01*
X71061833Y-62565319D01*
X70751832Y-62550090D01*
X70750000Y-62550000D01*
X70748168Y-62550090D01*
X70438166Y-62565319D01*
X70438154Y-62565320D01*
X70436346Y-62565409D01*
X70434560Y-62565673D01*
X70434549Y-62565675D01*
X70127506Y-62611221D01*
X70127491Y-62611223D01*
X70125711Y-62611488D01*
X70123955Y-62611927D01*
X70123944Y-62611930D01*
X69822870Y-62687344D01*
X69822848Y-62687350D01*
X69821090Y-62687791D01*
X69819387Y-62688400D01*
X69819365Y-62688407D01*
X69527127Y-62792972D01*
X69527107Y-62792979D01*
X69525414Y-62793586D01*
X69523783Y-62794357D01*
X69523767Y-62794364D01*
X69243183Y-62927070D01*
X69243172Y-62927075D01*
X69241531Y-62927852D01*
X69239969Y-62928787D01*
X69239960Y-62928793D01*
X68973748Y-63088355D01*
X68973736Y-63088362D01*
X68972176Y-63089298D01*
X68970722Y-63090375D01*
X68970706Y-63090387D01*
X68721406Y-63275280D01*
X68721390Y-63275292D01*
X68719942Y-63276367D01*
X68718594Y-63277588D01*
X68718590Y-63277592D01*
X68488615Y-63486029D01*
X68488604Y-63486039D01*
X68487259Y-63487259D01*
X68486039Y-63488604D01*
X68486029Y-63488615D01*
X68277592Y-63718590D01*
X68276367Y-63719942D01*
X68275292Y-63721390D01*
X68275280Y-63721406D01*
X68090387Y-63970706D01*
X68090375Y-63970722D01*
X68089298Y-63972176D01*
X68088362Y-63973736D01*
X68088355Y-63973748D01*
X67928793Y-64239960D01*
X67928787Y-64239969D01*
X67927852Y-64241531D01*
X67927075Y-64243172D01*
X67927070Y-64243183D01*
X67794364Y-64523767D01*
X67794357Y-64523783D01*
X67793586Y-64525414D01*
X67792979Y-64527107D01*
X67792972Y-64527127D01*
X67688407Y-64819365D01*
X67688400Y-64819387D01*
X67687791Y-64821090D01*
X67687350Y-64822848D01*
X67687344Y-64822870D01*
X67611930Y-65123944D01*
X67611927Y-65123955D01*
X67611488Y-65125711D01*
X67611223Y-65127491D01*
X67611221Y-65127506D01*
X67565675Y-65434549D01*
X67565673Y-65434560D01*
X67565409Y-65436346D01*
X67565320Y-65438154D01*
X67565319Y-65438166D01*
X67554773Y-65652849D01*
X67550000Y-65750000D01*
X67550090Y-65751832D01*
X67565319Y-66061833D01*
X67565320Y-66061843D01*
X67565409Y-66063654D01*
X67565674Y-66065441D01*
X67565675Y-66065450D01*
X67611221Y-66372493D01*
X67611223Y-66372504D01*
X67611488Y-66374289D01*
X67611928Y-66376048D01*
X67611930Y-66376055D01*
X67687344Y-66677129D01*
X67687349Y-66677145D01*
X67687791Y-66678910D01*
X67688402Y-66680618D01*
X67688407Y-66680634D01*
X67792972Y-66972872D01*
X67792977Y-66972884D01*
X67793586Y-66974586D01*
X67794360Y-66976223D01*
X67794364Y-66976232D01*
X67927070Y-67256816D01*
X67927852Y-67258469D01*
X68089298Y-67527824D01*
X68090382Y-67529286D01*
X68090387Y-67529293D01*
X68153622Y-67614556D01*
X68276367Y-67780058D01*
X68487259Y-68012741D01*
X68719942Y-68223633D01*
X68972176Y-68410702D01*
X69088268Y-68480285D01*
X69119100Y-68516474D01*
X69121724Y-68563943D01*
X69095069Y-68603310D01*
X69050019Y-68618500D01*
X35949981Y-68618500D01*
X35904931Y-68603310D01*
X35878276Y-68563943D01*
X35880900Y-68516474D01*
X35911732Y-68480285D01*
X36027824Y-68410702D01*
X36280058Y-68223633D01*
X36512741Y-68012741D01*
X36723633Y-67780058D01*
X36910702Y-67527824D01*
X37072148Y-67258469D01*
X37206414Y-66974586D01*
X37312209Y-66678910D01*
X37388512Y-66374289D01*
X37434591Y-66063654D01*
X37450000Y-65750000D01*
X37434591Y-65436346D01*
X37388512Y-65125711D01*
X37312209Y-64821090D01*
X37206414Y-64525414D01*
X37072148Y-64241531D01*
X36910702Y-63972176D01*
X36723633Y-63719942D01*
X36512741Y-63487259D01*
X36280058Y-63276367D01*
X36278599Y-63275285D01*
X36278593Y-63275280D01*
X36029293Y-63090387D01*
X36029286Y-63090382D01*
X36027824Y-63089298D01*
X35758469Y-62927852D01*
X35756816Y-62927070D01*
X35476232Y-62794364D01*
X35476223Y-62794360D01*
X35474586Y-62793586D01*
X35472884Y-62792977D01*
X35472872Y-62792972D01*
X35180634Y-62688407D01*
X35180618Y-62688402D01*
X35178910Y-62687791D01*
X35177145Y-62687349D01*
X35177129Y-62687344D01*
X34876055Y-62611930D01*
X34876048Y-62611928D01*
X34874289Y-62611488D01*
X34872504Y-62611223D01*
X34872493Y-62611221D01*
X34565450Y-62565675D01*
X34565441Y-62565674D01*
X34563654Y-62565409D01*
X34561843Y-62565320D01*
X34561833Y-62565319D01*
X34251832Y-62550090D01*
X34250000Y-62550000D01*
X34248168Y-62550090D01*
X33938166Y-62565319D01*
X33938154Y-62565320D01*
X33936346Y-62565409D01*
X33934560Y-62565673D01*
X33934549Y-62565675D01*
X33627506Y-62611221D01*
X33627491Y-62611223D01*
X33625711Y-62611488D01*
X33623955Y-62611927D01*
X33623944Y-62611930D01*
X33322870Y-62687344D01*
X33322848Y-62687350D01*
X33321090Y-62687791D01*
X33319387Y-62688400D01*
X33319365Y-62688407D01*
X33027127Y-62792972D01*
X33027107Y-62792979D01*
X33025414Y-62793586D01*
X33023783Y-62794357D01*
X33023767Y-62794364D01*
X32743183Y-62927070D01*
X32743172Y-62927075D01*
X32741531Y-62927852D01*
X32739969Y-62928787D01*
X32739960Y-62928793D01*
X32473748Y-63088355D01*
X32473736Y-63088362D01*
X32472176Y-63089298D01*
X32470722Y-63090375D01*
X32470706Y-63090387D01*
X32221406Y-63275280D01*
X32221390Y-63275292D01*
X32219942Y-63276367D01*
X32218594Y-63277588D01*
X32218590Y-63277592D01*
X31988615Y-63486029D01*
X31988604Y-63486039D01*
X31987259Y-63487259D01*
X31986039Y-63488604D01*
X31986029Y-63488615D01*
X31777592Y-63718590D01*
X31776367Y-63719942D01*
X31775292Y-63721390D01*
X31775280Y-63721406D01*
X31590387Y-63970706D01*
X31590375Y-63970722D01*
X31589298Y-63972176D01*
X31588362Y-63973736D01*
X31588355Y-63973748D01*
X31519715Y-64088268D01*
X31483526Y-64119100D01*
X31436057Y-64121724D01*
X31396690Y-64095069D01*
X31381500Y-64050019D01*
X31381500Y-54363935D01*
X32895669Y-54363935D01*
X32896419Y-54368192D01*
X32896420Y-54368198D01*
X32920590Y-54505265D01*
X32926135Y-54536711D01*
X32995623Y-54697804D01*
X33100390Y-54838530D01*
X33103708Y-54841314D01*
X33103709Y-54841315D01*
X33219500Y-54938476D01*
X33234786Y-54951302D01*
X33391567Y-55030040D01*
X33562279Y-55070500D01*
X34291548Y-55070500D01*
X34293709Y-55070500D01*
X34424255Y-55055241D01*
X34589117Y-54995237D01*
X34735696Y-54898830D01*
X34856092Y-54771218D01*
X34943812Y-54619281D01*
X34994130Y-54451210D01*
X34999213Y-54363935D01*
X36825669Y-54363935D01*
X36826419Y-54368192D01*
X36826420Y-54368198D01*
X36850590Y-54505265D01*
X36856135Y-54536711D01*
X36925623Y-54697804D01*
X37030390Y-54838530D01*
X37033708Y-54841314D01*
X37033709Y-54841315D01*
X37149500Y-54938476D01*
X37164786Y-54951302D01*
X37321567Y-55030040D01*
X37492279Y-55070500D01*
X38721548Y-55070500D01*
X38723709Y-55070500D01*
X38854255Y-55055241D01*
X39019117Y-54995237D01*
X39165696Y-54898830D01*
X39286092Y-54771218D01*
X39373812Y-54619281D01*
X39424130Y-54451210D01*
X39434331Y-54276065D01*
X39403865Y-54103289D01*
X39334377Y-53942196D01*
X39229610Y-53801470D01*
X39215941Y-53790000D01*
X39098530Y-53691480D01*
X39098527Y-53691478D01*
X39095214Y-53688698D01*
X38938433Y-53609960D01*
X38934210Y-53608959D01*
X38771943Y-53570500D01*
X38771937Y-53570499D01*
X38767721Y-53569500D01*
X37847883Y-53569500D01*
X37800684Y-53552612D01*
X37774913Y-53509615D01*
X37782268Y-53460028D01*
X37819411Y-53426363D01*
X37892250Y-53396192D01*
X38013304Y-53303304D01*
X38106192Y-53182250D01*
X38164584Y-53041280D01*
X38184500Y-52890000D01*
X38164584Y-52738720D01*
X38106192Y-52597750D01*
X38013304Y-52476696D01*
X37892250Y-52383808D01*
X37751280Y-52325416D01*
X37746454Y-52324780D01*
X37746448Y-52324779D01*
X37640389Y-52310817D01*
X37640386Y-52310816D01*
X37637980Y-52310500D01*
X37562020Y-52310500D01*
X37559614Y-52310816D01*
X37559610Y-52310817D01*
X37453551Y-52324779D01*
X37453543Y-52324780D01*
X37448720Y-52325416D01*
X37444218Y-52327280D01*
X37444217Y-52327281D01*
X37312256Y-52381941D01*
X37312252Y-52381942D01*
X37307750Y-52383808D01*
X37303878Y-52386778D01*
X37303878Y-52386779D01*
X37190568Y-52473724D01*
X37190564Y-52473727D01*
X37186696Y-52476696D01*
X37183727Y-52480564D01*
X37183724Y-52480568D01*
X37096779Y-52593878D01*
X37093808Y-52597750D01*
X37091942Y-52602252D01*
X37091941Y-52602256D01*
X37037281Y-52734217D01*
X37035416Y-52738720D01*
X37034780Y-52743543D01*
X37034779Y-52743551D01*
X37016136Y-52885169D01*
X37015500Y-52890000D01*
X37016136Y-52894831D01*
X37034779Y-53036448D01*
X37034780Y-53036454D01*
X37035416Y-53041280D01*
X37093808Y-53182250D01*
X37186696Y-53303304D01*
X37307750Y-53396192D01*
X37421165Y-53443170D01*
X37456158Y-53473077D01*
X37466856Y-53517848D01*
X37449166Y-53560345D01*
X37409903Y-53584272D01*
X37405745Y-53584759D01*
X37401681Y-53586238D01*
X37401673Y-53586240D01*
X37244959Y-53643279D01*
X37244955Y-53643280D01*
X37240883Y-53644763D01*
X37237262Y-53647144D01*
X37237259Y-53647146D01*
X37097922Y-53738789D01*
X37097914Y-53738795D01*
X37094304Y-53741170D01*
X37091336Y-53744315D01*
X37091331Y-53744320D01*
X36976880Y-53865630D01*
X36976873Y-53865638D01*
X36973908Y-53868782D01*
X36971744Y-53872529D01*
X36971741Y-53872534D01*
X36888358Y-54016959D01*
X36888355Y-54016964D01*
X36886188Y-54020719D01*
X36884944Y-54024871D01*
X36884942Y-54024878D01*
X36837112Y-54184639D01*
X36837110Y-54184645D01*
X36835870Y-54188790D01*
X36835618Y-54193112D01*
X36835618Y-54193114D01*
X36834939Y-54204775D01*
X36825669Y-54363935D01*
X34999213Y-54363935D01*
X35004331Y-54276065D01*
X34973865Y-54103289D01*
X34904377Y-53942196D01*
X34799610Y-53801470D01*
X34785941Y-53790000D01*
X34668530Y-53691480D01*
X34668527Y-53691478D01*
X34665214Y-53688698D01*
X34508433Y-53609960D01*
X34504210Y-53608959D01*
X34341943Y-53570500D01*
X34341937Y-53570499D01*
X34337721Y-53569500D01*
X33606291Y-53569500D01*
X33604159Y-53569749D01*
X33604145Y-53569750D01*
X33480047Y-53584256D01*
X33480045Y-53584256D01*
X33475745Y-53584759D01*
X33471675Y-53586240D01*
X33471672Y-53586241D01*
X33314959Y-53643279D01*
X33314955Y-53643280D01*
X33310883Y-53644763D01*
X33307262Y-53647144D01*
X33307259Y-53647146D01*
X33167922Y-53738789D01*
X33167914Y-53738795D01*
X33164304Y-53741170D01*
X33161336Y-53744315D01*
X33161331Y-53744320D01*
X33046880Y-53865630D01*
X33046873Y-53865638D01*
X33043908Y-53868782D01*
X33041744Y-53872529D01*
X33041741Y-53872534D01*
X32958358Y-54016959D01*
X32958355Y-54016964D01*
X32956188Y-54020719D01*
X32954944Y-54024871D01*
X32954942Y-54024878D01*
X32907112Y-54184639D01*
X32907110Y-54184645D01*
X32905870Y-54188790D01*
X32905618Y-54193112D01*
X32905618Y-54193114D01*
X32904939Y-54204775D01*
X32895669Y-54363935D01*
X31381500Y-54363935D01*
X31381500Y-49328515D01*
X35169957Y-49328515D01*
X35170719Y-49334628D01*
X35170719Y-49334629D01*
X35173929Y-49360378D01*
X35174397Y-49367925D01*
X35174500Y-49369169D01*
X35174500Y-49372240D01*
X35175004Y-49375262D01*
X35175005Y-49375271D01*
X35177837Y-49392243D01*
X35178279Y-49395281D01*
X35182868Y-49432094D01*
X35184427Y-49444593D01*
X35186950Y-49449754D01*
X35186994Y-49449882D01*
X35187935Y-49452821D01*
X35187961Y-49452909D01*
X35188908Y-49458581D01*
X35191838Y-49463996D01*
X35191841Y-49464003D01*
X35212560Y-49502288D01*
X35213967Y-49505022D01*
X35233091Y-49544142D01*
X35233096Y-49544149D01*
X35235802Y-49549684D01*
X35239865Y-49553747D01*
X35239936Y-49553838D01*
X35241777Y-49556306D01*
X35241845Y-49556402D01*
X35244582Y-49561458D01*
X35249115Y-49565631D01*
X35249116Y-49565632D01*
X35281141Y-49595113D01*
X35283360Y-49597242D01*
X36627802Y-50941684D01*
X36637475Y-50953596D01*
X36645364Y-50965670D01*
X36650226Y-50969454D01*
X36650227Y-50969455D01*
X36670693Y-50985384D01*
X36676407Y-50990429D01*
X36677321Y-50991203D01*
X36679495Y-50993377D01*
X36681995Y-50995162D01*
X36682001Y-50995167D01*
X36696005Y-51005166D01*
X36698470Y-51007004D01*
X36732808Y-51033730D01*
X36737675Y-51037518D01*
X36743105Y-51039381D01*
X36743232Y-51039444D01*
X36745966Y-51040851D01*
X36746052Y-51040897D01*
X36750735Y-51044241D01*
X36798384Y-51058426D01*
X36801294Y-51059359D01*
X36842478Y-51073498D01*
X36842479Y-51073498D01*
X36848313Y-51075501D01*
X36854072Y-51075501D01*
X36854150Y-51075511D01*
X36857216Y-51075957D01*
X36857332Y-51075976D01*
X36862847Y-51077618D01*
X36912495Y-51075564D01*
X36915569Y-51075501D01*
X37009595Y-51075501D01*
X37049819Y-51087312D01*
X37077271Y-51118993D01*
X37095870Y-51159718D01*
X37185411Y-51263055D01*
X37300439Y-51336978D01*
X37431633Y-51375500D01*
X37563043Y-51375500D01*
X37568367Y-51375500D01*
X37699561Y-51336978D01*
X37814589Y-51263055D01*
X37904130Y-51159718D01*
X37960931Y-51035342D01*
X37980390Y-50900000D01*
X37960931Y-50764658D01*
X37904130Y-50640282D01*
X37824789Y-50548717D01*
X37808717Y-50517540D01*
X37808717Y-50482460D01*
X37824789Y-50451282D01*
X37904130Y-50359718D01*
X37960931Y-50235342D01*
X37980390Y-50100000D01*
X37960931Y-49964658D01*
X37904130Y-49840282D01*
X37814589Y-49736945D01*
X37699561Y-49663022D01*
X37694459Y-49661523D01*
X37694457Y-49661523D01*
X37573476Y-49626000D01*
X37573475Y-49625999D01*
X37568367Y-49624500D01*
X37431633Y-49624500D01*
X37426525Y-49625999D01*
X37426523Y-49626000D01*
X37305542Y-49661523D01*
X37305538Y-49661524D01*
X37300439Y-49663022D01*
X37295969Y-49665894D01*
X37295966Y-49665896D01*
X37189889Y-49734067D01*
X37185411Y-49736945D01*
X37181925Y-49740967D01*
X37181926Y-49740967D01*
X37175262Y-49748658D01*
X37141688Y-49770803D01*
X37101494Y-49772238D01*
X37066426Y-49752544D01*
X36347291Y-49033409D01*
X36331163Y-49009272D01*
X36325500Y-48980800D01*
X36325500Y-45723935D01*
X36825669Y-45723935D01*
X36826419Y-45728192D01*
X36826420Y-45728198D01*
X36851126Y-45868306D01*
X36856135Y-45896711D01*
X36925623Y-46057804D01*
X37030390Y-46198530D01*
X37033708Y-46201314D01*
X37033709Y-46201315D01*
X37102252Y-46258830D01*
X37164786Y-46311302D01*
X37321567Y-46390040D01*
X37417121Y-46412687D01*
X37456432Y-46436639D01*
X37474125Y-46479136D01*
X37463428Y-46523909D01*
X37428435Y-46553818D01*
X37312256Y-46601941D01*
X37312252Y-46601942D01*
X37307750Y-46603808D01*
X37303878Y-46606778D01*
X37303878Y-46606779D01*
X37190568Y-46693724D01*
X37190564Y-46693727D01*
X37186696Y-46696696D01*
X37183727Y-46700564D01*
X37183724Y-46700568D01*
X37153251Y-46740282D01*
X37093808Y-46817750D01*
X37091942Y-46822252D01*
X37091941Y-46822256D01*
X37037281Y-46954217D01*
X37035416Y-46958720D01*
X37034780Y-46963543D01*
X37034779Y-46963551D01*
X37016136Y-47105169D01*
X37015500Y-47110000D01*
X37016136Y-47114831D01*
X37034779Y-47256448D01*
X37034780Y-47256454D01*
X37035416Y-47261280D01*
X37037281Y-47265782D01*
X37078764Y-47365932D01*
X37093808Y-47402250D01*
X37186696Y-47523304D01*
X37307750Y-47616192D01*
X37448720Y-47674584D01*
X37562020Y-47689500D01*
X37635546Y-47689500D01*
X37637980Y-47689500D01*
X37751280Y-47674584D01*
X37892250Y-47616192D01*
X38013304Y-47523304D01*
X38106192Y-47402250D01*
X38164584Y-47261280D01*
X38184500Y-47110000D01*
X38164584Y-46958720D01*
X38106192Y-46817750D01*
X38013304Y-46696696D01*
X37892250Y-46603808D01*
X37819410Y-46573636D01*
X37782268Y-46539972D01*
X37774913Y-46490385D01*
X37800684Y-46447388D01*
X37847883Y-46430500D01*
X38721548Y-46430500D01*
X38723709Y-46430500D01*
X38854255Y-46415241D01*
X39019117Y-46355237D01*
X39165696Y-46258830D01*
X39286092Y-46131218D01*
X39373812Y-45979281D01*
X39424130Y-45811210D01*
X39434331Y-45636065D01*
X39403865Y-45463289D01*
X39334377Y-45302196D01*
X39229610Y-45161470D01*
X39161502Y-45104320D01*
X39098530Y-45051480D01*
X39098527Y-45051478D01*
X39095214Y-45048698D01*
X38938433Y-44969960D01*
X38934210Y-44968959D01*
X38771943Y-44930500D01*
X38771937Y-44930499D01*
X38767721Y-44929500D01*
X37536291Y-44929500D01*
X37534159Y-44929749D01*
X37534145Y-44929750D01*
X37410047Y-44944256D01*
X37410045Y-44944256D01*
X37405745Y-44944759D01*
X37401675Y-44946240D01*
X37401672Y-44946241D01*
X37244959Y-45003279D01*
X37244955Y-45003280D01*
X37240883Y-45004763D01*
X37237262Y-45007144D01*
X37237259Y-45007146D01*
X37097922Y-45098789D01*
X37097914Y-45098795D01*
X37094304Y-45101170D01*
X37091336Y-45104315D01*
X37091331Y-45104320D01*
X36976880Y-45225630D01*
X36976873Y-45225638D01*
X36973908Y-45228782D01*
X36971744Y-45232529D01*
X36971741Y-45232534D01*
X36888358Y-45376959D01*
X36888355Y-45376964D01*
X36886188Y-45380719D01*
X36884944Y-45384871D01*
X36884942Y-45384878D01*
X36837112Y-45544639D01*
X36837110Y-45544645D01*
X36835870Y-45548790D01*
X36825669Y-45723935D01*
X36325500Y-45723935D01*
X36325500Y-43000000D01*
X36519610Y-43000000D01*
X36520367Y-43005265D01*
X36534817Y-43105774D01*
X36539069Y-43135342D01*
X36541274Y-43140172D01*
X36541276Y-43140176D01*
X36593661Y-43254881D01*
X36595870Y-43259718D01*
X36685411Y-43363055D01*
X36800439Y-43436978D01*
X36931633Y-43475500D01*
X37063043Y-43475500D01*
X37068367Y-43475500D01*
X37199561Y-43436978D01*
X37314589Y-43363055D01*
X37404130Y-43259718D01*
X37460931Y-43135342D01*
X37480390Y-43000000D01*
X37460931Y-42864658D01*
X37457224Y-42856540D01*
X37450500Y-42825632D01*
X37450500Y-42217422D01*
X37456163Y-42188950D01*
X37472291Y-42164813D01*
X38164812Y-41472291D01*
X38188949Y-41456163D01*
X38217421Y-41450500D01*
X41002894Y-41450500D01*
X41044228Y-41463039D01*
X41071631Y-41496428D01*
X41075864Y-41539415D01*
X41055503Y-41577509D01*
X39822513Y-42810498D01*
X39822508Y-42810503D01*
X39819933Y-42813079D01*
X39817912Y-42816103D01*
X39817905Y-42816112D01*
X39765710Y-42894225D01*
X39765707Y-42894230D01*
X39763682Y-42897261D01*
X39762285Y-42900632D01*
X39762283Y-42900637D01*
X39760956Y-42903840D01*
X39760951Y-42903852D01*
X39760255Y-42905534D01*
X39759727Y-42907272D01*
X39759721Y-42907291D01*
X39746549Y-42950715D01*
X39745487Y-42954217D01*
X39745129Y-42957848D01*
X39745128Y-42957855D01*
X39740679Y-43003023D01*
X39740678Y-43003034D01*
X39740500Y-43004846D01*
X39740500Y-48995154D01*
X39740678Y-48996966D01*
X39740679Y-48996976D01*
X39745128Y-49042144D01*
X39745129Y-49042149D01*
X39745487Y-49045783D01*
X39746548Y-49049283D01*
X39746549Y-49049284D01*
X39759721Y-49092708D01*
X39759725Y-49092721D01*
X39760255Y-49094466D01*
X39763682Y-49102739D01*
X39765709Y-49105773D01*
X39765710Y-49105774D01*
X39817905Y-49183887D01*
X39817908Y-49183891D01*
X39819933Y-49186921D01*
X40063079Y-49430067D01*
X40147261Y-49486318D01*
X40155534Y-49489745D01*
X40204217Y-49504513D01*
X40254846Y-49509500D01*
X41743319Y-49509500D01*
X41745154Y-49509500D01*
X41795783Y-49504513D01*
X41844466Y-49489745D01*
X41852739Y-49486318D01*
X41936921Y-49430067D01*
X42180067Y-49186921D01*
X42236318Y-49102739D01*
X42239745Y-49094466D01*
X42254513Y-49045783D01*
X42259500Y-48995154D01*
X42259500Y-47000000D01*
X48769610Y-47000000D01*
X48770367Y-47005265D01*
X48784730Y-47105169D01*
X48789069Y-47135342D01*
X48791274Y-47140172D01*
X48791276Y-47140176D01*
X48833171Y-47231911D01*
X48845870Y-47259718D01*
X48935411Y-47363055D01*
X49050439Y-47436978D01*
X49181633Y-47475500D01*
X49313043Y-47475500D01*
X49318367Y-47475500D01*
X49393244Y-47453513D01*
X49414205Y-47450500D01*
X52282578Y-47450500D01*
X52311050Y-47456163D01*
X52335187Y-47472291D01*
X52777709Y-47914812D01*
X52793837Y-47938949D01*
X52799500Y-47967421D01*
X52799500Y-58825632D01*
X52792776Y-58856540D01*
X52791277Y-58859820D01*
X52791274Y-58859828D01*
X52789069Y-58864658D01*
X52788313Y-58869915D01*
X52788312Y-58869919D01*
X52770859Y-58991311D01*
X52769610Y-59000000D01*
X52789069Y-59135342D01*
X52791274Y-59140172D01*
X52791276Y-59140176D01*
X52843661Y-59254881D01*
X52845870Y-59259718D01*
X52935411Y-59363055D01*
X53050439Y-59436978D01*
X53181633Y-59475500D01*
X53313043Y-59475500D01*
X53318367Y-59475500D01*
X53449561Y-59436978D01*
X53564589Y-59363055D01*
X53654130Y-59259718D01*
X53710931Y-59135342D01*
X53730390Y-59000000D01*
X53710931Y-58864658D01*
X53707224Y-58856540D01*
X53700500Y-58825632D01*
X53700500Y-47779477D01*
X53700968Y-47771147D01*
X53705270Y-47732965D01*
X53694458Y-47675828D01*
X53694006Y-47673165D01*
X53685348Y-47615713D01*
X53682927Y-47610686D01*
X53682107Y-47608028D01*
X53682056Y-47607824D01*
X53681978Y-47607635D01*
X53681059Y-47605010D01*
X53680023Y-47599528D01*
X53652864Y-47548144D01*
X53651632Y-47545704D01*
X53626425Y-47493358D01*
X53622627Y-47489265D01*
X53621057Y-47486962D01*
X53620952Y-47486787D01*
X53620823Y-47486632D01*
X53619170Y-47484392D01*
X53616565Y-47479462D01*
X53575493Y-47438390D01*
X53573564Y-47436387D01*
X53571445Y-47434103D01*
X53534055Y-47393806D01*
X53529229Y-47391019D01*
X53527034Y-47389269D01*
X53520814Y-47383711D01*
X52839394Y-46702291D01*
X52833835Y-46696070D01*
X52813355Y-46670389D01*
X52809879Y-46666030D01*
X52761865Y-46633294D01*
X52759643Y-46631718D01*
X52712882Y-46597207D01*
X52707626Y-46595367D01*
X52705150Y-46594059D01*
X52704982Y-46593958D01*
X52704806Y-46593885D01*
X52702277Y-46592667D01*
X52697673Y-46589528D01*
X52692350Y-46587886D01*
X52692348Y-46587885D01*
X52642135Y-46572397D01*
X52639493Y-46571527D01*
X52589960Y-46554195D01*
X52584699Y-46552354D01*
X52579132Y-46552145D01*
X52576363Y-46551621D01*
X52576188Y-46551577D01*
X52576000Y-46551560D01*
X52573228Y-46551142D01*
X52567902Y-46549500D01*
X52562327Y-46549500D01*
X52509818Y-46549500D01*
X52507036Y-46549448D01*
X52454559Y-46547484D01*
X52454556Y-46547484D01*
X52448990Y-46547276D01*
X52443607Y-46548718D01*
X52440824Y-46549032D01*
X52432494Y-46549500D01*
X49414205Y-46549500D01*
X49393244Y-46546486D01*
X49323476Y-46526000D01*
X49323475Y-46525999D01*
X49318367Y-46524500D01*
X49181633Y-46524500D01*
X49176525Y-46525999D01*
X49176523Y-46526000D01*
X49055542Y-46561523D01*
X49055538Y-46561524D01*
X49050439Y-46563022D01*
X49045969Y-46565894D01*
X49045966Y-46565896D01*
X48939889Y-46634067D01*
X48935411Y-46636945D01*
X48931924Y-46640968D01*
X48931924Y-46640969D01*
X48912932Y-46662888D01*
X48845870Y-46740282D01*
X48843662Y-46745115D01*
X48843661Y-46745118D01*
X48791276Y-46859823D01*
X48791274Y-46859829D01*
X48789069Y-46864658D01*
X48788313Y-46869915D01*
X48788312Y-46869919D01*
X48770859Y-46991311D01*
X48769610Y-47000000D01*
X42259500Y-47000000D01*
X42259500Y-44138306D01*
X42265163Y-44109834D01*
X42281291Y-44085697D01*
X42585697Y-43781291D01*
X42609834Y-43765163D01*
X42638306Y-43759500D01*
X43493319Y-43759500D01*
X43495154Y-43759500D01*
X43545783Y-43754513D01*
X43594466Y-43739745D01*
X43602739Y-43736318D01*
X43686921Y-43680067D01*
X44180067Y-43186921D01*
X44236318Y-43102739D01*
X44239745Y-43094466D01*
X44254513Y-43045783D01*
X44259500Y-42995154D01*
X44259500Y-42326221D01*
X44272039Y-42284887D01*
X44305428Y-42257484D01*
X44348415Y-42253251D01*
X44386509Y-42273612D01*
X44660604Y-42547707D01*
X44666163Y-42553928D01*
X44690121Y-42583970D01*
X44738144Y-42616712D01*
X44740345Y-42618272D01*
X44787118Y-42652793D01*
X44792377Y-42654633D01*
X44794839Y-42655934D01*
X44795017Y-42656041D01*
X44795195Y-42656115D01*
X44797720Y-42657331D01*
X44802327Y-42660472D01*
X44847843Y-42674511D01*
X44857845Y-42677596D01*
X44860453Y-42678453D01*
X44915301Y-42697646D01*
X44920871Y-42697854D01*
X44923613Y-42698373D01*
X44923805Y-42698420D01*
X44924003Y-42698439D01*
X44926767Y-42698855D01*
X44932098Y-42700500D01*
X44990182Y-42700500D01*
X44992963Y-42700551D01*
X45051010Y-42702724D01*
X45056394Y-42701281D01*
X45059176Y-42700968D01*
X45067506Y-42700500D01*
X45585795Y-42700500D01*
X45606755Y-42703513D01*
X45681633Y-42725500D01*
X45813043Y-42725500D01*
X45818367Y-42725500D01*
X45893244Y-42703513D01*
X45914205Y-42700500D01*
X47432098Y-42700500D01*
X47533762Y-42700500D01*
X47585795Y-42700500D01*
X47606755Y-42703513D01*
X47681633Y-42725500D01*
X47813043Y-42725500D01*
X47818367Y-42725500D01*
X47893244Y-42703513D01*
X47914205Y-42700500D01*
X49585795Y-42700500D01*
X49606755Y-42703513D01*
X49681633Y-42725500D01*
X49813043Y-42725500D01*
X49818367Y-42725500D01*
X49893244Y-42703513D01*
X49914205Y-42700500D01*
X52085795Y-42700500D01*
X52106755Y-42703513D01*
X52181633Y-42725500D01*
X52313043Y-42725500D01*
X52318367Y-42725500D01*
X52393244Y-42703513D01*
X52414205Y-42700500D01*
X54532578Y-42700500D01*
X54561050Y-42706163D01*
X54585187Y-42722291D01*
X54777709Y-42914812D01*
X54793837Y-42938949D01*
X54799500Y-42967421D01*
X54799500Y-44970523D01*
X54799032Y-44978853D01*
X54796113Y-45004763D01*
X54794730Y-45017035D01*
X54795765Y-45022509D01*
X54795766Y-45022514D01*
X54805529Y-45074114D01*
X54805995Y-45076855D01*
X54808635Y-45094370D01*
X54814652Y-45134287D01*
X54817070Y-45139308D01*
X54817894Y-45141979D01*
X54817943Y-45142177D01*
X54818015Y-45142351D01*
X54818941Y-45144999D01*
X54819977Y-45150472D01*
X54822578Y-45155395D01*
X54822581Y-45155401D01*
X54847126Y-45201842D01*
X54848380Y-45204325D01*
X54871156Y-45251620D01*
X54871157Y-45251622D01*
X54873575Y-45256642D01*
X54877364Y-45260726D01*
X54878943Y-45263042D01*
X54879041Y-45263205D01*
X54879158Y-45263346D01*
X54880828Y-45265609D01*
X54883434Y-45270538D01*
X54887374Y-45274478D01*
X54924516Y-45311620D01*
X54926446Y-45313624D01*
X54965945Y-45356194D01*
X54970770Y-45358979D01*
X54972961Y-45360727D01*
X54979181Y-45366285D01*
X55410604Y-45797707D01*
X55416163Y-45803928D01*
X55440121Y-45833970D01*
X55488144Y-45866712D01*
X55490345Y-45868272D01*
X55537118Y-45902793D01*
X55542377Y-45904633D01*
X55544839Y-45905934D01*
X55545017Y-45906041D01*
X55545195Y-45906115D01*
X55547720Y-45907331D01*
X55552327Y-45910472D01*
X55597843Y-45924511D01*
X55607845Y-45927596D01*
X55610453Y-45928453D01*
X55665301Y-45947646D01*
X55670872Y-45947854D01*
X55673614Y-45948373D01*
X55673808Y-45948421D01*
X55674011Y-45948440D01*
X55676767Y-45948855D01*
X55682098Y-45950500D01*
X55740165Y-45950500D01*
X55742948Y-45950552D01*
X55801010Y-45952725D01*
X55806395Y-45951282D01*
X55809184Y-45950968D01*
X55817514Y-45950500D01*
X56835795Y-45950500D01*
X56856755Y-45953513D01*
X56931633Y-45975500D01*
X57063043Y-45975500D01*
X57068367Y-45975500D01*
X57143244Y-45953513D01*
X57164205Y-45950500D01*
X57282578Y-45950500D01*
X57311050Y-45956163D01*
X57335187Y-45972291D01*
X57527709Y-46164812D01*
X57543837Y-46188949D01*
X57549500Y-46217421D01*
X57549500Y-53782579D01*
X57543837Y-53811051D01*
X57527709Y-53835188D01*
X57335188Y-54027709D01*
X57311051Y-54043837D01*
X57282579Y-54049500D01*
X57164205Y-54049500D01*
X57143244Y-54046486D01*
X57134222Y-54043837D01*
X57068367Y-54024500D01*
X56931633Y-54024500D01*
X56926525Y-54025999D01*
X56926523Y-54026000D01*
X56805542Y-54061523D01*
X56805538Y-54061524D01*
X56800439Y-54063022D01*
X56795969Y-54065894D01*
X56795966Y-54065896D01*
X56689889Y-54134067D01*
X56685411Y-54136945D01*
X56681924Y-54140968D01*
X56681924Y-54140969D01*
X56626637Y-54204775D01*
X56595870Y-54240282D01*
X56593662Y-54245115D01*
X56593661Y-54245118D01*
X56541276Y-54359823D01*
X56541274Y-54359829D01*
X56539069Y-54364658D01*
X56538313Y-54369915D01*
X56538312Y-54369919D01*
X56526625Y-54451210D01*
X56519610Y-54500000D01*
X56520367Y-54505265D01*
X56536759Y-54619281D01*
X56539069Y-54635342D01*
X56541274Y-54640172D01*
X56541276Y-54640176D01*
X56569183Y-54701282D01*
X56595870Y-54759718D01*
X56685411Y-54863055D01*
X56800439Y-54936978D01*
X56931633Y-54975500D01*
X57063043Y-54975500D01*
X57068367Y-54975500D01*
X57143244Y-54953513D01*
X57164205Y-54950500D01*
X57470523Y-54950500D01*
X57478852Y-54950967D01*
X57517035Y-54955270D01*
X57574178Y-54944457D01*
X57576832Y-54944006D01*
X57634287Y-54935348D01*
X57639319Y-54932923D01*
X57641954Y-54932111D01*
X57642170Y-54932057D01*
X57642359Y-54931979D01*
X57644983Y-54931060D01*
X57650472Y-54930023D01*
X57701867Y-54902858D01*
X57704299Y-54901631D01*
X57756642Y-54876425D01*
X57760731Y-54872630D01*
X57763029Y-54871064D01*
X57763207Y-54870956D01*
X57763354Y-54870835D01*
X57765606Y-54869172D01*
X57770538Y-54866566D01*
X57811631Y-54825471D01*
X57813611Y-54823565D01*
X57856194Y-54784055D01*
X57858985Y-54779218D01*
X57860721Y-54777043D01*
X57866274Y-54770828D01*
X58297715Y-54339386D01*
X58303917Y-54333844D01*
X58333970Y-54309879D01*
X58366712Y-54261855D01*
X58368324Y-54259584D01*
X58402793Y-54212882D01*
X58404635Y-54207614D01*
X58405932Y-54205162D01*
X58406040Y-54204982D01*
X58406119Y-54204792D01*
X58407325Y-54202287D01*
X58410472Y-54197673D01*
X58427599Y-54142143D01*
X58428462Y-54139523D01*
X58445803Y-54089968D01*
X58445803Y-54089963D01*
X58447646Y-54084699D01*
X58447854Y-54079122D01*
X58448372Y-54076386D01*
X58448420Y-54076191D01*
X58448440Y-54075980D01*
X58448853Y-54073238D01*
X58450500Y-54067902D01*
X58450500Y-54009835D01*
X58450552Y-54007052D01*
X58450607Y-54005574D01*
X58452725Y-53948990D01*
X58451282Y-53943605D01*
X58450968Y-53940816D01*
X58450500Y-53932486D01*
X58450500Y-53383663D01*
X61462501Y-53383663D01*
X61462664Y-53387152D01*
X61464991Y-53411975D01*
X61466909Y-53420760D01*
X61509370Y-53542107D01*
X61514525Y-53551860D01*
X61590243Y-53654455D01*
X61598044Y-53662256D01*
X61700639Y-53737974D01*
X61710392Y-53743129D01*
X61831744Y-53785592D01*
X61840518Y-53787508D01*
X61865350Y-53789836D01*
X61868835Y-53790000D01*
X63262703Y-53790000D01*
X63270429Y-53787929D01*
X63272500Y-53780203D01*
X63272500Y-53780202D01*
X63672500Y-53780202D01*
X63674570Y-53787928D01*
X63682297Y-53789999D01*
X65076163Y-53789999D01*
X65079652Y-53789835D01*
X65104475Y-53787508D01*
X65113260Y-53785590D01*
X65234607Y-53743129D01*
X65244360Y-53737974D01*
X65346955Y-53662256D01*
X65354756Y-53654455D01*
X65430474Y-53551860D01*
X65435629Y-53542107D01*
X65478092Y-53420755D01*
X65480008Y-53411981D01*
X65482336Y-53387149D01*
X65482500Y-53383665D01*
X65482500Y-52749797D01*
X65480429Y-52742070D01*
X65472703Y-52740000D01*
X63682297Y-52740000D01*
X63674570Y-52742070D01*
X63672500Y-52749797D01*
X63672500Y-53780202D01*
X63272500Y-53780202D01*
X63272500Y-52749797D01*
X63270429Y-52742070D01*
X63262703Y-52740000D01*
X61472298Y-52740000D01*
X61464571Y-52742070D01*
X61462501Y-52749797D01*
X61462501Y-53383663D01*
X58450500Y-53383663D01*
X58450500Y-52330203D01*
X61462500Y-52330203D01*
X61464570Y-52337929D01*
X61472297Y-52340000D01*
X63262703Y-52340000D01*
X63270429Y-52337929D01*
X63272500Y-52330203D01*
X63672500Y-52330203D01*
X63674570Y-52337929D01*
X63682297Y-52340000D01*
X65472702Y-52340000D01*
X65480428Y-52337929D01*
X65482499Y-52330203D01*
X65482499Y-51696337D01*
X65482335Y-51692847D01*
X65480008Y-51668024D01*
X65478090Y-51659239D01*
X65435629Y-51537892D01*
X65430474Y-51528139D01*
X65354756Y-51425544D01*
X65346955Y-51417743D01*
X65244360Y-51342025D01*
X65234607Y-51336870D01*
X65113255Y-51294407D01*
X65104481Y-51292491D01*
X65079649Y-51290163D01*
X65076165Y-51290000D01*
X63682297Y-51290000D01*
X63674570Y-51292070D01*
X63672500Y-51299797D01*
X63672500Y-52330203D01*
X63272500Y-52330203D01*
X63272500Y-51299798D01*
X63270429Y-51292071D01*
X63262703Y-51290001D01*
X61868837Y-51290001D01*
X61865347Y-51290164D01*
X61840524Y-51292491D01*
X61831739Y-51294409D01*
X61710392Y-51336870D01*
X61700639Y-51342025D01*
X61598044Y-51417743D01*
X61590243Y-51425544D01*
X61514525Y-51528139D01*
X61509370Y-51537892D01*
X61466907Y-51659244D01*
X61464991Y-51668018D01*
X61462663Y-51692850D01*
X61462500Y-51696335D01*
X61462500Y-52330203D01*
X58450500Y-52330203D01*
X58450500Y-47460000D01*
X61417070Y-47460000D01*
X61417353Y-47463235D01*
X61436466Y-47681711D01*
X61436467Y-47681719D01*
X61436750Y-47684949D01*
X61437590Y-47688086D01*
X61437591Y-47688088D01*
X61494351Y-47899920D01*
X61494354Y-47899928D01*
X61495194Y-47903063D01*
X61496566Y-47906007D01*
X61496569Y-47906013D01*
X61565395Y-48053609D01*
X61590625Y-48107715D01*
X61592489Y-48110377D01*
X61718279Y-48290025D01*
X61718283Y-48290030D01*
X61720143Y-48292686D01*
X61879814Y-48452357D01*
X61882470Y-48454217D01*
X61882474Y-48454220D01*
X61983626Y-48525047D01*
X62064785Y-48581875D01*
X62269437Y-48677306D01*
X62487551Y-48735750D01*
X62656148Y-48750500D01*
X64287235Y-48750500D01*
X64288852Y-48750500D01*
X64457449Y-48735750D01*
X64675563Y-48677306D01*
X64880215Y-48581875D01*
X65065186Y-48452357D01*
X65224857Y-48292686D01*
X65354375Y-48107715D01*
X65449806Y-47903063D01*
X65508250Y-47684949D01*
X65527930Y-47460000D01*
X65508250Y-47235051D01*
X65449806Y-47016937D01*
X65354375Y-46812285D01*
X65297547Y-46731126D01*
X65226720Y-46629974D01*
X65226717Y-46629970D01*
X65224857Y-46627314D01*
X65065186Y-46467643D01*
X65062530Y-46465783D01*
X65062525Y-46465779D01*
X64882877Y-46339989D01*
X64880215Y-46338125D01*
X64816725Y-46308519D01*
X64678513Y-46244069D01*
X64678507Y-46244066D01*
X64675563Y-46242694D01*
X64672428Y-46241854D01*
X64672420Y-46241851D01*
X64460588Y-46185091D01*
X64460586Y-46185090D01*
X64457449Y-46184250D01*
X64454219Y-46183967D01*
X64454211Y-46183966D01*
X64290462Y-46169640D01*
X64290442Y-46169639D01*
X64288852Y-46169500D01*
X62656148Y-46169500D01*
X62654558Y-46169639D01*
X62654537Y-46169640D01*
X62490788Y-46183966D01*
X62490778Y-46183967D01*
X62487551Y-46184250D01*
X62484415Y-46185090D01*
X62484411Y-46185091D01*
X62272579Y-46241851D01*
X62272567Y-46241855D01*
X62269437Y-46242694D01*
X62266496Y-46244065D01*
X62266486Y-46244069D01*
X62067731Y-46336751D01*
X62067728Y-46336752D01*
X62064785Y-46338125D01*
X62062127Y-46339985D01*
X62062122Y-46339989D01*
X61882474Y-46465779D01*
X61882463Y-46465787D01*
X61879814Y-46467643D01*
X61877524Y-46469932D01*
X61877518Y-46469938D01*
X61722438Y-46625018D01*
X61722432Y-46625024D01*
X61720143Y-46627314D01*
X61718287Y-46629963D01*
X61718279Y-46629974D01*
X61592489Y-46809622D01*
X61592485Y-46809627D01*
X61590625Y-46812285D01*
X61589252Y-46815228D01*
X61589251Y-46815231D01*
X61496569Y-47013986D01*
X61496565Y-47013996D01*
X61495194Y-47016937D01*
X61494355Y-47020067D01*
X61494351Y-47020079D01*
X61437591Y-47231911D01*
X61436750Y-47235051D01*
X61436467Y-47238278D01*
X61436466Y-47238288D01*
X61419336Y-47434103D01*
X61417070Y-47460000D01*
X58450500Y-47460000D01*
X58450500Y-46029477D01*
X58450968Y-46021147D01*
X58455270Y-45982965D01*
X58444459Y-45925828D01*
X58444005Y-45923157D01*
X58435348Y-45865713D01*
X58432927Y-45860687D01*
X58432108Y-45858030D01*
X58432056Y-45857823D01*
X58431986Y-45857652D01*
X58431060Y-45855006D01*
X58430024Y-45849529D01*
X58402870Y-45798152D01*
X58401618Y-45795672D01*
X58376425Y-45743358D01*
X58372635Y-45739273D01*
X58371053Y-45736952D01*
X58370955Y-45736789D01*
X58370833Y-45736642D01*
X58369168Y-45734387D01*
X58366566Y-45729463D01*
X58325494Y-45688391D01*
X58323564Y-45686387D01*
X58287845Y-45647891D01*
X58287846Y-45647891D01*
X58284055Y-45643806D01*
X58279229Y-45641019D01*
X58277034Y-45639269D01*
X58270814Y-45633711D01*
X57839394Y-45202291D01*
X57833835Y-45196070D01*
X57813355Y-45170389D01*
X57809879Y-45166030D01*
X57794289Y-45155401D01*
X57775149Y-45142351D01*
X57761865Y-45133294D01*
X57759643Y-45131718D01*
X57712882Y-45097207D01*
X57707626Y-45095367D01*
X57705150Y-45094059D01*
X57704982Y-45093958D01*
X57704806Y-45093885D01*
X57702277Y-45092667D01*
X57697673Y-45089528D01*
X57692350Y-45087886D01*
X57692348Y-45087885D01*
X57642135Y-45072397D01*
X57639493Y-45071527D01*
X57589960Y-45054195D01*
X57584699Y-45052354D01*
X57579132Y-45052145D01*
X57576363Y-45051621D01*
X57576188Y-45051577D01*
X57576000Y-45051560D01*
X57573228Y-45051142D01*
X57567902Y-45049500D01*
X57562327Y-45049500D01*
X57509818Y-45049500D01*
X57507036Y-45049448D01*
X57454559Y-45047484D01*
X57454556Y-45047484D01*
X57448990Y-45047276D01*
X57443607Y-45048718D01*
X57440824Y-45049032D01*
X57432494Y-45049500D01*
X57164205Y-45049500D01*
X57143244Y-45046486D01*
X57134222Y-45043837D01*
X57068367Y-45024500D01*
X56931633Y-45024500D01*
X56926525Y-45025999D01*
X56926523Y-45026000D01*
X56856756Y-45046486D01*
X56835795Y-45049500D01*
X55967421Y-45049500D01*
X55938949Y-45043837D01*
X55914812Y-45027709D01*
X55722291Y-44835188D01*
X55706163Y-44811051D01*
X55700500Y-44782579D01*
X55700500Y-42779477D01*
X55700968Y-42771147D01*
X55705270Y-42732965D01*
X55694459Y-42675828D01*
X55694005Y-42673157D01*
X55685348Y-42615713D01*
X55682927Y-42610687D01*
X55682108Y-42608030D01*
X55682056Y-42607823D01*
X55681986Y-42607652D01*
X55681060Y-42605006D01*
X55680024Y-42599529D01*
X55652870Y-42548152D01*
X55651618Y-42545672D01*
X55626425Y-42493358D01*
X55622635Y-42489273D01*
X55621053Y-42486952D01*
X55620955Y-42486789D01*
X55620833Y-42486642D01*
X55619168Y-42484387D01*
X55616566Y-42479463D01*
X55575493Y-42438390D01*
X55573564Y-42436387D01*
X55537845Y-42397891D01*
X55537846Y-42397891D01*
X55534055Y-42393806D01*
X55529229Y-42391019D01*
X55527034Y-42389269D01*
X55520814Y-42383711D01*
X55439711Y-42302608D01*
X55420455Y-42269255D01*
X55420455Y-42230743D01*
X55439708Y-42197393D01*
X55547715Y-42089386D01*
X55553917Y-42083844D01*
X55583970Y-42059879D01*
X55616712Y-42011855D01*
X55618324Y-42009584D01*
X55621795Y-42004881D01*
X55652793Y-41962882D01*
X55654635Y-41957614D01*
X55655932Y-41955162D01*
X55656040Y-41954982D01*
X55656119Y-41954792D01*
X55657325Y-41952287D01*
X55660472Y-41947673D01*
X55677599Y-41892143D01*
X55678462Y-41889523D01*
X55695803Y-41839968D01*
X55695803Y-41839963D01*
X55697646Y-41834699D01*
X55697854Y-41829122D01*
X55698372Y-41826386D01*
X55698420Y-41826191D01*
X55698440Y-41825980D01*
X55698853Y-41823238D01*
X55700500Y-41817902D01*
X55700500Y-41759835D01*
X55700552Y-41757052D01*
X55701454Y-41732952D01*
X55702725Y-41698990D01*
X55701282Y-41693605D01*
X55700968Y-41690816D01*
X55700500Y-41682486D01*
X55700500Y-36467422D01*
X55706163Y-36438950D01*
X55722291Y-36414813D01*
X55914812Y-36222291D01*
X55938949Y-36206163D01*
X55967421Y-36200500D01*
X56335795Y-36200500D01*
X56356755Y-36203513D01*
X56431633Y-36225500D01*
X56563043Y-36225500D01*
X56568367Y-36225500D01*
X56643244Y-36203513D01*
X56664205Y-36200500D01*
X57182098Y-36200500D01*
X57283762Y-36200500D01*
X57335795Y-36200500D01*
X57356755Y-36203513D01*
X57431633Y-36225500D01*
X57563043Y-36225500D01*
X57568367Y-36225500D01*
X57643244Y-36203513D01*
X57664205Y-36200500D01*
X58335795Y-36200500D01*
X58356755Y-36203513D01*
X58431633Y-36225500D01*
X58563043Y-36225500D01*
X58568367Y-36225500D01*
X58643244Y-36203513D01*
X58664205Y-36200500D01*
X59335795Y-36200500D01*
X59356755Y-36203513D01*
X59431633Y-36225500D01*
X59563043Y-36225500D01*
X59568367Y-36225500D01*
X59643244Y-36203513D01*
X59664205Y-36200500D01*
X60335795Y-36200500D01*
X60356755Y-36203513D01*
X60431633Y-36225500D01*
X60563043Y-36225500D01*
X60568367Y-36225500D01*
X60699561Y-36186978D01*
X60704034Y-36184102D01*
X60704039Y-36184101D01*
X60809477Y-36116341D01*
X60847045Y-36104577D01*
X60885356Y-36113631D01*
X60913685Y-36140966D01*
X60924100Y-36178930D01*
X60924100Y-40084190D01*
X60918437Y-40112662D01*
X60902309Y-40136799D01*
X60636799Y-40402309D01*
X60612662Y-40418437D01*
X60584190Y-40424100D01*
X60380762Y-40424100D01*
X60349855Y-40417377D01*
X60324535Y-40398422D01*
X60318075Y-40390966D01*
X60318067Y-40390959D01*
X60314589Y-40386945D01*
X60310118Y-40384071D01*
X60310115Y-40384069D01*
X60204033Y-40315896D01*
X60199561Y-40313022D01*
X60194459Y-40311523D01*
X60194457Y-40311523D01*
X60073476Y-40276000D01*
X60073475Y-40275999D01*
X60068367Y-40274500D01*
X59931633Y-40274500D01*
X59926525Y-40275999D01*
X59926523Y-40276000D01*
X59805542Y-40311523D01*
X59805538Y-40311524D01*
X59800439Y-40313022D01*
X59795969Y-40315894D01*
X59795966Y-40315896D01*
X59691151Y-40383256D01*
X59685411Y-40386945D01*
X59681927Y-40390966D01*
X59681924Y-40390969D01*
X59632109Y-40448460D01*
X59595870Y-40490282D01*
X59593662Y-40495115D01*
X59593661Y-40495118D01*
X59541276Y-40609823D01*
X59541274Y-40609829D01*
X59539069Y-40614658D01*
X59538313Y-40619915D01*
X59538312Y-40619919D01*
X59524506Y-40715945D01*
X59519610Y-40750000D01*
X59539069Y-40885342D01*
X59541274Y-40890172D01*
X59541276Y-40890176D01*
X59576174Y-40966591D01*
X59595870Y-41009718D01*
X59599352Y-41013736D01*
X59599353Y-41013738D01*
X59635705Y-41055691D01*
X59652177Y-41088598D01*
X59650863Y-41125373D01*
X59632086Y-41157020D01*
X59536399Y-41252708D01*
X59512262Y-41268837D01*
X59483790Y-41274500D01*
X59431633Y-41274500D01*
X59426525Y-41275999D01*
X59426523Y-41276000D01*
X59305542Y-41311523D01*
X59305538Y-41311524D01*
X59300439Y-41313022D01*
X59295969Y-41315894D01*
X59295966Y-41315896D01*
X59189889Y-41384067D01*
X59185411Y-41386945D01*
X59181924Y-41390968D01*
X59181924Y-41390969D01*
X59110957Y-41472871D01*
X59095870Y-41490282D01*
X59093662Y-41495115D01*
X59093661Y-41495118D01*
X59041276Y-41609823D01*
X59041274Y-41609829D01*
X59039069Y-41614658D01*
X59038313Y-41619915D01*
X59038312Y-41619919D01*
X59026944Y-41698990D01*
X59019610Y-41750000D01*
X59020367Y-41755265D01*
X59031787Y-41834699D01*
X59039069Y-41885342D01*
X59041274Y-41890172D01*
X59041276Y-41890176D01*
X59076530Y-41967370D01*
X59095870Y-42009718D01*
X59185411Y-42113055D01*
X59300439Y-42186978D01*
X59431633Y-42225500D01*
X59563043Y-42225500D01*
X59568367Y-42225500D01*
X59699561Y-42186978D01*
X59814589Y-42113055D01*
X59904130Y-42009718D01*
X59960931Y-41885342D01*
X59980140Y-41751737D01*
X60001174Y-41709717D01*
X60113201Y-41597691D01*
X60137339Y-41581563D01*
X60165810Y-41575900D01*
X60982514Y-41575900D01*
X60988998Y-41576182D01*
X61028843Y-41579669D01*
X61035130Y-41577984D01*
X61035132Y-41577984D01*
X61067468Y-41569319D01*
X61073799Y-41567915D01*
X61113184Y-41560971D01*
X61118824Y-41557713D01*
X61123767Y-41555915D01*
X61128801Y-41553830D01*
X61133563Y-41551609D01*
X61139857Y-41549923D01*
X61172630Y-41526973D01*
X61178071Y-41523506D01*
X61212716Y-41503506D01*
X61238432Y-41472857D01*
X61242795Y-41468095D01*
X61968095Y-40742795D01*
X61972857Y-40738432D01*
X62003506Y-40712716D01*
X62023506Y-40678071D01*
X62026973Y-40672630D01*
X62049923Y-40639857D01*
X62051609Y-40633563D01*
X62053830Y-40628801D01*
X62055923Y-40623749D01*
X62057716Y-40618820D01*
X62060971Y-40613184D01*
X62067915Y-40573799D01*
X62069319Y-40567468D01*
X62077984Y-40535132D01*
X62077984Y-40535130D01*
X62079669Y-40528843D01*
X62076182Y-40488998D01*
X62075900Y-40482514D01*
X62075900Y-39216410D01*
X62088439Y-39175076D01*
X62121828Y-39147673D01*
X62164815Y-39143440D01*
X62202909Y-39163801D01*
X62248826Y-39209718D01*
X62269860Y-39251739D01*
X62289069Y-39385342D01*
X62291274Y-39390172D01*
X62291276Y-39390176D01*
X62343661Y-39504881D01*
X62345870Y-39509718D01*
X62435411Y-39613055D01*
X62550439Y-39686978D01*
X62681633Y-39725500D01*
X62813043Y-39725500D01*
X62818367Y-39725500D01*
X62949561Y-39686978D01*
X63064589Y-39613055D01*
X63154130Y-39509718D01*
X63210931Y-39385342D01*
X63230390Y-39250000D01*
X63210931Y-39114658D01*
X63208722Y-39109820D01*
X63195472Y-39080806D01*
X63190846Y-39032359D01*
X63217158Y-38991418D01*
X63263149Y-38975500D01*
X63313043Y-38975500D01*
X63318367Y-38975500D01*
X63449561Y-38936978D01*
X63564589Y-38863055D01*
X63654130Y-38759718D01*
X63710931Y-38635342D01*
X63730390Y-38500000D01*
X63710931Y-38364658D01*
X63654130Y-38240282D01*
X63594071Y-38170970D01*
X63580591Y-38148250D01*
X63575900Y-38122250D01*
X63575900Y-33665810D01*
X63581563Y-33637338D01*
X63597691Y-33613201D01*
X63823201Y-33387691D01*
X63847338Y-33371563D01*
X63875810Y-33365900D01*
X66642364Y-33365900D01*
X66687201Y-33380928D01*
X66713924Y-33419941D01*
X66718475Y-33435938D01*
X66718477Y-33435942D01*
X66719418Y-33439250D01*
X66720950Y-33442327D01*
X66720951Y-33442329D01*
X66808792Y-33618740D01*
X66808796Y-33618747D01*
X66810327Y-33621821D01*
X66812398Y-33624563D01*
X66812399Y-33624565D01*
X66814610Y-33627493D01*
X66933236Y-33784579D01*
X67083959Y-33921981D01*
X67257363Y-34029348D01*
X67447544Y-34103024D01*
X67648024Y-34140500D01*
X67848530Y-34140500D01*
X67851976Y-34140500D01*
X68052456Y-34103024D01*
X68242637Y-34029348D01*
X68416041Y-33921981D01*
X68566764Y-33784579D01*
X68689673Y-33621821D01*
X68780582Y-33439250D01*
X68836397Y-33243083D01*
X68855215Y-33040000D01*
X68836397Y-32836917D01*
X68780582Y-32640750D01*
X68735127Y-32549464D01*
X68691207Y-32461259D01*
X68691205Y-32461256D01*
X68689673Y-32458179D01*
X68566764Y-32295421D01*
X68564226Y-32293107D01*
X68564224Y-32293105D01*
X68418583Y-32160336D01*
X68418580Y-32160334D01*
X68416041Y-32158019D01*
X68242637Y-32050652D01*
X68239439Y-32049413D01*
X68239433Y-32049410D01*
X68055664Y-31978218D01*
X68055656Y-31978215D01*
X68052456Y-31976976D01*
X68049079Y-31976344D01*
X68049073Y-31976343D01*
X67855363Y-31940133D01*
X67855361Y-31940132D01*
X67851976Y-31939500D01*
X67648024Y-31939500D01*
X67644639Y-31940132D01*
X67644636Y-31940133D01*
X67450926Y-31976343D01*
X67450917Y-31976345D01*
X67447544Y-31976976D01*
X67444346Y-31978214D01*
X67444335Y-31978218D01*
X67260566Y-32049410D01*
X67260555Y-32049415D01*
X67257363Y-32050652D01*
X67254446Y-32052457D01*
X67254440Y-32052461D01*
X67086885Y-32156207D01*
X67083959Y-32158019D01*
X67081423Y-32160329D01*
X67081416Y-32160336D01*
X66935775Y-32293105D01*
X66935767Y-32293113D01*
X66933236Y-32295421D01*
X66931170Y-32298155D01*
X66931166Y-32298161D01*
X66812399Y-32455434D01*
X66812394Y-32455440D01*
X66810327Y-32458179D01*
X66808798Y-32461247D01*
X66808792Y-32461259D01*
X66720951Y-32637670D01*
X66720948Y-32637675D01*
X66719418Y-32640750D01*
X66718478Y-32644051D01*
X66718475Y-32644061D01*
X66713924Y-32660059D01*
X66687201Y-32699072D01*
X66642364Y-32714100D01*
X63727486Y-32714100D01*
X63721001Y-32713817D01*
X63687641Y-32710898D01*
X63687639Y-32710898D01*
X63681157Y-32710331D01*
X63674868Y-32712015D01*
X63674866Y-32712016D01*
X63642525Y-32720681D01*
X63636192Y-32722085D01*
X63603226Y-32727898D01*
X63603222Y-32727899D01*
X63596816Y-32729029D01*
X63591182Y-32732280D01*
X63586311Y-32734054D01*
X63581125Y-32736202D01*
X63576426Y-32738393D01*
X63570143Y-32740077D01*
X63564813Y-32743808D01*
X63564811Y-32743810D01*
X63537386Y-32763013D01*
X63531915Y-32766498D01*
X63502921Y-32783238D01*
X63502915Y-32783242D01*
X63497284Y-32786494D01*
X63493102Y-32791476D01*
X63493099Y-32791480D01*
X63471577Y-32817128D01*
X63467194Y-32821912D01*
X63202909Y-33086199D01*
X63164815Y-33106560D01*
X63121828Y-33102327D01*
X63088439Y-33074924D01*
X63075900Y-33033590D01*
X63075900Y-31165810D01*
X63081563Y-31137338D01*
X63097691Y-31113201D01*
X63363201Y-30847691D01*
X63387338Y-30831563D01*
X63415810Y-30825900D01*
X66642364Y-30825900D01*
X66687201Y-30840928D01*
X66713924Y-30879941D01*
X66718475Y-30895938D01*
X66718477Y-30895942D01*
X66719418Y-30899250D01*
X66720950Y-30902327D01*
X66720951Y-30902329D01*
X66808792Y-31078740D01*
X66808796Y-31078747D01*
X66810327Y-31081821D01*
X66812398Y-31084563D01*
X66812399Y-31084565D01*
X66931166Y-31241838D01*
X66933236Y-31244579D01*
X66935772Y-31246891D01*
X66935775Y-31246894D01*
X67081416Y-31379663D01*
X67083959Y-31381981D01*
X67257363Y-31489348D01*
X67260564Y-31490588D01*
X67260566Y-31490589D01*
X67415628Y-31550660D01*
X67447544Y-31563024D01*
X67648024Y-31600500D01*
X67848530Y-31600500D01*
X67851976Y-31600500D01*
X68052456Y-31563024D01*
X68242637Y-31489348D01*
X68416041Y-31381981D01*
X68566764Y-31244579D01*
X68689673Y-31081821D01*
X68780582Y-30899250D01*
X68836397Y-30703083D01*
X68855215Y-30500000D01*
X68836397Y-30296917D01*
X68780582Y-30100750D01*
X68689673Y-29918179D01*
X68566764Y-29755421D01*
X68564226Y-29753107D01*
X68564224Y-29753105D01*
X68511764Y-29705282D01*
X68489463Y-29667334D01*
X68492511Y-29623424D01*
X68519841Y-29588920D01*
X68561887Y-29575900D01*
X71084190Y-29575900D01*
X71112662Y-29581563D01*
X71136799Y-29597691D01*
X71382086Y-29842978D01*
X71400863Y-29874626D01*
X71402177Y-29911401D01*
X71385706Y-29944307D01*
X71349353Y-29986262D01*
X71345870Y-29990282D01*
X71343662Y-29995115D01*
X71343661Y-29995118D01*
X71291276Y-30109823D01*
X71291274Y-30109829D01*
X71289069Y-30114658D01*
X71288313Y-30119915D01*
X71288312Y-30119919D01*
X71276788Y-30200077D01*
X71269610Y-30250000D01*
X71270367Y-30255265D01*
X71279103Y-30316030D01*
X71289069Y-30385342D01*
X71291274Y-30390172D01*
X71291276Y-30390176D01*
X71339870Y-30496579D01*
X71345870Y-30509718D01*
X71435411Y-30613055D01*
X71550439Y-30686978D01*
X71681633Y-30725500D01*
X71813043Y-30725500D01*
X71818367Y-30725500D01*
X71949561Y-30686978D01*
X72064589Y-30613055D01*
X72154130Y-30509718D01*
X72210931Y-30385342D01*
X72230390Y-30250000D01*
X72210931Y-30114658D01*
X72206091Y-30104061D01*
X72194660Y-30079029D01*
X72154130Y-29990282D01*
X72094071Y-29920970D01*
X72080591Y-29898250D01*
X72075900Y-29872250D01*
X72075900Y-29767486D01*
X72076183Y-29761002D01*
X72076295Y-29759718D01*
X72079669Y-29721157D01*
X72077984Y-29714870D01*
X72077984Y-29714866D01*
X72069319Y-29682531D01*
X72067913Y-29676191D01*
X72060971Y-29636816D01*
X72057716Y-29631179D01*
X72055929Y-29626267D01*
X72053820Y-29621178D01*
X72051608Y-29616435D01*
X72049923Y-29610144D01*
X72035062Y-29588920D01*
X72026988Y-29577389D01*
X72023499Y-29571913D01*
X72006760Y-29542919D01*
X72006757Y-29542916D01*
X72003506Y-29537284D01*
X71972865Y-29511573D01*
X71968080Y-29507188D01*
X71492805Y-29031913D01*
X71488420Y-29027127D01*
X71466900Y-29001480D01*
X71466899Y-29001479D01*
X71462716Y-28996494D01*
X71457081Y-28993240D01*
X71457078Y-28993238D01*
X71428087Y-28976501D01*
X71422612Y-28973013D01*
X71407907Y-28962716D01*
X71389857Y-28950077D01*
X71383573Y-28948393D01*
X71378852Y-28946191D01*
X71373733Y-28944071D01*
X71368819Y-28942282D01*
X71363184Y-28939029D01*
X71356777Y-28937899D01*
X71356771Y-28937897D01*
X71323796Y-28932082D01*
X71317464Y-28930678D01*
X71285133Y-28922016D01*
X71285131Y-28922015D01*
X71278843Y-28920331D01*
X71272360Y-28920898D01*
X71272358Y-28920898D01*
X71238999Y-28923817D01*
X71232514Y-28924100D01*
X68518009Y-28924100D01*
X68475963Y-28911080D01*
X68448633Y-28876576D01*
X68445585Y-28832666D01*
X68467886Y-28794718D01*
X68529007Y-28738999D01*
X68566764Y-28704579D01*
X68689673Y-28541821D01*
X68780582Y-28359250D01*
X68836397Y-28163083D01*
X68855215Y-27960000D01*
X68836397Y-27756917D01*
X68780582Y-27560750D01*
X68715277Y-27429599D01*
X68691207Y-27381259D01*
X68691205Y-27381256D01*
X68689673Y-27378179D01*
X68566764Y-27215421D01*
X68564226Y-27213107D01*
X68564224Y-27213105D01*
X68418583Y-27080336D01*
X68418580Y-27080334D01*
X68416041Y-27078019D01*
X68242637Y-26970652D01*
X68239439Y-26969413D01*
X68239433Y-26969410D01*
X68055664Y-26898218D01*
X68055656Y-26898215D01*
X68052456Y-26896976D01*
X68049079Y-26896344D01*
X68049073Y-26896343D01*
X67855363Y-26860133D01*
X67855361Y-26860132D01*
X67851976Y-26859500D01*
X67648024Y-26859500D01*
X67644639Y-26860132D01*
X67644636Y-26860133D01*
X67450926Y-26896343D01*
X67450917Y-26896345D01*
X67447544Y-26896976D01*
X67444346Y-26898214D01*
X67444335Y-26898218D01*
X67260566Y-26969410D01*
X67260555Y-26969415D01*
X67257363Y-26970652D01*
X67254446Y-26972457D01*
X67254440Y-26972461D01*
X67101230Y-27067325D01*
X67083959Y-27078019D01*
X67081423Y-27080329D01*
X67081416Y-27080336D01*
X66935775Y-27213105D01*
X66935767Y-27213113D01*
X66933236Y-27215421D01*
X66931170Y-27218155D01*
X66931166Y-27218161D01*
X66812399Y-27375434D01*
X66812394Y-27375440D01*
X66810327Y-27378179D01*
X66808798Y-27381247D01*
X66808792Y-27381259D01*
X66765471Y-27468263D01*
X66738038Y-27498356D01*
X66698871Y-27509500D01*
X64529477Y-27509500D01*
X64521147Y-27509032D01*
X64488506Y-27505354D01*
X64488503Y-27505354D01*
X64482965Y-27504730D01*
X64477490Y-27505765D01*
X64477484Y-27505766D01*
X64425888Y-27515528D01*
X64423148Y-27515994D01*
X64371226Y-27523821D01*
X64365713Y-27524652D01*
X64360688Y-27527071D01*
X64358025Y-27527893D01*
X64357824Y-27527942D01*
X64357664Y-27528009D01*
X64354998Y-27528941D01*
X64349528Y-27529977D01*
X64344602Y-27532580D01*
X64344603Y-27532580D01*
X64298165Y-27557123D01*
X64295683Y-27558376D01*
X64283887Y-27564057D01*
X64243358Y-27583575D01*
X64239274Y-27587363D01*
X64236955Y-27588945D01*
X64236793Y-27589042D01*
X64236649Y-27589162D01*
X64234385Y-27590832D01*
X64229462Y-27593435D01*
X64225523Y-27597373D01*
X64225520Y-27597376D01*
X64188403Y-27634492D01*
X64186402Y-27636420D01*
X64147889Y-27672155D01*
X64147884Y-27672160D01*
X64143806Y-27675945D01*
X64141022Y-27680765D01*
X64139270Y-27682963D01*
X64133714Y-27689181D01*
X63295188Y-28527709D01*
X63271051Y-28543837D01*
X63242579Y-28549500D01*
X61029477Y-28549500D01*
X61021147Y-28549032D01*
X60988506Y-28545354D01*
X60988503Y-28545354D01*
X60982965Y-28544730D01*
X60977490Y-28545765D01*
X60977484Y-28545766D01*
X60925883Y-28555529D01*
X60923143Y-28555995D01*
X60871222Y-28563821D01*
X60871218Y-28563822D01*
X60865713Y-28564652D01*
X60860692Y-28567069D01*
X60858025Y-28567892D01*
X60857827Y-28567941D01*
X60857675Y-28568004D01*
X60854999Y-28568940D01*
X60849529Y-28569976D01*
X60844603Y-28572579D01*
X60844604Y-28572579D01*
X60798175Y-28597116D01*
X60795695Y-28598368D01*
X60748376Y-28621157D01*
X60748369Y-28621161D01*
X60743358Y-28623575D01*
X60739278Y-28627359D01*
X60736945Y-28628950D01*
X60736796Y-28629039D01*
X60736658Y-28629154D01*
X60734385Y-28630831D01*
X60729463Y-28633434D01*
X60725523Y-28637373D01*
X60725520Y-28637376D01*
X60688403Y-28674492D01*
X60686402Y-28676420D01*
X60647889Y-28712155D01*
X60647884Y-28712160D01*
X60643806Y-28715945D01*
X60641022Y-28720765D01*
X60639270Y-28722963D01*
X60633714Y-28729181D01*
X60202289Y-29160606D01*
X60196070Y-29166164D01*
X60170385Y-29186647D01*
X60170381Y-29186650D01*
X60166030Y-29190121D01*
X60162894Y-29194719D01*
X60162886Y-29194729D01*
X60133292Y-29238135D01*
X60131684Y-29240402D01*
X60100515Y-29282635D01*
X60100513Y-29282637D01*
X60097207Y-29287118D01*
X60095367Y-29292374D01*
X60094060Y-29294848D01*
X60093958Y-29295017D01*
X60093891Y-29295179D01*
X60092664Y-29297725D01*
X60089528Y-29302327D01*
X60087886Y-29307648D01*
X60087883Y-29307656D01*
X60072396Y-29357863D01*
X60071527Y-29360505D01*
X60054195Y-29410039D01*
X60052354Y-29415301D01*
X60052145Y-29420867D01*
X60051621Y-29423637D01*
X60051578Y-29423808D01*
X60051561Y-29423996D01*
X60051143Y-29426768D01*
X60049500Y-29432098D01*
X60049500Y-29437674D01*
X60049500Y-29490182D01*
X60049448Y-29492964D01*
X60047579Y-29542919D01*
X60047276Y-29551010D01*
X60048718Y-29556392D01*
X60049032Y-29559176D01*
X60049500Y-29567506D01*
X60049500Y-30282579D01*
X60043837Y-30311051D01*
X60027709Y-30335188D01*
X59585188Y-30777709D01*
X59561051Y-30793837D01*
X59532579Y-30799500D01*
X54467421Y-30799500D01*
X54438949Y-30793837D01*
X54414812Y-30777709D01*
X53589394Y-29952291D01*
X53583835Y-29946070D01*
X53563355Y-29920389D01*
X53559879Y-29916030D01*
X53511865Y-29883294D01*
X53509643Y-29881718D01*
X53462882Y-29847207D01*
X53457626Y-29845367D01*
X53455150Y-29844059D01*
X53454982Y-29843958D01*
X53454806Y-29843885D01*
X53452277Y-29842667D01*
X53447673Y-29839528D01*
X53442350Y-29837886D01*
X53442348Y-29837885D01*
X53392135Y-29822397D01*
X53389493Y-29821527D01*
X53339960Y-29804195D01*
X53334699Y-29802354D01*
X53329132Y-29802145D01*
X53326363Y-29801621D01*
X53326188Y-29801577D01*
X53326000Y-29801560D01*
X53323228Y-29801142D01*
X53317902Y-29799500D01*
X53312327Y-29799500D01*
X53259818Y-29799500D01*
X53257036Y-29799448D01*
X53204559Y-29797484D01*
X53204556Y-29797484D01*
X53198990Y-29797276D01*
X53193607Y-29798718D01*
X53190824Y-29799032D01*
X53182494Y-29799500D01*
X52414205Y-29799500D01*
X52393244Y-29796486D01*
X52323476Y-29776000D01*
X52323475Y-29775999D01*
X52318367Y-29774500D01*
X52181633Y-29774500D01*
X52176525Y-29775999D01*
X52176523Y-29776000D01*
X52106756Y-29796486D01*
X52085795Y-29799500D01*
X49414205Y-29799500D01*
X49393244Y-29796486D01*
X49323476Y-29776000D01*
X49323475Y-29775999D01*
X49318367Y-29774500D01*
X49181633Y-29774500D01*
X49176525Y-29775999D01*
X49176523Y-29776000D01*
X49055542Y-29811523D01*
X49055538Y-29811524D01*
X49050439Y-29813022D01*
X49045969Y-29815894D01*
X49045966Y-29815896D01*
X48939889Y-29884067D01*
X48935411Y-29886945D01*
X48931924Y-29890968D01*
X48931924Y-29890969D01*
X48858679Y-29975500D01*
X48845870Y-29990282D01*
X48843662Y-29995115D01*
X48843661Y-29995118D01*
X48791276Y-30109823D01*
X48791274Y-30109829D01*
X48789069Y-30114658D01*
X48788313Y-30119915D01*
X48788312Y-30119919D01*
X48776788Y-30200077D01*
X48769610Y-30250000D01*
X48770367Y-30255265D01*
X48779103Y-30316030D01*
X48789069Y-30385342D01*
X48791274Y-30390172D01*
X48791276Y-30390176D01*
X48839870Y-30496579D01*
X48845870Y-30509718D01*
X48935411Y-30613055D01*
X49050439Y-30686978D01*
X49181633Y-30725500D01*
X49313043Y-30725500D01*
X49318367Y-30725500D01*
X49393244Y-30703513D01*
X49414205Y-30700500D01*
X52085795Y-30700500D01*
X52106755Y-30703513D01*
X52181633Y-30725500D01*
X52313043Y-30725500D01*
X52318367Y-30725500D01*
X52393244Y-30703513D01*
X52414205Y-30700500D01*
X53032578Y-30700500D01*
X53061050Y-30706163D01*
X53085187Y-30722291D01*
X53910604Y-31547707D01*
X53916163Y-31553928D01*
X53940121Y-31583970D01*
X53988144Y-31616712D01*
X53990345Y-31618272D01*
X54037118Y-31652793D01*
X54042377Y-31654633D01*
X54044839Y-31655934D01*
X54045017Y-31656041D01*
X54045195Y-31656115D01*
X54047720Y-31657331D01*
X54052327Y-31660472D01*
X54097574Y-31674428D01*
X54107845Y-31677596D01*
X54110453Y-31678453D01*
X54165301Y-31697646D01*
X54170872Y-31697854D01*
X54173614Y-31698373D01*
X54173808Y-31698421D01*
X54174011Y-31698440D01*
X54176767Y-31698855D01*
X54182098Y-31700500D01*
X54240165Y-31700500D01*
X54242948Y-31700552D01*
X54301010Y-31702725D01*
X54306395Y-31701282D01*
X54309184Y-31700968D01*
X54317514Y-31700500D01*
X59532578Y-31700500D01*
X59561050Y-31706163D01*
X59585187Y-31722291D01*
X60027709Y-32164812D01*
X60043837Y-32188949D01*
X60049500Y-32217421D01*
X60049500Y-35225100D01*
X60039532Y-35262300D01*
X60012300Y-35289532D01*
X59975100Y-35299500D01*
X59664205Y-35299500D01*
X59643244Y-35296486D01*
X59573476Y-35276000D01*
X59573475Y-35275999D01*
X59568367Y-35274500D01*
X59431633Y-35274500D01*
X59426525Y-35275999D01*
X59426523Y-35276000D01*
X59356756Y-35296486D01*
X59335795Y-35299500D01*
X58664205Y-35299500D01*
X58643244Y-35296486D01*
X58573476Y-35276000D01*
X58573475Y-35275999D01*
X58568367Y-35274500D01*
X58431633Y-35274500D01*
X58426525Y-35275999D01*
X58426523Y-35276000D01*
X58356756Y-35296486D01*
X58335795Y-35299500D01*
X57664205Y-35299500D01*
X57643244Y-35296486D01*
X57573476Y-35276000D01*
X57573475Y-35275999D01*
X57568367Y-35274500D01*
X57431633Y-35274500D01*
X57426525Y-35275999D01*
X57426523Y-35276000D01*
X57356756Y-35296486D01*
X57335795Y-35299500D01*
X57317902Y-35299500D01*
X56664205Y-35299500D01*
X56643244Y-35296486D01*
X56573476Y-35276000D01*
X56573475Y-35275999D01*
X56568367Y-35274500D01*
X56431633Y-35274500D01*
X56426525Y-35275999D01*
X56426523Y-35276000D01*
X56356756Y-35296486D01*
X56335795Y-35299500D01*
X55779477Y-35299500D01*
X55771147Y-35299032D01*
X55738506Y-35295354D01*
X55738503Y-35295354D01*
X55732965Y-35294730D01*
X55727490Y-35295765D01*
X55727484Y-35295766D01*
X55675883Y-35305529D01*
X55673143Y-35305995D01*
X55621222Y-35313821D01*
X55621218Y-35313822D01*
X55615713Y-35314652D01*
X55610692Y-35317069D01*
X55608025Y-35317892D01*
X55607827Y-35317941D01*
X55607675Y-35318004D01*
X55604999Y-35318940D01*
X55599529Y-35319976D01*
X55594603Y-35322579D01*
X55594604Y-35322579D01*
X55548175Y-35347116D01*
X55545695Y-35348368D01*
X55498376Y-35371157D01*
X55498369Y-35371161D01*
X55493358Y-35373575D01*
X55489278Y-35377359D01*
X55486945Y-35378950D01*
X55486796Y-35379039D01*
X55486658Y-35379154D01*
X55484385Y-35380831D01*
X55479463Y-35383434D01*
X55475523Y-35387373D01*
X55475520Y-35387376D01*
X55438403Y-35424492D01*
X55436402Y-35426420D01*
X55397889Y-35462155D01*
X55397884Y-35462160D01*
X55393806Y-35465945D01*
X55391022Y-35470765D01*
X55389270Y-35472963D01*
X55383714Y-35479181D01*
X54952289Y-35910606D01*
X54946070Y-35916164D01*
X54920385Y-35936647D01*
X54920381Y-35936650D01*
X54916030Y-35940121D01*
X54912894Y-35944719D01*
X54912886Y-35944729D01*
X54883292Y-35988135D01*
X54881684Y-35990402D01*
X54850515Y-36032635D01*
X54850513Y-36032637D01*
X54847207Y-36037118D01*
X54845367Y-36042374D01*
X54844060Y-36044848D01*
X54843958Y-36045017D01*
X54843891Y-36045179D01*
X54842664Y-36047725D01*
X54839528Y-36052327D01*
X54837886Y-36057648D01*
X54837883Y-36057656D01*
X54822396Y-36107863D01*
X54821527Y-36110505D01*
X54819485Y-36116341D01*
X54802354Y-36165301D01*
X54802145Y-36170867D01*
X54801621Y-36173637D01*
X54801578Y-36173808D01*
X54801561Y-36173996D01*
X54801143Y-36176768D01*
X54799500Y-36182098D01*
X54799500Y-36187674D01*
X54799500Y-36240182D01*
X54799448Y-36242963D01*
X54797276Y-36301010D01*
X54798718Y-36306392D01*
X54799032Y-36309176D01*
X54799500Y-36317506D01*
X54799500Y-41532579D01*
X54793837Y-41561051D01*
X54777709Y-41585188D01*
X54585188Y-41777709D01*
X54561051Y-41793837D01*
X54532579Y-41799500D01*
X52414205Y-41799500D01*
X52393244Y-41796486D01*
X52384222Y-41793837D01*
X52318367Y-41774500D01*
X52181633Y-41774500D01*
X52176525Y-41775999D01*
X52176523Y-41776000D01*
X52106756Y-41796486D01*
X52085795Y-41799500D01*
X49914205Y-41799500D01*
X49893244Y-41796486D01*
X49884222Y-41793837D01*
X49818367Y-41774500D01*
X49681633Y-41774500D01*
X49676525Y-41775999D01*
X49676523Y-41776000D01*
X49606756Y-41796486D01*
X49585795Y-41799500D01*
X47914205Y-41799500D01*
X47893244Y-41796486D01*
X47884222Y-41793837D01*
X47818367Y-41774500D01*
X47681633Y-41774500D01*
X47676525Y-41775999D01*
X47676523Y-41776000D01*
X47606756Y-41796486D01*
X47585795Y-41799500D01*
X47567902Y-41799500D01*
X45914205Y-41799500D01*
X45893244Y-41796486D01*
X45884222Y-41793837D01*
X45818367Y-41774500D01*
X45681633Y-41774500D01*
X45676525Y-41775999D01*
X45676523Y-41776000D01*
X45606756Y-41796486D01*
X45585795Y-41799500D01*
X45217422Y-41799500D01*
X45188950Y-41793837D01*
X45164813Y-41777709D01*
X44089394Y-40702291D01*
X44083835Y-40696070D01*
X44068165Y-40676420D01*
X44059879Y-40666030D01*
X44011865Y-40633294D01*
X44009643Y-40631718D01*
X43962882Y-40597207D01*
X43957626Y-40595367D01*
X43955150Y-40594059D01*
X43954982Y-40593958D01*
X43954806Y-40593885D01*
X43952277Y-40592667D01*
X43947673Y-40589528D01*
X43942350Y-40587886D01*
X43942348Y-40587885D01*
X43892135Y-40572397D01*
X43889493Y-40571527D01*
X43886864Y-40570607D01*
X43834699Y-40552354D01*
X43829132Y-40552145D01*
X43826363Y-40551621D01*
X43826188Y-40551577D01*
X43826000Y-40551560D01*
X43823228Y-40551142D01*
X43817902Y-40549500D01*
X43812327Y-40549500D01*
X43759818Y-40549500D01*
X43757036Y-40549448D01*
X43704559Y-40547484D01*
X43704556Y-40547484D01*
X43698990Y-40547276D01*
X43693607Y-40548718D01*
X43690824Y-40549032D01*
X43682494Y-40549500D01*
X38029477Y-40549500D01*
X38021147Y-40549032D01*
X37988506Y-40545354D01*
X37988503Y-40545354D01*
X37982965Y-40544730D01*
X37977490Y-40545765D01*
X37977484Y-40545766D01*
X37925883Y-40555529D01*
X37923143Y-40555995D01*
X37871222Y-40563821D01*
X37871218Y-40563822D01*
X37865713Y-40564652D01*
X37860692Y-40567069D01*
X37858025Y-40567892D01*
X37857827Y-40567941D01*
X37857675Y-40568004D01*
X37854999Y-40568940D01*
X37849529Y-40569976D01*
X37839607Y-40575219D01*
X37798175Y-40597116D01*
X37795695Y-40598368D01*
X37748376Y-40621157D01*
X37748369Y-40621161D01*
X37743358Y-40623575D01*
X37739278Y-40627359D01*
X37736945Y-40628950D01*
X37736796Y-40629039D01*
X37736658Y-40629154D01*
X37734385Y-40630831D01*
X37729463Y-40633434D01*
X37725523Y-40637373D01*
X37725520Y-40637376D01*
X37688403Y-40674492D01*
X37686402Y-40676420D01*
X37647889Y-40712155D01*
X37647884Y-40712160D01*
X37643806Y-40715945D01*
X37641022Y-40720765D01*
X37639270Y-40722963D01*
X37633714Y-40729181D01*
X36702289Y-41660606D01*
X36696070Y-41666164D01*
X36670385Y-41686647D01*
X36670381Y-41686650D01*
X36666030Y-41690121D01*
X36662894Y-41694719D01*
X36662886Y-41694729D01*
X36633292Y-41738135D01*
X36631684Y-41740402D01*
X36600515Y-41782635D01*
X36600513Y-41782637D01*
X36597207Y-41787118D01*
X36595367Y-41792374D01*
X36594060Y-41794848D01*
X36593958Y-41795017D01*
X36593891Y-41795179D01*
X36592664Y-41797725D01*
X36589528Y-41802327D01*
X36587886Y-41807648D01*
X36587883Y-41807656D01*
X36572396Y-41857863D01*
X36571527Y-41860505D01*
X36552354Y-41915301D01*
X36552145Y-41920867D01*
X36551621Y-41923637D01*
X36551578Y-41923808D01*
X36551561Y-41923996D01*
X36551143Y-41926768D01*
X36549500Y-41932098D01*
X36549500Y-41937674D01*
X36549500Y-41990182D01*
X36549448Y-41992963D01*
X36547276Y-42051010D01*
X36548718Y-42056392D01*
X36549032Y-42059176D01*
X36549500Y-42067506D01*
X36549500Y-42825632D01*
X36542776Y-42856540D01*
X36541277Y-42859820D01*
X36541274Y-42859828D01*
X36539069Y-42864658D01*
X36538313Y-42869915D01*
X36538312Y-42869919D01*
X36525669Y-42957855D01*
X36519610Y-43000000D01*
X36325500Y-43000000D01*
X36325500Y-41019200D01*
X36331163Y-40990728D01*
X36347291Y-40966591D01*
X37216591Y-40097291D01*
X37240728Y-40081163D01*
X37269200Y-40075500D01*
X43299135Y-40075500D01*
X43314394Y-40077082D01*
X43328515Y-40080043D01*
X43360378Y-40076070D01*
X43367905Y-40075603D01*
X43369148Y-40075500D01*
X43372240Y-40075500D01*
X43392218Y-40072165D01*
X43395247Y-40071724D01*
X43444593Y-40065573D01*
X43449772Y-40063040D01*
X43449832Y-40063020D01*
X43452797Y-40062070D01*
X43452896Y-40062040D01*
X43458581Y-40061092D01*
X43502316Y-40037422D01*
X43504975Y-40036052D01*
X43549684Y-40014198D01*
X43553759Y-40010121D01*
X43553820Y-40010075D01*
X43556307Y-40008221D01*
X43556396Y-40008156D01*
X43561458Y-40005418D01*
X43595127Y-39968842D01*
X43597207Y-39966673D01*
X44691682Y-38872197D01*
X44703598Y-38862523D01*
X44706755Y-38860460D01*
X44715669Y-38854637D01*
X44735397Y-38829287D01*
X44740381Y-38823647D01*
X44741196Y-38822683D01*
X44743375Y-38820506D01*
X44755169Y-38803985D01*
X44756950Y-38801596D01*
X44787517Y-38762326D01*
X44789385Y-38756881D01*
X44789430Y-38756791D01*
X44790857Y-38754018D01*
X44790889Y-38753958D01*
X44794240Y-38749266D01*
X44808439Y-38701571D01*
X44809346Y-38698739D01*
X44825500Y-38651688D01*
X44825500Y-38645931D01*
X44825510Y-38645851D01*
X44825956Y-38642785D01*
X44825975Y-38642668D01*
X44827617Y-38637154D01*
X44825564Y-38587516D01*
X44825500Y-38584441D01*
X44825500Y-28307611D01*
X44833985Y-28273106D01*
X44857506Y-28246471D01*
X44890696Y-28233782D01*
X44908033Y-28231620D01*
X44915560Y-28231153D01*
X44916803Y-28231050D01*
X44919895Y-28231050D01*
X44939873Y-28227715D01*
X44942902Y-28227274D01*
X44992248Y-28221123D01*
X44997427Y-28218590D01*
X44997487Y-28218570D01*
X45000452Y-28217620D01*
X45000551Y-28217590D01*
X45006236Y-28216642D01*
X45049971Y-28192972D01*
X45052630Y-28191602D01*
X45097339Y-28169748D01*
X45101414Y-28165671D01*
X45101471Y-28165628D01*
X45103972Y-28163763D01*
X45104046Y-28163709D01*
X45109113Y-28160968D01*
X45142795Y-28124377D01*
X45144877Y-28122207D01*
X45231290Y-28035794D01*
X45243200Y-28026123D01*
X45255274Y-28018237D01*
X45275002Y-27992887D01*
X45279986Y-27987247D01*
X45280801Y-27986283D01*
X45282980Y-27984106D01*
X45294774Y-27967585D01*
X45296555Y-27965196D01*
X45327122Y-27925926D01*
X45328990Y-27920481D01*
X45329035Y-27920391D01*
X45330462Y-27917618D01*
X45330494Y-27917558D01*
X45333845Y-27912866D01*
X45348044Y-27865171D01*
X45348951Y-27862339D01*
X45365105Y-27815288D01*
X45365105Y-27809531D01*
X45365115Y-27809451D01*
X45365561Y-27806385D01*
X45365580Y-27806268D01*
X45367222Y-27800754D01*
X45365169Y-27751116D01*
X45365105Y-27748041D01*
X45365105Y-27498365D01*
X45366687Y-27483105D01*
X45369648Y-27468985D01*
X45365675Y-27437121D01*
X45365209Y-27429599D01*
X45365105Y-27428346D01*
X45365105Y-27425260D01*
X45361766Y-27405253D01*
X45361328Y-27402246D01*
X45355941Y-27359028D01*
X45355178Y-27352907D01*
X45352650Y-27347736D01*
X45352616Y-27347637D01*
X45351677Y-27344707D01*
X45351644Y-27344598D01*
X45350697Y-27338919D01*
X45327042Y-27295211D01*
X45325639Y-27292485D01*
X45306509Y-27253352D01*
X45303803Y-27247816D01*
X45299727Y-27243740D01*
X45299688Y-27243690D01*
X45297841Y-27241212D01*
X45297758Y-27241096D01*
X45295023Y-27236042D01*
X45258462Y-27202385D01*
X45256243Y-27200256D01*
X45169853Y-27113866D01*
X45160181Y-27101957D01*
X45155672Y-27095055D01*
X45143953Y-27046688D01*
X45165346Y-27001753D01*
X45231305Y-26935794D01*
X45243215Y-26926123D01*
X45255289Y-26918237D01*
X45275017Y-26892887D01*
X45280001Y-26887247D01*
X45280816Y-26886283D01*
X45282995Y-26884106D01*
X45294789Y-26867585D01*
X45296570Y-26865196D01*
X45327137Y-26825926D01*
X45329005Y-26820481D01*
X45329050Y-26820391D01*
X45330477Y-26817618D01*
X45330509Y-26817558D01*
X45333860Y-26812866D01*
X45348059Y-26765171D01*
X45348966Y-26762339D01*
X45365120Y-26715288D01*
X45365120Y-26709531D01*
X45365130Y-26709451D01*
X45365576Y-26706385D01*
X45365595Y-26706268D01*
X45367237Y-26700754D01*
X45365184Y-26651116D01*
X45365120Y-26648041D01*
X45365120Y-26398365D01*
X45366702Y-26383105D01*
X45369663Y-26368985D01*
X45365690Y-26337121D01*
X45365224Y-26329599D01*
X45365120Y-26328346D01*
X45365120Y-26325260D01*
X45361781Y-26305253D01*
X45361343Y-26302246D01*
X45359446Y-26287029D01*
X45358993Y-26283393D01*
X50203553Y-26283393D01*
X50210482Y-26288453D01*
X50278753Y-26308499D01*
X50289186Y-26310000D01*
X50410814Y-26310000D01*
X50421246Y-26308499D01*
X50489516Y-26288453D01*
X50496445Y-26283393D01*
X52903553Y-26283393D01*
X52910482Y-26288453D01*
X52978753Y-26308499D01*
X52989186Y-26310000D01*
X53110814Y-26310000D01*
X53121246Y-26308499D01*
X53189516Y-26288453D01*
X53191467Y-26287028D01*
X66690001Y-26287028D01*
X66690713Y-26294264D01*
X66700754Y-26344748D01*
X66706256Y-26358032D01*
X66744527Y-26415307D01*
X66754692Y-26425472D01*
X66811971Y-26463746D01*
X66825245Y-26469244D01*
X66875735Y-26479287D01*
X66882971Y-26480000D01*
X67540203Y-26480000D01*
X67547929Y-26477929D01*
X67550000Y-26470203D01*
X67550000Y-26470202D01*
X67950000Y-26470202D01*
X67952070Y-26477928D01*
X67959797Y-26479999D01*
X68617028Y-26479999D01*
X68624264Y-26479286D01*
X68674748Y-26469245D01*
X68688032Y-26463743D01*
X68745307Y-26425472D01*
X68755472Y-26415307D01*
X68793746Y-26358028D01*
X68799244Y-26344754D01*
X68809287Y-26294264D01*
X68810000Y-26287029D01*
X68810000Y-25629797D01*
X68807929Y-25622070D01*
X68800203Y-25620000D01*
X67959797Y-25620000D01*
X67952070Y-25622070D01*
X67950000Y-25629797D01*
X67950000Y-26470202D01*
X67550000Y-26470202D01*
X67550000Y-25629797D01*
X67547929Y-25622070D01*
X67540203Y-25620000D01*
X66699798Y-25620000D01*
X66692071Y-25622070D01*
X66690001Y-25629797D01*
X66690001Y-26287028D01*
X53191467Y-26287028D01*
X53196445Y-26283393D01*
X53192788Y-26275631D01*
X53056925Y-26139768D01*
X53050000Y-26135770D01*
X53043074Y-26139768D01*
X52907209Y-26275632D01*
X52903553Y-26283393D01*
X50496445Y-26283393D01*
X50492788Y-26275631D01*
X50356925Y-26139768D01*
X50350000Y-26135770D01*
X50343074Y-26139768D01*
X50207209Y-26275632D01*
X50203553Y-26283393D01*
X45358993Y-26283393D01*
X45355193Y-26252907D01*
X45352665Y-26247736D01*
X45352631Y-26247637D01*
X45351692Y-26244707D01*
X45351659Y-26244598D01*
X45350712Y-26238919D01*
X45327057Y-26195211D01*
X45325654Y-26192485D01*
X45306524Y-26153352D01*
X45303818Y-26147816D01*
X45299742Y-26143740D01*
X45299703Y-26143690D01*
X45297856Y-26141212D01*
X45297773Y-26141096D01*
X45295038Y-26136042D01*
X45258477Y-26102385D01*
X45256258Y-26100256D01*
X45169868Y-26013866D01*
X45160188Y-26001944D01*
X45155677Y-25995038D01*
X45143963Y-25946673D01*
X45165356Y-25901743D01*
X45211834Y-25855265D01*
X49886027Y-25855265D01*
X49903337Y-25975663D01*
X49906306Y-25985771D01*
X49909159Y-25992020D01*
X49915013Y-25998308D01*
X49922691Y-25994465D01*
X50060231Y-25856925D01*
X50064229Y-25850000D01*
X50635770Y-25850000D01*
X50639768Y-25856925D01*
X50777307Y-25994464D01*
X50784986Y-25998308D01*
X50790839Y-25992022D01*
X50793693Y-25985772D01*
X50796662Y-25975661D01*
X50813973Y-25855265D01*
X52586027Y-25855265D01*
X52603337Y-25975663D01*
X52606306Y-25985771D01*
X52609159Y-25992020D01*
X52615013Y-25998308D01*
X52622691Y-25994465D01*
X52760231Y-25856925D01*
X52764229Y-25850000D01*
X53335770Y-25850000D01*
X53339768Y-25856925D01*
X53477307Y-25994464D01*
X53484986Y-25998308D01*
X53490839Y-25992022D01*
X53493693Y-25985772D01*
X53496662Y-25975661D01*
X53513973Y-25855265D01*
X53513973Y-25844735D01*
X53496661Y-25724331D01*
X53493697Y-25714235D01*
X53490838Y-25707976D01*
X53484986Y-25701690D01*
X53477308Y-25705533D01*
X53339768Y-25843074D01*
X53335770Y-25850000D01*
X52764229Y-25850000D01*
X52760231Y-25843074D01*
X52622693Y-25705536D01*
X52615012Y-25701691D01*
X52609160Y-25707977D01*
X52606305Y-25714228D01*
X52603337Y-25724338D01*
X52586027Y-25844735D01*
X52586027Y-25855265D01*
X50813973Y-25855265D01*
X50813973Y-25844735D01*
X50796661Y-25724331D01*
X50793697Y-25714235D01*
X50790838Y-25707976D01*
X50784986Y-25701690D01*
X50777308Y-25705533D01*
X50639768Y-25843074D01*
X50635770Y-25850000D01*
X50064229Y-25850000D01*
X50060231Y-25843074D01*
X49922693Y-25705536D01*
X49915012Y-25701691D01*
X49909160Y-25707977D01*
X49906305Y-25714228D01*
X49903337Y-25724338D01*
X49886027Y-25844735D01*
X49886027Y-25855265D01*
X45211834Y-25855265D01*
X45231305Y-25835794D01*
X45243215Y-25826123D01*
X45255289Y-25818237D01*
X45275017Y-25792887D01*
X45280001Y-25787247D01*
X45280816Y-25786283D01*
X45282995Y-25784106D01*
X45294789Y-25767585D01*
X45296570Y-25765196D01*
X45327137Y-25725926D01*
X45329005Y-25720481D01*
X45329050Y-25720391D01*
X45330477Y-25717618D01*
X45330509Y-25717558D01*
X45333860Y-25712866D01*
X45348059Y-25665171D01*
X45348966Y-25662339D01*
X45365120Y-25615288D01*
X45365120Y-25609531D01*
X45365130Y-25609451D01*
X45365576Y-25606385D01*
X45365595Y-25606268D01*
X45367237Y-25600754D01*
X45365184Y-25551116D01*
X45365120Y-25548041D01*
X45365120Y-25416606D01*
X50203553Y-25416606D01*
X50207209Y-25424366D01*
X50343074Y-25560231D01*
X50349999Y-25564229D01*
X50356925Y-25560231D01*
X50492789Y-25424366D01*
X50496445Y-25416606D01*
X52903553Y-25416606D01*
X52907209Y-25424366D01*
X53043074Y-25560231D01*
X53049999Y-25564229D01*
X53056925Y-25560231D01*
X53192789Y-25424366D01*
X53196445Y-25416606D01*
X53189514Y-25411545D01*
X53121247Y-25391500D01*
X53110814Y-25390000D01*
X52989186Y-25390000D01*
X52978752Y-25391500D01*
X52910484Y-25411545D01*
X52903553Y-25416606D01*
X50496445Y-25416606D01*
X50489514Y-25411545D01*
X50421247Y-25391500D01*
X50410814Y-25390000D01*
X50289186Y-25390000D01*
X50278752Y-25391500D01*
X50210484Y-25411545D01*
X50203553Y-25416606D01*
X45365120Y-25416606D01*
X45365120Y-25298365D01*
X45366702Y-25283105D01*
X45369663Y-25268985D01*
X45365690Y-25237121D01*
X45365224Y-25229599D01*
X45365120Y-25228346D01*
X45365120Y-25225260D01*
X45362607Y-25210203D01*
X66690000Y-25210203D01*
X66692070Y-25217929D01*
X66699797Y-25220000D01*
X67540203Y-25220000D01*
X67547929Y-25217929D01*
X67550000Y-25210203D01*
X67950000Y-25210203D01*
X67952070Y-25217929D01*
X67959797Y-25220000D01*
X68800202Y-25220000D01*
X68807928Y-25217929D01*
X68809999Y-25210203D01*
X68809999Y-24552972D01*
X68809286Y-24545735D01*
X68799245Y-24495251D01*
X68793743Y-24481967D01*
X68755472Y-24424692D01*
X68745307Y-24414527D01*
X68688028Y-24376253D01*
X68674754Y-24370755D01*
X68624264Y-24360712D01*
X68617029Y-24360000D01*
X67959797Y-24360000D01*
X67952070Y-24362070D01*
X67950000Y-24369797D01*
X67950000Y-25210203D01*
X67550000Y-25210203D01*
X67550000Y-24369798D01*
X67547929Y-24362071D01*
X67540203Y-24360001D01*
X66882972Y-24360001D01*
X66875735Y-24360713D01*
X66825251Y-24370754D01*
X66811967Y-24376256D01*
X66754692Y-24414527D01*
X66744527Y-24424692D01*
X66706253Y-24481971D01*
X66700755Y-24495245D01*
X66690712Y-24545735D01*
X66690000Y-24552971D01*
X66690000Y-25210203D01*
X45362607Y-25210203D01*
X45361781Y-25205253D01*
X45361343Y-25202246D01*
X45355956Y-25159028D01*
X45355193Y-25152907D01*
X45352665Y-25147736D01*
X45352631Y-25147637D01*
X45351692Y-25144707D01*
X45351659Y-25144598D01*
X45350712Y-25138919D01*
X45327057Y-25095211D01*
X45325654Y-25092485D01*
X45306524Y-25053352D01*
X45303818Y-25047816D01*
X45299742Y-25043740D01*
X45299703Y-25043690D01*
X45297856Y-25041212D01*
X45297773Y-25041096D01*
X45295038Y-25036042D01*
X45258477Y-25002385D01*
X45256258Y-25000256D01*
X45169868Y-24913866D01*
X45160189Y-24901945D01*
X45155672Y-24895030D01*
X45143957Y-24846664D01*
X45165350Y-24801734D01*
X45231290Y-24735794D01*
X45243200Y-24726123D01*
X45255274Y-24718237D01*
X45275002Y-24692887D01*
X45279986Y-24687247D01*
X45280801Y-24686283D01*
X45282980Y-24684106D01*
X45294774Y-24667585D01*
X45296555Y-24665196D01*
X45327122Y-24625926D01*
X45328990Y-24620481D01*
X45329035Y-24620391D01*
X45330462Y-24617618D01*
X45330494Y-24617558D01*
X45333845Y-24612866D01*
X45348044Y-24565171D01*
X45348951Y-24562339D01*
X45365105Y-24515288D01*
X45365105Y-24509531D01*
X45365115Y-24509451D01*
X45365561Y-24506385D01*
X45365580Y-24506268D01*
X45367222Y-24500754D01*
X45365169Y-24451116D01*
X45365105Y-24448041D01*
X45365105Y-24198365D01*
X45366687Y-24183105D01*
X45369648Y-24168985D01*
X45365675Y-24137121D01*
X45365209Y-24129599D01*
X45365105Y-24128346D01*
X45365105Y-24125260D01*
X45361766Y-24105253D01*
X45361328Y-24102246D01*
X45355941Y-24059028D01*
X45355178Y-24052907D01*
X45352650Y-24047736D01*
X45352616Y-24047637D01*
X45351677Y-24044707D01*
X45351644Y-24044598D01*
X45350697Y-24038919D01*
X45327042Y-23995211D01*
X45325639Y-23992485D01*
X45307256Y-23954881D01*
X45303803Y-23947816D01*
X45299727Y-23943740D01*
X45299688Y-23943690D01*
X45297841Y-23941212D01*
X45297758Y-23941096D01*
X45295023Y-23936042D01*
X45258462Y-23902385D01*
X45256243Y-23900256D01*
X45169853Y-23813866D01*
X45160176Y-23801948D01*
X45155664Y-23795042D01*
X45155663Y-23795041D01*
X45152292Y-23789881D01*
X45126953Y-23770159D01*
X45121271Y-23765141D01*
X45120337Y-23764350D01*
X45118162Y-23762175D01*
X45101655Y-23750389D01*
X45099222Y-23748576D01*
X45059981Y-23718033D01*
X45054546Y-23716167D01*
X45054438Y-23716114D01*
X45051710Y-23714710D01*
X45051599Y-23714650D01*
X45046921Y-23711310D01*
X45041018Y-23709552D01*
X45041017Y-23709552D01*
X44999274Y-23697124D01*
X44996348Y-23696186D01*
X44955172Y-23682051D01*
X44955171Y-23682050D01*
X44949343Y-23680050D01*
X44943592Y-23680050D01*
X44943486Y-23680037D01*
X44940457Y-23679596D01*
X44940316Y-23679572D01*
X44934809Y-23677933D01*
X44928651Y-23678187D01*
X44928646Y-23678187D01*
X44885171Y-23679986D01*
X44882096Y-23680050D01*
X44774750Y-23680050D01*
X44746278Y-23674387D01*
X44722141Y-23658259D01*
X44647275Y-23583393D01*
X50203553Y-23583393D01*
X50210482Y-23588453D01*
X50278753Y-23608499D01*
X50289186Y-23610000D01*
X50410814Y-23610000D01*
X50421246Y-23608499D01*
X50489516Y-23588453D01*
X50496445Y-23583393D01*
X52903553Y-23583393D01*
X52910482Y-23588453D01*
X52978753Y-23608499D01*
X52989186Y-23610000D01*
X53110814Y-23610000D01*
X53121246Y-23608499D01*
X53189516Y-23588453D01*
X53196445Y-23583393D01*
X53192788Y-23575631D01*
X53056925Y-23439768D01*
X53050000Y-23435770D01*
X53043074Y-23439768D01*
X52907209Y-23575632D01*
X52903553Y-23583393D01*
X50496445Y-23583393D01*
X50492788Y-23575631D01*
X50356925Y-23439768D01*
X50350000Y-23435770D01*
X50343074Y-23439768D01*
X50207209Y-23575632D01*
X50203553Y-23583393D01*
X44647275Y-23583393D01*
X44219147Y-23155265D01*
X49886027Y-23155265D01*
X49903337Y-23275663D01*
X49906306Y-23285771D01*
X49909159Y-23292020D01*
X49915013Y-23298308D01*
X49922691Y-23294465D01*
X50060231Y-23156925D01*
X50064229Y-23149999D01*
X50635770Y-23149999D01*
X50639768Y-23156925D01*
X50777307Y-23294464D01*
X50784986Y-23298308D01*
X50790839Y-23292022D01*
X50793693Y-23285772D01*
X50796662Y-23275661D01*
X50813973Y-23155265D01*
X52586027Y-23155265D01*
X52603337Y-23275663D01*
X52606306Y-23285771D01*
X52609159Y-23292020D01*
X52615013Y-23298308D01*
X52622691Y-23294465D01*
X52760231Y-23156925D01*
X52764229Y-23149999D01*
X53335770Y-23149999D01*
X53339768Y-23156925D01*
X53477307Y-23294464D01*
X53484986Y-23298308D01*
X53490839Y-23292022D01*
X53493693Y-23285772D01*
X53496662Y-23275661D01*
X53513973Y-23155265D01*
X53513973Y-23144735D01*
X53496661Y-23024331D01*
X53493697Y-23014235D01*
X53490838Y-23007976D01*
X53484986Y-23001690D01*
X53477308Y-23005533D01*
X53339768Y-23143074D01*
X53335770Y-23149999D01*
X52764229Y-23149999D01*
X52760231Y-23143074D01*
X52622693Y-23005536D01*
X52615012Y-23001691D01*
X52609160Y-23007977D01*
X52606305Y-23014228D01*
X52603337Y-23024338D01*
X52586027Y-23144735D01*
X52586027Y-23155265D01*
X50813973Y-23155265D01*
X50813973Y-23144735D01*
X50796661Y-23024331D01*
X50793697Y-23014235D01*
X50790838Y-23007976D01*
X50784986Y-23001690D01*
X50777308Y-23005533D01*
X50639768Y-23143074D01*
X50635770Y-23149999D01*
X50064229Y-23149999D01*
X50060231Y-23143074D01*
X49922693Y-23005536D01*
X49915012Y-23001691D01*
X49909160Y-23007977D01*
X49906305Y-23014228D01*
X49903337Y-23024338D01*
X49886027Y-23144735D01*
X49886027Y-23155265D01*
X44219147Y-23155265D01*
X43922197Y-22858315D01*
X43912520Y-22846397D01*
X43908008Y-22839491D01*
X43908007Y-22839490D01*
X43904636Y-22834330D01*
X43879297Y-22814608D01*
X43873615Y-22809590D01*
X43872681Y-22808799D01*
X43870506Y-22806624D01*
X43853999Y-22794838D01*
X43851566Y-22793025D01*
X43812325Y-22762482D01*
X43806890Y-22760616D01*
X43806782Y-22760563D01*
X43804054Y-22759159D01*
X43803943Y-22759099D01*
X43799265Y-22755759D01*
X43793362Y-22754001D01*
X43793361Y-22754001D01*
X43751618Y-22741573D01*
X43748692Y-22740635D01*
X43707516Y-22726500D01*
X43707515Y-22726499D01*
X43701687Y-22724499D01*
X43695936Y-22724499D01*
X43695830Y-22724486D01*
X43692801Y-22724045D01*
X43692660Y-22724021D01*
X43687153Y-22722382D01*
X43680995Y-22722636D01*
X43680990Y-22722636D01*
X43637515Y-22724435D01*
X43634440Y-22724499D01*
X43203760Y-22724499D01*
X43176879Y-22716606D01*
X50203553Y-22716606D01*
X50207209Y-22724366D01*
X50343074Y-22860231D01*
X50350000Y-22864229D01*
X50356925Y-22860231D01*
X50492789Y-22724366D01*
X50496445Y-22716606D01*
X52903553Y-22716606D01*
X52907209Y-22724366D01*
X53043074Y-22860231D01*
X53050000Y-22864229D01*
X53056925Y-22860231D01*
X53192789Y-22724366D01*
X53196445Y-22716606D01*
X53189514Y-22711545D01*
X53121247Y-22691500D01*
X53110814Y-22690000D01*
X52989186Y-22690000D01*
X52978752Y-22691500D01*
X52910484Y-22711545D01*
X52903553Y-22716606D01*
X50496445Y-22716606D01*
X50489514Y-22711545D01*
X50421247Y-22691500D01*
X50410814Y-22690000D01*
X50289186Y-22690000D01*
X50278752Y-22691500D01*
X50210484Y-22711545D01*
X50203553Y-22716606D01*
X43176879Y-22716606D01*
X43163536Y-22712688D01*
X43136083Y-22681006D01*
X43117485Y-22640282D01*
X43027944Y-22536945D01*
X42912916Y-22463022D01*
X42907814Y-22461523D01*
X42907812Y-22461523D01*
X42786831Y-22426000D01*
X42786830Y-22425999D01*
X42781722Y-22424500D01*
X42644988Y-22424500D01*
X42639880Y-22425999D01*
X42639878Y-22426000D01*
X42518897Y-22461523D01*
X42518893Y-22461524D01*
X42513794Y-22463022D01*
X42509324Y-22465894D01*
X42509321Y-22465896D01*
X42403244Y-22534067D01*
X42398766Y-22536945D01*
X42309225Y-22640282D01*
X42307017Y-22645115D01*
X42307016Y-22645118D01*
X42254631Y-22759823D01*
X42254629Y-22759829D01*
X42252424Y-22764658D01*
X42251668Y-22769915D01*
X42251667Y-22769919D01*
X42238958Y-22858315D01*
X42232965Y-22900000D01*
X42233722Y-22905265D01*
X42250841Y-23024338D01*
X42252424Y-23035342D01*
X42254629Y-23040172D01*
X42254631Y-23040176D01*
X42299338Y-23138069D01*
X42309225Y-23159718D01*
X42344051Y-23199910D01*
X42388562Y-23251279D01*
X42404637Y-23282460D01*
X42404637Y-23317540D01*
X42388562Y-23348721D01*
X42313135Y-23435770D01*
X42309225Y-23440282D01*
X42307017Y-23445115D01*
X42307016Y-23445118D01*
X42254631Y-23559823D01*
X42254629Y-23559829D01*
X42252424Y-23564658D01*
X42251668Y-23569915D01*
X42251667Y-23569919D01*
X42235835Y-23680037D01*
X42232965Y-23700000D01*
X42233722Y-23705265D01*
X42247622Y-23801948D01*
X42252424Y-23835342D01*
X42254629Y-23840172D01*
X42254631Y-23840176D01*
X42306318Y-23953352D01*
X42309225Y-23959718D01*
X42398766Y-24063055D01*
X42513794Y-24136978D01*
X42644988Y-24175500D01*
X42776398Y-24175500D01*
X42781722Y-24175500D01*
X42912916Y-24136978D01*
X43027944Y-24063055D01*
X43117485Y-23959718D01*
X43136083Y-23918993D01*
X43163536Y-23887312D01*
X43203760Y-23875501D01*
X43280801Y-23875501D01*
X43309273Y-23881164D01*
X43333410Y-23897292D01*
X43652709Y-24216590D01*
X43668837Y-24240727D01*
X43674500Y-24269199D01*
X43674500Y-38230800D01*
X43668837Y-38259272D01*
X43652709Y-38283409D01*
X43033409Y-38902709D01*
X43009272Y-38918837D01*
X42980800Y-38924500D01*
X36950865Y-38924500D01*
X36935597Y-38922917D01*
X36927513Y-38921222D01*
X36921485Y-38919958D01*
X36915377Y-38920719D01*
X36915372Y-38920719D01*
X36889628Y-38923929D01*
X36882051Y-38924399D01*
X36880830Y-38924500D01*
X36877760Y-38924500D01*
X36874743Y-38925003D01*
X36874723Y-38925005D01*
X36857763Y-38927835D01*
X36854727Y-38928277D01*
X36811527Y-38933663D01*
X36811520Y-38933664D01*
X36805407Y-38934427D01*
X36800252Y-38936946D01*
X36800121Y-38936992D01*
X36797224Y-38937920D01*
X36797078Y-38937963D01*
X36791419Y-38938908D01*
X36785999Y-38941840D01*
X36785993Y-38941843D01*
X36747700Y-38962566D01*
X36744968Y-38963973D01*
X36705848Y-38983097D01*
X36705845Y-38983098D01*
X36700316Y-38985802D01*
X36696255Y-38989861D01*
X36696162Y-38989935D01*
X36693716Y-38991759D01*
X36693585Y-38991851D01*
X36688542Y-38994582D01*
X36684372Y-38999111D01*
X36684365Y-38999117D01*
X36654884Y-39031141D01*
X36652757Y-39033359D01*
X35308315Y-40377801D01*
X35296404Y-40387474D01*
X35289493Y-40391989D01*
X35289488Y-40391993D01*
X35284331Y-40395363D01*
X35280545Y-40400227D01*
X35280544Y-40400228D01*
X35264612Y-40420696D01*
X35259553Y-40426427D01*
X35258791Y-40427325D01*
X35256625Y-40429493D01*
X35254845Y-40431985D01*
X35254833Y-40432000D01*
X35244838Y-40445999D01*
X35243003Y-40448460D01*
X35216268Y-40482810D01*
X35216266Y-40482813D01*
X35212483Y-40487674D01*
X35210621Y-40493093D01*
X35210549Y-40493244D01*
X35209156Y-40495949D01*
X35209091Y-40496067D01*
X35205760Y-40500734D01*
X35204002Y-40506636D01*
X35203999Y-40506644D01*
X35191573Y-40548379D01*
X35190637Y-40551304D01*
X35182912Y-40573809D01*
X35174500Y-40598312D01*
X35174500Y-40604063D01*
X35174487Y-40604171D01*
X35174046Y-40607194D01*
X35174020Y-40607346D01*
X35172383Y-40612846D01*
X35172637Y-40619002D01*
X35172637Y-40619008D01*
X35174436Y-40662484D01*
X35174500Y-40665559D01*
X35174500Y-49299135D01*
X35172917Y-49314394D01*
X35169957Y-49328515D01*
X31381500Y-49328515D01*
X31381500Y-45723935D01*
X32895669Y-45723935D01*
X32896419Y-45728192D01*
X32896420Y-45728198D01*
X32921126Y-45868306D01*
X32926135Y-45896711D01*
X32995623Y-46057804D01*
X33100390Y-46198530D01*
X33103708Y-46201314D01*
X33103709Y-46201315D01*
X33172252Y-46258830D01*
X33234786Y-46311302D01*
X33391567Y-46390040D01*
X33562279Y-46430500D01*
X34291548Y-46430500D01*
X34293709Y-46430500D01*
X34424255Y-46415241D01*
X34589117Y-46355237D01*
X34735696Y-46258830D01*
X34856092Y-46131218D01*
X34943812Y-45979281D01*
X34994130Y-45811210D01*
X35004331Y-45636065D01*
X34973865Y-45463289D01*
X34904377Y-45302196D01*
X34799610Y-45161470D01*
X34731502Y-45104320D01*
X34668530Y-45051480D01*
X34668527Y-45051478D01*
X34665214Y-45048698D01*
X34508433Y-44969960D01*
X34504210Y-44968959D01*
X34341943Y-44930500D01*
X34341937Y-44930499D01*
X34337721Y-44929500D01*
X33606291Y-44929500D01*
X33604159Y-44929749D01*
X33604145Y-44929750D01*
X33480047Y-44944256D01*
X33480045Y-44944256D01*
X33475745Y-44944759D01*
X33471675Y-44946240D01*
X33471672Y-44946241D01*
X33314959Y-45003279D01*
X33314955Y-45003280D01*
X33310883Y-45004763D01*
X33307262Y-45007144D01*
X33307259Y-45007146D01*
X33167922Y-45098789D01*
X33167914Y-45098795D01*
X33164304Y-45101170D01*
X33161336Y-45104315D01*
X33161331Y-45104320D01*
X33046880Y-45225630D01*
X33046873Y-45225638D01*
X33043908Y-45228782D01*
X33041744Y-45232529D01*
X33041741Y-45232534D01*
X32958358Y-45376959D01*
X32958355Y-45376964D01*
X32956188Y-45380719D01*
X32954944Y-45384871D01*
X32954942Y-45384878D01*
X32907112Y-45544639D01*
X32907110Y-45544645D01*
X32905870Y-45548790D01*
X32895669Y-45723935D01*
X31381500Y-45723935D01*
X31381500Y-35949981D01*
X31396690Y-35904931D01*
X31436057Y-35878276D01*
X31483526Y-35880900D01*
X31519714Y-35911731D01*
X31589298Y-36027824D01*
X31590382Y-36029286D01*
X31590387Y-36029293D01*
X31734790Y-36223999D01*
X31776367Y-36280058D01*
X31987259Y-36512741D01*
X32219942Y-36723633D01*
X32472176Y-36910702D01*
X32741531Y-37072148D01*
X33025414Y-37206414D01*
X33027125Y-37207026D01*
X33027127Y-37207027D01*
X33319365Y-37311592D01*
X33319368Y-37311593D01*
X33321090Y-37312209D01*
X33322867Y-37312654D01*
X33322870Y-37312655D01*
X33400553Y-37332113D01*
X33625711Y-37388512D01*
X33936346Y-37434591D01*
X34250000Y-37450000D01*
X34563654Y-37434591D01*
X34874289Y-37388512D01*
X35178910Y-37312209D01*
X35474586Y-37206414D01*
X35758469Y-37072148D01*
X36027824Y-36910702D01*
X36145167Y-36823675D01*
X38513270Y-36823675D01*
X38520201Y-36828736D01*
X38621563Y-36858499D01*
X38631997Y-36860000D01*
X38768003Y-36860000D01*
X38778436Y-36858499D01*
X38879797Y-36828736D01*
X38886728Y-36823675D01*
X39613270Y-36823675D01*
X39620201Y-36828736D01*
X39721563Y-36858499D01*
X39731997Y-36860000D01*
X39868003Y-36860000D01*
X39878436Y-36858499D01*
X39979797Y-36828736D01*
X39986728Y-36823675D01*
X40913270Y-36823675D01*
X40920201Y-36828736D01*
X41021563Y-36858499D01*
X41031997Y-36860000D01*
X41168003Y-36860000D01*
X41178436Y-36858499D01*
X41279797Y-36828736D01*
X41286728Y-36823675D01*
X42113270Y-36823675D01*
X42120201Y-36828736D01*
X42221563Y-36858499D01*
X42231997Y-36860000D01*
X42368003Y-36860000D01*
X42378436Y-36858499D01*
X42479797Y-36828736D01*
X42486728Y-36823675D01*
X42483072Y-36815915D01*
X42306925Y-36639768D01*
X42299999Y-36635770D01*
X42293074Y-36639768D01*
X42116926Y-36815915D01*
X42113270Y-36823675D01*
X41286728Y-36823675D01*
X41283072Y-36815915D01*
X41106925Y-36639768D01*
X41099999Y-36635770D01*
X41093074Y-36639768D01*
X40916926Y-36815915D01*
X40913270Y-36823675D01*
X39986728Y-36823675D01*
X39983072Y-36815915D01*
X39806925Y-36639768D01*
X39799999Y-36635770D01*
X39793074Y-36639768D01*
X39616926Y-36815915D01*
X39613270Y-36823675D01*
X38886728Y-36823675D01*
X38883072Y-36815915D01*
X38706925Y-36639768D01*
X38699999Y-36635770D01*
X38693074Y-36639768D01*
X38516926Y-36815915D01*
X38513270Y-36823675D01*
X36145167Y-36823675D01*
X36280058Y-36723633D01*
X36512741Y-36512741D01*
X36655469Y-36355265D01*
X38185513Y-36355265D01*
X38204870Y-36489899D01*
X38207834Y-36499995D01*
X38221426Y-36529756D01*
X38227278Y-36536042D01*
X38234957Y-36532199D01*
X38410231Y-36356925D01*
X38414229Y-36349999D01*
X38985770Y-36349999D01*
X38989768Y-36356925D01*
X39165041Y-36532198D01*
X39172720Y-36536042D01*
X39178572Y-36529757D01*
X39182322Y-36521546D01*
X39209775Y-36489863D01*
X39249998Y-36478052D01*
X39290222Y-36489862D01*
X39317675Y-36521545D01*
X39321424Y-36529754D01*
X39327278Y-36536042D01*
X39334957Y-36532199D01*
X39510231Y-36356925D01*
X39514229Y-36349999D01*
X40085770Y-36349999D01*
X40089768Y-36356925D01*
X40265041Y-36532198D01*
X40272720Y-36536042D01*
X40278573Y-36529756D01*
X40292161Y-36500003D01*
X40295130Y-36489892D01*
X40314487Y-36355265D01*
X40585513Y-36355265D01*
X40604870Y-36489899D01*
X40607834Y-36499995D01*
X40621426Y-36529756D01*
X40627278Y-36536042D01*
X40634957Y-36532199D01*
X40810231Y-36356925D01*
X40814229Y-36349999D01*
X41385770Y-36349999D01*
X41389768Y-36356925D01*
X41565041Y-36532198D01*
X41572720Y-36536042D01*
X41578573Y-36529756D01*
X41592161Y-36500003D01*
X41595130Y-36489892D01*
X41614487Y-36355265D01*
X41785513Y-36355265D01*
X41804870Y-36489899D01*
X41807834Y-36499995D01*
X41821426Y-36529756D01*
X41827278Y-36536042D01*
X41834957Y-36532199D01*
X42010231Y-36356925D01*
X42014229Y-36349999D01*
X42585770Y-36349999D01*
X42589768Y-36356925D01*
X42765041Y-36532198D01*
X42772720Y-36536042D01*
X42778573Y-36529756D01*
X42792161Y-36500003D01*
X42795130Y-36489892D01*
X42814487Y-36355265D01*
X42814487Y-36344735D01*
X42795130Y-36210107D01*
X42792161Y-36199995D01*
X42778572Y-36170242D01*
X42772720Y-36163956D01*
X42765041Y-36167800D01*
X42589768Y-36343074D01*
X42585770Y-36349999D01*
X42014229Y-36349999D01*
X42010231Y-36343074D01*
X41834956Y-36167799D01*
X41827279Y-36163956D01*
X41821425Y-36170243D01*
X41807836Y-36200000D01*
X41804870Y-36210103D01*
X41785513Y-36344735D01*
X41785513Y-36355265D01*
X41614487Y-36355265D01*
X41614487Y-36344735D01*
X41595130Y-36210107D01*
X41592161Y-36199995D01*
X41578572Y-36170242D01*
X41572720Y-36163956D01*
X41565041Y-36167800D01*
X41389768Y-36343074D01*
X41385770Y-36349999D01*
X40814229Y-36349999D01*
X40810231Y-36343074D01*
X40634956Y-36167799D01*
X40627279Y-36163956D01*
X40621425Y-36170243D01*
X40607836Y-36200000D01*
X40604870Y-36210103D01*
X40585513Y-36344735D01*
X40585513Y-36355265D01*
X40314487Y-36355265D01*
X40314487Y-36344735D01*
X40295130Y-36210107D01*
X40292161Y-36199995D01*
X40278572Y-36170242D01*
X40272720Y-36163956D01*
X40265041Y-36167800D01*
X40089768Y-36343074D01*
X40085770Y-36349999D01*
X39514229Y-36349999D01*
X39510231Y-36343074D01*
X39334956Y-36167799D01*
X39327279Y-36163956D01*
X39321425Y-36170243D01*
X39317675Y-36178456D01*
X39290221Y-36210137D01*
X39249998Y-36221947D01*
X39209774Y-36210136D01*
X39182322Y-36178453D01*
X39178572Y-36170241D01*
X39172720Y-36163956D01*
X39165041Y-36167800D01*
X38989768Y-36343074D01*
X38985770Y-36349999D01*
X38414229Y-36349999D01*
X38410231Y-36343074D01*
X38234956Y-36167799D01*
X38227279Y-36163956D01*
X38221425Y-36170243D01*
X38207836Y-36200000D01*
X38204870Y-36210103D01*
X38185513Y-36344735D01*
X38185513Y-36355265D01*
X36655469Y-36355265D01*
X36723633Y-36280058D01*
X36910702Y-36027824D01*
X37001509Y-35876323D01*
X38513270Y-35876323D01*
X38516926Y-35884083D01*
X38693074Y-36060231D01*
X38700000Y-36064229D01*
X38706925Y-36060231D01*
X38883072Y-35884083D01*
X38886728Y-35876323D01*
X39613270Y-35876323D01*
X39616926Y-35884083D01*
X39793074Y-36060231D01*
X39800000Y-36064229D01*
X39806925Y-36060231D01*
X39983072Y-35884083D01*
X39986728Y-35876323D01*
X40913270Y-35876323D01*
X40916926Y-35884083D01*
X41093074Y-36060231D01*
X41100000Y-36064229D01*
X41106925Y-36060231D01*
X41283072Y-35884083D01*
X41286728Y-35876323D01*
X42113270Y-35876323D01*
X42116926Y-35884083D01*
X42293074Y-36060231D01*
X42300000Y-36064229D01*
X42306925Y-36060231D01*
X42483072Y-35884083D01*
X42486728Y-35876323D01*
X42479797Y-35871262D01*
X42378436Y-35841500D01*
X42368003Y-35840000D01*
X42231997Y-35840000D01*
X42221563Y-35841500D01*
X42120200Y-35871262D01*
X42113270Y-35876323D01*
X41286728Y-35876323D01*
X41279797Y-35871262D01*
X41178436Y-35841500D01*
X41168003Y-35840000D01*
X41031997Y-35840000D01*
X41021563Y-35841500D01*
X40920200Y-35871262D01*
X40913270Y-35876323D01*
X39986728Y-35876323D01*
X39979797Y-35871262D01*
X39878436Y-35841500D01*
X39868003Y-35840000D01*
X39731997Y-35840000D01*
X39721563Y-35841500D01*
X39620200Y-35871262D01*
X39613270Y-35876323D01*
X38886728Y-35876323D01*
X38879797Y-35871262D01*
X38778436Y-35841500D01*
X38768003Y-35840000D01*
X38631997Y-35840000D01*
X38621563Y-35841500D01*
X38520200Y-35871262D01*
X38513270Y-35876323D01*
X37001509Y-35876323D01*
X37072148Y-35758469D01*
X37135901Y-35623675D01*
X38513270Y-35623675D01*
X38520201Y-35628736D01*
X38621563Y-35658499D01*
X38631997Y-35660000D01*
X38768003Y-35660000D01*
X38778436Y-35658499D01*
X38879797Y-35628736D01*
X38886728Y-35623675D01*
X39613270Y-35623675D01*
X39620201Y-35628736D01*
X39721563Y-35658499D01*
X39731997Y-35660000D01*
X39868003Y-35660000D01*
X39878436Y-35658499D01*
X39979797Y-35628736D01*
X39986728Y-35623675D01*
X40913270Y-35623675D01*
X40920201Y-35628736D01*
X41021563Y-35658499D01*
X41031997Y-35660000D01*
X41168003Y-35660000D01*
X41178436Y-35658499D01*
X41279797Y-35628736D01*
X41286728Y-35623675D01*
X42113270Y-35623675D01*
X42120201Y-35628736D01*
X42221563Y-35658499D01*
X42231997Y-35660000D01*
X42368003Y-35660000D01*
X42378436Y-35658499D01*
X42479797Y-35628736D01*
X42486728Y-35623675D01*
X42483072Y-35615915D01*
X42306925Y-35439768D01*
X42299999Y-35435770D01*
X42293074Y-35439768D01*
X42116926Y-35615915D01*
X42113270Y-35623675D01*
X41286728Y-35623675D01*
X41283072Y-35615915D01*
X41106925Y-35439768D01*
X41099999Y-35435770D01*
X41093074Y-35439768D01*
X40916926Y-35615915D01*
X40913270Y-35623675D01*
X39986728Y-35623675D01*
X39983072Y-35615915D01*
X39806925Y-35439768D01*
X39799999Y-35435770D01*
X39793074Y-35439768D01*
X39616926Y-35615915D01*
X39613270Y-35623675D01*
X38886728Y-35623675D01*
X38883072Y-35615915D01*
X38706925Y-35439768D01*
X38699999Y-35435770D01*
X38693074Y-35439768D01*
X38516926Y-35615915D01*
X38513270Y-35623675D01*
X37135901Y-35623675D01*
X37206414Y-35474586D01*
X37312209Y-35178910D01*
X37318132Y-35155265D01*
X38185513Y-35155265D01*
X38204870Y-35289899D01*
X38207834Y-35299995D01*
X38221426Y-35329756D01*
X38227278Y-35336042D01*
X38234957Y-35332199D01*
X38410231Y-35156925D01*
X38414229Y-35150000D01*
X38985770Y-35150000D01*
X38989768Y-35156925D01*
X39165041Y-35332198D01*
X39172720Y-35336042D01*
X39178572Y-35329757D01*
X39182322Y-35321546D01*
X39209775Y-35289863D01*
X39249998Y-35278052D01*
X39290222Y-35289862D01*
X39317675Y-35321545D01*
X39321424Y-35329754D01*
X39327278Y-35336042D01*
X39334957Y-35332199D01*
X39510231Y-35156925D01*
X39514229Y-35150000D01*
X40085770Y-35150000D01*
X40089768Y-35156925D01*
X40265041Y-35332198D01*
X40272720Y-35336042D01*
X40278573Y-35329756D01*
X40292161Y-35300003D01*
X40295130Y-35289892D01*
X40314487Y-35155265D01*
X40585513Y-35155265D01*
X40604870Y-35289899D01*
X40607834Y-35299995D01*
X40621426Y-35329756D01*
X40627278Y-35336042D01*
X40634957Y-35332199D01*
X40810231Y-35156925D01*
X40814229Y-35150000D01*
X41385770Y-35150000D01*
X41389768Y-35156925D01*
X41565041Y-35332198D01*
X41572720Y-35336042D01*
X41578573Y-35329756D01*
X41592161Y-35300003D01*
X41595130Y-35289892D01*
X41614487Y-35155265D01*
X41785513Y-35155265D01*
X41804870Y-35289899D01*
X41807834Y-35299995D01*
X41821426Y-35329756D01*
X41827278Y-35336042D01*
X41834957Y-35332199D01*
X42010231Y-35156925D01*
X42014229Y-35150000D01*
X42585770Y-35150000D01*
X42589768Y-35156925D01*
X42765041Y-35332198D01*
X42772720Y-35336042D01*
X42778573Y-35329756D01*
X42792161Y-35300003D01*
X42795130Y-35289892D01*
X42814487Y-35155265D01*
X42814487Y-35144735D01*
X42795130Y-35010107D01*
X42792161Y-34999995D01*
X42778572Y-34970242D01*
X42772720Y-34963956D01*
X42765041Y-34967800D01*
X42589768Y-35143074D01*
X42585770Y-35150000D01*
X42014229Y-35150000D01*
X42010231Y-35143074D01*
X41834956Y-34967799D01*
X41827279Y-34963956D01*
X41821425Y-34970243D01*
X41807836Y-35000000D01*
X41804870Y-35010103D01*
X41785513Y-35144735D01*
X41785513Y-35155265D01*
X41614487Y-35155265D01*
X41614487Y-35144735D01*
X41595130Y-35010107D01*
X41592161Y-34999995D01*
X41578572Y-34970242D01*
X41572720Y-34963956D01*
X41565041Y-34967800D01*
X41389768Y-35143074D01*
X41385770Y-35150000D01*
X40814229Y-35150000D01*
X40810231Y-35143074D01*
X40634956Y-34967799D01*
X40627279Y-34963956D01*
X40621425Y-34970243D01*
X40607836Y-35000000D01*
X40604870Y-35010103D01*
X40585513Y-35144735D01*
X40585513Y-35155265D01*
X40314487Y-35155265D01*
X40314487Y-35144735D01*
X40295130Y-35010107D01*
X40292161Y-34999995D01*
X40278572Y-34970242D01*
X40272720Y-34963956D01*
X40265041Y-34967800D01*
X40089768Y-35143074D01*
X40085770Y-35150000D01*
X39514229Y-35150000D01*
X39510231Y-35143074D01*
X39334956Y-34967799D01*
X39327279Y-34963956D01*
X39321425Y-34970243D01*
X39317675Y-34978456D01*
X39290221Y-35010137D01*
X39249998Y-35021947D01*
X39209774Y-35010136D01*
X39182322Y-34978453D01*
X39178572Y-34970241D01*
X39172720Y-34963956D01*
X39165041Y-34967800D01*
X38989768Y-35143074D01*
X38985770Y-35150000D01*
X38414229Y-35150000D01*
X38410231Y-35143074D01*
X38234956Y-34967799D01*
X38227279Y-34963956D01*
X38221425Y-34970243D01*
X38207836Y-35000000D01*
X38204870Y-35010103D01*
X38185513Y-35144735D01*
X38185513Y-35155265D01*
X37318132Y-35155265D01*
X37388512Y-34874289D01*
X37417878Y-34676323D01*
X38513270Y-34676323D01*
X38516926Y-34684083D01*
X38693074Y-34860231D01*
X38700000Y-34864229D01*
X38706925Y-34860231D01*
X38883072Y-34684083D01*
X38886728Y-34676323D01*
X39613270Y-34676323D01*
X39616926Y-34684083D01*
X39793074Y-34860231D01*
X39800000Y-34864229D01*
X39806925Y-34860231D01*
X39983072Y-34684083D01*
X39986728Y-34676323D01*
X40913270Y-34676323D01*
X40916926Y-34684083D01*
X41093074Y-34860231D01*
X41100000Y-34864229D01*
X41106925Y-34860231D01*
X41283072Y-34684083D01*
X41286728Y-34676323D01*
X42113270Y-34676323D01*
X42116926Y-34684083D01*
X42293074Y-34860231D01*
X42300000Y-34864229D01*
X42306925Y-34860231D01*
X42483072Y-34684083D01*
X42486728Y-34676323D01*
X42479797Y-34671262D01*
X42378436Y-34641500D01*
X42368003Y-34640000D01*
X42231997Y-34640000D01*
X42221563Y-34641500D01*
X42120200Y-34671262D01*
X42113270Y-34676323D01*
X41286728Y-34676323D01*
X41279797Y-34671262D01*
X41178436Y-34641500D01*
X41168003Y-34640000D01*
X41031997Y-34640000D01*
X41021563Y-34641500D01*
X40920200Y-34671262D01*
X40913270Y-34676323D01*
X39986728Y-34676323D01*
X39979797Y-34671262D01*
X39878436Y-34641500D01*
X39868003Y-34640000D01*
X39731997Y-34640000D01*
X39721563Y-34641500D01*
X39620200Y-34671262D01*
X39613270Y-34676323D01*
X38886728Y-34676323D01*
X38879797Y-34671262D01*
X38778436Y-34641500D01*
X38768003Y-34640000D01*
X38631997Y-34640000D01*
X38621563Y-34641500D01*
X38520200Y-34671262D01*
X38513270Y-34676323D01*
X37417878Y-34676323D01*
X37434591Y-34563654D01*
X37450000Y-34250000D01*
X37434591Y-33936346D01*
X37388512Y-33625711D01*
X37312209Y-33321090D01*
X37283073Y-33239662D01*
X37207027Y-33027127D01*
X37207026Y-33027125D01*
X37206414Y-33025414D01*
X37072148Y-32741531D01*
X36910702Y-32472176D01*
X36909612Y-32470706D01*
X36724719Y-32221406D01*
X36724716Y-32221403D01*
X36723633Y-32219942D01*
X36512741Y-31987259D01*
X36501395Y-31976976D01*
X36460047Y-31939500D01*
X36280058Y-31776367D01*
X36278599Y-31775285D01*
X36278593Y-31775280D01*
X36029293Y-31590387D01*
X36029286Y-31590382D01*
X36027824Y-31589298D01*
X36024175Y-31587111D01*
X35760039Y-31428793D01*
X35760038Y-31428792D01*
X35758469Y-31427852D01*
X35756816Y-31427070D01*
X35476232Y-31294364D01*
X35476223Y-31294360D01*
X35474586Y-31293586D01*
X35472884Y-31292977D01*
X35472872Y-31292972D01*
X35180634Y-31188407D01*
X35180618Y-31188402D01*
X35178910Y-31187791D01*
X35177145Y-31187349D01*
X35177129Y-31187344D01*
X34876055Y-31111930D01*
X34876048Y-31111928D01*
X34874289Y-31111488D01*
X34872504Y-31111223D01*
X34872493Y-31111221D01*
X34565450Y-31065675D01*
X34565441Y-31065674D01*
X34563654Y-31065409D01*
X34561843Y-31065320D01*
X34561833Y-31065319D01*
X34251832Y-31050090D01*
X34250000Y-31050000D01*
X34248168Y-31050090D01*
X33938166Y-31065319D01*
X33938154Y-31065320D01*
X33936346Y-31065409D01*
X33934560Y-31065673D01*
X33934549Y-31065675D01*
X33627506Y-31111221D01*
X33627491Y-31111223D01*
X33625711Y-31111488D01*
X33623955Y-31111927D01*
X33623944Y-31111930D01*
X33322870Y-31187344D01*
X33322848Y-31187350D01*
X33321090Y-31187791D01*
X33319387Y-31188400D01*
X33319365Y-31188407D01*
X33027127Y-31292972D01*
X33027107Y-31292979D01*
X33025414Y-31293586D01*
X33023783Y-31294357D01*
X33023767Y-31294364D01*
X32743183Y-31427070D01*
X32743172Y-31427075D01*
X32741531Y-31427852D01*
X32739969Y-31428787D01*
X32739960Y-31428793D01*
X32473748Y-31588355D01*
X32473736Y-31588362D01*
X32472176Y-31589298D01*
X32470722Y-31590375D01*
X32470706Y-31590387D01*
X32221406Y-31775280D01*
X32221390Y-31775292D01*
X32219942Y-31776367D01*
X32218594Y-31777588D01*
X32218590Y-31777592D01*
X31988615Y-31986029D01*
X31988604Y-31986039D01*
X31987259Y-31987259D01*
X31986039Y-31988604D01*
X31986029Y-31988615D01*
X31804457Y-32188949D01*
X31776367Y-32219942D01*
X31775292Y-32221390D01*
X31775280Y-32221406D01*
X31590387Y-32470706D01*
X31590375Y-32470722D01*
X31589298Y-32472176D01*
X31588362Y-32473736D01*
X31588355Y-32473748D01*
X31519715Y-32588268D01*
X31483526Y-32619100D01*
X31436057Y-32621724D01*
X31396690Y-32595069D01*
X31381500Y-32550019D01*
X31381500Y-29500000D01*
X32769610Y-29500000D01*
X32770367Y-29505265D01*
X32787032Y-29621178D01*
X32789069Y-29635342D01*
X32791274Y-29640172D01*
X32791276Y-29640176D01*
X32829042Y-29722871D01*
X32845870Y-29759718D01*
X32935411Y-29863055D01*
X33050439Y-29936978D01*
X33181633Y-29975500D01*
X33313043Y-29975500D01*
X33318367Y-29975500D01*
X33449561Y-29936978D01*
X33564589Y-29863055D01*
X33568071Y-29859036D01*
X33568075Y-29859033D01*
X33574535Y-29851578D01*
X33599855Y-29832623D01*
X33630762Y-29825900D01*
X39232514Y-29825900D01*
X39238998Y-29826182D01*
X39278843Y-29829669D01*
X39285130Y-29827984D01*
X39285132Y-29827984D01*
X39317468Y-29819319D01*
X39323799Y-29817915D01*
X39363184Y-29810971D01*
X39368824Y-29807713D01*
X39373767Y-29805915D01*
X39378801Y-29803830D01*
X39383563Y-29801609D01*
X39389857Y-29799923D01*
X39422630Y-29776973D01*
X39428071Y-29773506D01*
X39462716Y-29753506D01*
X39488432Y-29722857D01*
X39492795Y-29718095D01*
X40218095Y-28992795D01*
X40222857Y-28988432D01*
X40253506Y-28962716D01*
X40273506Y-28928071D01*
X40276973Y-28922630D01*
X40299923Y-28889857D01*
X40301609Y-28883563D01*
X40303830Y-28878801D01*
X40305915Y-28873767D01*
X40307713Y-28868824D01*
X40310971Y-28863184D01*
X40317915Y-28823799D01*
X40319319Y-28817468D01*
X40327984Y-28785132D01*
X40327984Y-28785130D01*
X40329669Y-28778843D01*
X40326182Y-28738998D01*
X40325900Y-28732514D01*
X40325900Y-22377750D01*
X40330591Y-22351750D01*
X40344072Y-22329029D01*
X40404130Y-22259718D01*
X40460931Y-22135342D01*
X40480390Y-22000000D01*
X40460931Y-21864658D01*
X40404130Y-21740282D01*
X40314589Y-21636945D01*
X40199561Y-21563022D01*
X40194459Y-21561523D01*
X40194457Y-21561523D01*
X40073476Y-21526000D01*
X40073475Y-21525999D01*
X40068367Y-21524500D01*
X39931633Y-21524500D01*
X39926525Y-21525999D01*
X39926523Y-21526000D01*
X39805542Y-21561523D01*
X39805538Y-21561524D01*
X39800439Y-21563022D01*
X39795969Y-21565894D01*
X39795966Y-21565896D01*
X39689889Y-21634067D01*
X39685411Y-21636945D01*
X39595870Y-21740282D01*
X39593662Y-21745115D01*
X39593661Y-21745118D01*
X39541276Y-21859823D01*
X39541274Y-21859829D01*
X39539069Y-21864658D01*
X39538313Y-21869915D01*
X39538312Y-21869919D01*
X39520859Y-21991311D01*
X39519610Y-22000000D01*
X39539069Y-22135342D01*
X39541274Y-22140172D01*
X39541276Y-22140176D01*
X39593661Y-22254881D01*
X39595870Y-22259718D01*
X39655928Y-22329029D01*
X39669409Y-22351750D01*
X39674100Y-22377750D01*
X39674100Y-28584190D01*
X39668437Y-28612662D01*
X39652309Y-28636799D01*
X39136799Y-29152309D01*
X39112662Y-29168437D01*
X39084190Y-29174100D01*
X33630762Y-29174100D01*
X33599855Y-29167377D01*
X33574535Y-29148422D01*
X33568075Y-29140966D01*
X33568067Y-29140959D01*
X33564589Y-29136945D01*
X33560118Y-29134071D01*
X33560115Y-29134069D01*
X33454033Y-29065896D01*
X33449561Y-29063022D01*
X33444459Y-29061523D01*
X33444457Y-29061523D01*
X33323476Y-29026000D01*
X33323475Y-29025999D01*
X33318367Y-29024500D01*
X33181633Y-29024500D01*
X33176525Y-29025999D01*
X33176523Y-29026000D01*
X33055542Y-29061523D01*
X33055538Y-29061524D01*
X33050439Y-29063022D01*
X33045969Y-29065894D01*
X33045966Y-29065896D01*
X32978848Y-29109030D01*
X32935411Y-29136945D01*
X32931927Y-29140966D01*
X32931924Y-29140969D01*
X32853772Y-29231163D01*
X32845870Y-29240282D01*
X32843662Y-29245115D01*
X32843661Y-29245118D01*
X32791276Y-29359823D01*
X32791274Y-29359829D01*
X32789069Y-29364658D01*
X32788313Y-29369915D01*
X32788312Y-29369919D01*
X32776190Y-29454233D01*
X32769610Y-29500000D01*
X31381500Y-29500000D01*
X31381500Y-20002089D01*
X31381617Y-19997918D01*
X31384440Y-19947646D01*
X31399363Y-19681914D01*
X31400294Y-19673652D01*
X31452962Y-19363666D01*
X31454817Y-19355545D01*
X31541854Y-19053430D01*
X31544606Y-19045568D01*
X31549518Y-19033711D01*
X31578790Y-18963042D01*
X31664924Y-18755099D01*
X31668543Y-18747583D01*
X31820623Y-18472413D01*
X31825057Y-18465354D01*
X32006998Y-18208934D01*
X32012189Y-18202424D01*
X32221702Y-17967979D01*
X32227579Y-17962102D01*
X32462024Y-17752588D01*
X32468533Y-17747397D01*
X32724955Y-17565458D01*
X32732006Y-17561027D01*
X33007185Y-17408940D01*
X33014700Y-17405322D01*
X33040274Y-17394729D01*
X33305175Y-17285002D01*
X33313035Y-17282253D01*
X33615161Y-17195212D01*
X33623263Y-17193363D01*
X33933251Y-17140694D01*
X33941513Y-17139763D01*
X34158104Y-17127599D01*
X34174518Y-17128497D01*
G37*
%TD.AperFunction*%
%TD*%
%TA.AperFunction,Conductor*%
%TO.N,VBUS*%
G36*
X43503427Y-41503427D02*
G01*
X43996573Y-41996573D01*
X44000000Y-42004846D01*
X44000000Y-42995154D01*
X43996573Y-43003427D01*
X43503427Y-43496573D01*
X43495154Y-43500000D01*
X42500000Y-43500000D01*
X42498355Y-43501644D01*
X42498354Y-43501645D01*
X42001645Y-43998354D01*
X42001644Y-43998355D01*
X42000000Y-44000000D01*
X42000000Y-44002327D01*
X42000000Y-48995154D01*
X41996573Y-49003427D01*
X41753427Y-49246573D01*
X41745154Y-49250000D01*
X40254846Y-49250000D01*
X40246573Y-49246573D01*
X40003427Y-49003427D01*
X40000000Y-48995154D01*
X40000000Y-43004846D01*
X40003427Y-42996573D01*
X41496573Y-41503427D01*
X41504846Y-41500000D01*
X43495154Y-41500000D01*
X43503427Y-41503427D01*
G37*
%TD.AperFunction*%
%TD*%
M02*
