%TF.GenerationSoftware,KiCad,Pcbnew,(7.0.0)*%
%TF.CreationDate,2023-10-01T16:50:46+07:00*%
%TF.ProjectId,CYPD3177,43595044-3331-4373-972e-6b696361645f,rev?*%
%TF.SameCoordinates,Original*%
%TF.FileFunction,Soldermask,Top*%
%TF.FilePolarity,Negative*%
%FSLAX46Y46*%
G04 Gerber Fmt 4.6, Leading zero omitted, Abs format (unit mm)*
G04 Created by KiCad (PCBNEW (7.0.0)) date 2023-10-01 16:50:46*
%MOMM*%
%LPD*%
G01*
G04 APERTURE LIST*
G04 Aperture macros list*
%AMRoundRect*
0 Rectangle with rounded corners*
0 $1 Rounding radius*
0 $2 $3 $4 $5 $6 $7 $8 $9 X,Y pos of 4 corners*
0 Add a 4 corners polygon primitive as box body*
4,1,4,$2,$3,$4,$5,$6,$7,$8,$9,$2,$3,0*
0 Add four circle primitives for the rounded corners*
1,1,$1+$1,$2,$3*
1,1,$1+$1,$4,$5*
1,1,$1+$1,$6,$7*
1,1,$1+$1,$8,$9*
0 Add four rect primitives between the rounded corners*
20,1,$1+$1,$2,$3,$4,$5,0*
20,1,$1+$1,$4,$5,$6,$7,0*
20,1,$1+$1,$6,$7,$8,$9,0*
20,1,$1+$1,$8,$9,$2,$3,0*%
G04 Aperture macros list end*
%ADD10RoundRect,0.200000X0.200000X0.275000X-0.200000X0.275000X-0.200000X-0.275000X0.200000X-0.275000X0*%
%ADD11RoundRect,0.250000X0.475000X-0.250000X0.475000X0.250000X-0.475000X0.250000X-0.475000X-0.250000X0*%
%ADD12RoundRect,0.200000X-0.275000X0.200000X-0.275000X-0.200000X0.275000X-0.200000X0.275000X0.200000X0*%
%ADD13RoundRect,0.225000X0.225000X0.250000X-0.225000X0.250000X-0.225000X-0.250000X0.225000X-0.250000X0*%
%ADD14RoundRect,0.225000X-0.225000X-0.250000X0.225000X-0.250000X0.225000X0.250000X-0.225000X0.250000X0*%
%ADD15RoundRect,0.200000X-0.200000X-0.275000X0.200000X-0.275000X0.200000X0.275000X-0.200000X0.275000X0*%
%ADD16C,3.200000*%
%ADD17RoundRect,0.250000X0.250000X0.475000X-0.250000X0.475000X-0.250000X-0.475000X0.250000X-0.475000X0*%
%ADD18R,1.700000X0.900000*%
%ADD19RoundRect,0.225000X-0.250000X0.225000X-0.250000X-0.225000X0.250000X-0.225000X0.250000X0.225000X0*%
%ADD20R,1.700000X1.700000*%
%ADD21O,1.700000X1.700000*%
%ADD22RoundRect,0.150000X-0.587500X-0.150000X0.587500X-0.150000X0.587500X0.150000X-0.587500X0.150000X0*%
%ADD23RoundRect,0.249999X1.550001X-0.790001X1.550001X0.790001X-1.550001X0.790001X-1.550001X-0.790001X0*%
%ADD24O,3.600000X2.080000*%
%ADD25R,1.200000X1.400000*%
%ADD26RoundRect,0.200000X0.275000X-0.200000X0.275000X0.200000X-0.275000X0.200000X-0.275000X-0.200000X0*%
%ADD27R,0.600000X1.550000*%
%ADD28R,3.100000X2.600000*%
%ADD29RoundRect,0.150000X-0.725000X-0.150000X0.725000X-0.150000X0.725000X0.150000X-0.725000X0.150000X0*%
%ADD30RoundRect,0.218750X-0.218750X-0.256250X0.218750X-0.256250X0.218750X0.256250X-0.218750X0.256250X0*%
%ADD31R,0.900000X1.700000*%
%ADD32RoundRect,0.250000X0.650000X-1.000000X0.650000X1.000000X-0.650000X1.000000X-0.650000X-1.000000X0*%
%ADD33C,0.650000*%
%ADD34R,1.450000X0.600000*%
%ADD35R,1.450000X0.300000*%
%ADD36O,2.100000X1.000000*%
%ADD37O,1.600000X1.000000*%
%ADD38R,2.350000X3.500000*%
%ADD39RoundRect,0.250000X-0.475000X0.250000X-0.475000X-0.250000X0.475000X-0.250000X0.475000X0.250000X0*%
%ADD40RoundRect,0.150000X0.150000X-0.650000X0.150000X0.650000X-0.150000X0.650000X-0.150000X-0.650000X0*%
%ADD41RoundRect,0.062500X0.375000X0.062500X-0.375000X0.062500X-0.375000X-0.062500X0.375000X-0.062500X0*%
%ADD42RoundRect,0.062500X0.062500X0.375000X-0.062500X0.375000X-0.062500X-0.375000X0.062500X-0.375000X0*%
%ADD43R,2.500000X2.500000*%
%ADD44RoundRect,0.050000X0.050000X-0.387500X0.050000X0.387500X-0.050000X0.387500X-0.050000X-0.387500X0*%
%ADD45RoundRect,0.050000X0.387500X-0.050000X0.387500X0.050000X-0.387500X0.050000X-0.387500X-0.050000X0*%
%ADD46R,3.200000X3.200000*%
G04 APERTURE END LIST*
D10*
%TO.C,R23*%
X45325000Y-22550000D03*
X43675000Y-22550000D03*
%TD*%
D11*
%TO.C,C15*%
X59500000Y-34700000D03*
X59500000Y-32800000D03*
%TD*%
D12*
%TO.C,R1*%
X62750000Y-40175000D03*
X62750000Y-41825000D03*
%TD*%
D13*
%TO.C,C3*%
X50775000Y-55750000D03*
X49225000Y-55750000D03*
%TD*%
D14*
%TO.C,C20*%
X48175000Y-19000000D03*
X49725000Y-19000000D03*
%TD*%
%TO.C,C28*%
X35225000Y-18000000D03*
X36775000Y-18000000D03*
%TD*%
D15*
%TO.C,R5*%
X54425000Y-56750000D03*
X56075000Y-56750000D03*
%TD*%
D16*
%TO.C,REF\u002A\u002A*%
X34250000Y-65750000D03*
%TD*%
D17*
%TO.C,C5*%
X43950000Y-54250000D03*
X42050000Y-54250000D03*
%TD*%
D14*
%TO.C,C8*%
X54475000Y-58250000D03*
X56025000Y-58250000D03*
%TD*%
D18*
%TO.C,SW_RESET1*%
X63999999Y-21199999D03*
X63999999Y-17799999D03*
%TD*%
D19*
%TO.C,C29*%
X63300000Y-24325000D03*
X63300000Y-25875000D03*
%TD*%
D10*
%TO.C,R4*%
X56075000Y-55250000D03*
X54425000Y-55250000D03*
%TD*%
D20*
%TO.C,J5*%
X55574999Y-13774999D03*
D21*
X58114999Y-13774999D03*
X60654999Y-13774999D03*
%TD*%
D14*
%TO.C,C26*%
X58225000Y-19900000D03*
X59775000Y-19900000D03*
%TD*%
D22*
%TO.C,Q1*%
X64562500Y-40050000D03*
X64562500Y-41950000D03*
X66437500Y-41000000D03*
%TD*%
D13*
%TO.C,C4*%
X50775000Y-54250000D03*
X49225000Y-54250000D03*
%TD*%
D14*
%TO.C,C25*%
X53175000Y-30250000D03*
X54725000Y-30250000D03*
%TD*%
D23*
%TO.C,J2*%
X63472500Y-52540000D03*
D24*
X63472499Y-47459999D03*
%TD*%
D10*
%TO.C,R22*%
X45325000Y-24050000D03*
X43675000Y-24050000D03*
%TD*%
D14*
%TO.C,C6*%
X46225000Y-54250000D03*
X47775000Y-54250000D03*
%TD*%
D25*
%TO.C,Y1*%
X61449999Y-26199999D03*
X61449999Y-23999999D03*
X59749999Y-23999999D03*
X59749999Y-26199999D03*
%TD*%
D13*
%TO.C,C19*%
X52725000Y-19000000D03*
X51175000Y-19000000D03*
%TD*%
D15*
%TO.C,R9*%
X54425000Y-43250000D03*
X56075000Y-43250000D03*
%TD*%
D18*
%TO.C,SW2*%
X71749999Y-29299999D03*
X71749999Y-32699999D03*
%TD*%
D12*
%TO.C,R14*%
X45750000Y-43175000D03*
X45750000Y-44825000D03*
%TD*%
D26*
%TO.C,R34*%
X32000000Y-28575000D03*
X32000000Y-26925000D03*
%TD*%
D12*
%TO.C,R3*%
X49750000Y-43175000D03*
X49750000Y-44825000D03*
%TD*%
%TO.C,R16*%
X41750000Y-61925000D03*
X41750000Y-63575000D03*
%TD*%
%TO.C,R12*%
X52250000Y-43175000D03*
X52250000Y-44825000D03*
%TD*%
D27*
%TO.C,U2*%
X42404999Y-33049999D03*
X41134999Y-33049999D03*
X39864999Y-33049999D03*
X38594999Y-33049999D03*
X38594999Y-38449999D03*
X39864999Y-38449999D03*
X41134999Y-38449999D03*
X42404999Y-38449999D03*
D28*
X40499999Y-35749999D03*
%TD*%
D17*
%TO.C,C11*%
X41450000Y-42250000D03*
X39550000Y-42250000D03*
%TD*%
D10*
%TO.C,R2*%
X69825000Y-41500000D03*
X68175000Y-41500000D03*
%TD*%
D29*
%TO.C,Q2*%
X40425000Y-56345000D03*
X40425000Y-57615000D03*
X40425000Y-58885000D03*
X40425000Y-60155000D03*
X45575000Y-60155000D03*
X45575000Y-58885000D03*
X45575000Y-57615000D03*
X45575000Y-56345000D03*
%TD*%
D12*
%TO.C,R33*%
X32000000Y-23675000D03*
X32000000Y-25325000D03*
%TD*%
D10*
%TO.C,R6*%
X56075000Y-53750000D03*
X54425000Y-53750000D03*
%TD*%
D15*
%TO.C,R15*%
X54425000Y-49250000D03*
X56075000Y-49250000D03*
%TD*%
D26*
%TO.C,R19*%
X37000000Y-42075000D03*
X37000000Y-40425000D03*
%TD*%
D30*
%TO.C,D3*%
X71462500Y-39750000D03*
X73037500Y-39750000D03*
%TD*%
D15*
%TO.C,R31*%
X54175000Y-19000000D03*
X55825000Y-19000000D03*
%TD*%
D13*
%TO.C,C2*%
X50775000Y-57250000D03*
X49225000Y-57250000D03*
%TD*%
D31*
%TO.C,SW3*%
X69549999Y-36499999D03*
X72949999Y-36499999D03*
%TD*%
D13*
%TO.C,C17*%
X59775000Y-18400000D03*
X58225000Y-18400000D03*
%TD*%
D10*
%TO.C,R10*%
X56075000Y-46250000D03*
X54425000Y-46250000D03*
%TD*%
D16*
%TO.C,REF\u002A\u002A*%
X70750000Y-20000000D03*
%TD*%
%TO.C,REF\u002A\u002A*%
X34250000Y-34250000D03*
%TD*%
D13*
%TO.C,C23*%
X45275000Y-18000000D03*
X43725000Y-18000000D03*
%TD*%
D19*
%TO.C,C1*%
X52250000Y-54225000D03*
X52250000Y-55775000D03*
%TD*%
D18*
%TO.C,SW1*%
X71749999Y-27699999D03*
X71749999Y-24299999D03*
%TD*%
D11*
%TO.C,C14*%
X57500000Y-34700000D03*
X57500000Y-32800000D03*
%TD*%
D15*
%TO.C,R7*%
X54425000Y-52250000D03*
X56075000Y-52250000D03*
%TD*%
D12*
%TO.C,R13*%
X47750000Y-43175000D03*
X47750000Y-44825000D03*
%TD*%
%TO.C,R18*%
X43250000Y-61925000D03*
X43250000Y-63575000D03*
%TD*%
D14*
%TO.C,C18*%
X43725000Y-21000000D03*
X45275000Y-21000000D03*
%TD*%
D32*
%TO.C,D2*%
X45250000Y-39500000D03*
X45250000Y-35500000D03*
%TD*%
D33*
%TO.C,J1*%
X37600000Y-47110000D03*
X37600000Y-52890000D03*
D34*
X39044999Y-46749999D03*
X39044999Y-47549999D03*
D35*
X39044999Y-48749999D03*
X39044999Y-49749999D03*
X39044999Y-50249999D03*
X39044999Y-51249999D03*
D34*
X39044999Y-52449999D03*
X39044999Y-53249999D03*
X39044999Y-53249999D03*
X39044999Y-52449999D03*
D35*
X39044999Y-51749999D03*
X39044999Y-50749999D03*
X39044999Y-49249999D03*
X39044999Y-48249999D03*
D34*
X39044999Y-47549999D03*
X39044999Y-46749999D03*
D36*
X38129999Y-45679999D03*
D37*
X33949999Y-45679999D03*
D36*
X38129999Y-54319999D03*
D37*
X33949999Y-54319999D03*
%TD*%
D14*
%TO.C,C30*%
X59825000Y-22100000D03*
X61375000Y-22100000D03*
%TD*%
D12*
%TO.C,R29*%
X57900000Y-22575000D03*
X57900000Y-24225000D03*
%TD*%
D14*
%TO.C,C16*%
X40525000Y-26500000D03*
X42075000Y-26500000D03*
%TD*%
D38*
%TO.C,L1*%
X48724999Y-35749999D03*
X54774999Y-35749999D03*
%TD*%
D18*
%TO.C,SW_BOOT1*%
X41249999Y-17799999D03*
X41249999Y-21199999D03*
%TD*%
D39*
%TO.C,C13*%
X59500000Y-36800000D03*
X59500000Y-38700000D03*
%TD*%
%TO.C,C10*%
X57500000Y-36800000D03*
X57500000Y-38700000D03*
%TD*%
D14*
%TO.C,C9*%
X44475000Y-32750000D03*
X46025000Y-32750000D03*
%TD*%
D10*
%TO.C,R21*%
X69825000Y-39750000D03*
X68175000Y-39750000D03*
%TD*%
D16*
%TO.C,REF\u002A\u002A*%
X70750000Y-65750000D03*
%TD*%
D10*
%TO.C,R17*%
X56075000Y-50750000D03*
X54425000Y-50750000D03*
%TD*%
D40*
%TO.C,U5*%
X34000000Y-28100000D03*
X35270000Y-28100000D03*
X36540000Y-28100000D03*
X37810000Y-28100000D03*
X37810000Y-20900000D03*
X36540000Y-20900000D03*
X35270000Y-20900000D03*
X34000000Y-20900000D03*
%TD*%
D12*
%TO.C,R20*%
X35500001Y-40425000D03*
X35500001Y-42075000D03*
%TD*%
D13*
%TO.C,C22*%
X45275000Y-19500000D03*
X43725000Y-19500000D03*
%TD*%
%TO.C,C21*%
X42075000Y-25000000D03*
X40525000Y-25000000D03*
%TD*%
D39*
%TO.C,C7*%
X45250000Y-62050000D03*
X45250000Y-63950000D03*
%TD*%
D41*
%TO.C,U1*%
X51937500Y-51250000D03*
X51937500Y-50750000D03*
X51937500Y-50250000D03*
X51937500Y-49750000D03*
X51937500Y-49250000D03*
X51937500Y-48750000D03*
D42*
X51250000Y-48062500D03*
X50750000Y-48062500D03*
X50250000Y-48062500D03*
X49750000Y-48062500D03*
X49250000Y-48062500D03*
X48750000Y-48062500D03*
D41*
X48062500Y-48750000D03*
X48062500Y-49250000D03*
X48062500Y-49750000D03*
X48062500Y-50250000D03*
X48062500Y-50750000D03*
X48062500Y-51250000D03*
D42*
X48750000Y-51937500D03*
X49250000Y-51937500D03*
X49750000Y-51937500D03*
X50250000Y-51937500D03*
X50750000Y-51937500D03*
X51250000Y-51937500D03*
D43*
X49999999Y-49999999D03*
%TD*%
D30*
%TO.C,D1*%
X71462500Y-41500000D03*
X73037500Y-41500000D03*
%TD*%
D10*
%TO.C,R8*%
X56075000Y-44750000D03*
X54425000Y-44750000D03*
%TD*%
D13*
%TO.C,C24*%
X48475000Y-30250000D03*
X46925000Y-30250000D03*
%TD*%
D44*
%TO.C,U4*%
X49100000Y-27937500D03*
X49500000Y-27937500D03*
X49900000Y-27937500D03*
X50300000Y-27937500D03*
X50700000Y-27937500D03*
X51100000Y-27937500D03*
X51500000Y-27937500D03*
X51900000Y-27937500D03*
X52300000Y-27937500D03*
X52700000Y-27937500D03*
X53100000Y-27937500D03*
X53500000Y-27937500D03*
X53900000Y-27937500D03*
X54300000Y-27937500D03*
D45*
X55137500Y-27100000D03*
X55137500Y-26700000D03*
X55137500Y-26300000D03*
X55137500Y-25900000D03*
X55137500Y-25500000D03*
X55137500Y-25100000D03*
X55137500Y-24700000D03*
X55137500Y-24300000D03*
X55137500Y-23900000D03*
X55137500Y-23500000D03*
X55137500Y-23100000D03*
X55137500Y-22700000D03*
X55137500Y-22300000D03*
X55137500Y-21900000D03*
D44*
X54300000Y-21062500D03*
X53900000Y-21062500D03*
X53500000Y-21062500D03*
X53100000Y-21062500D03*
X52700000Y-21062500D03*
X52300000Y-21062500D03*
X51900000Y-21062500D03*
X51500000Y-21062500D03*
X51100000Y-21062500D03*
X50700000Y-21062500D03*
X50300000Y-21062500D03*
X49900000Y-21062500D03*
X49500000Y-21062500D03*
X49100000Y-21062500D03*
D45*
X48262500Y-21900000D03*
X48262500Y-22300000D03*
X48262500Y-22700000D03*
X48262500Y-23100000D03*
X48262500Y-23500000D03*
X48262500Y-23900000D03*
X48262500Y-24300000D03*
X48262500Y-24700000D03*
X48262500Y-25100000D03*
X48262500Y-25500000D03*
X48262500Y-25900000D03*
X48262500Y-26300000D03*
X48262500Y-26700000D03*
X48262500Y-27100000D03*
D46*
X51699999Y-24499999D03*
%TD*%
D15*
%TO.C,R11*%
X54425000Y-47750000D03*
X56075000Y-47750000D03*
%TD*%
D13*
%TO.C,C12*%
X41275000Y-40500000D03*
X39725000Y-40500000D03*
%TD*%
D20*
%TO.C,J4*%
X67749999Y-25419999D03*
D21*
X67749999Y-27959999D03*
X67749999Y-30499999D03*
X67749999Y-33039999D03*
%TD*%
M02*
