M48
; DRILL file {KiCad (7.0.0)} date Sun Oct  1 16:50:46 2023
; FORMAT={-:-/ absolute / inch / decimal}
; #@! TF.CreationDate,2023-10-01T16:50:46+07:00
; #@! TF.GenerationSoftware,Kicad,Pcbnew,(7.0.0)
; #@! TF.FileFunction,Plated,1,2,PTH
FMAT,2
INCH
; #@! TA.AperFunction,Plated,PTH,ComponentDrill
T1C0.0079
; #@! TA.AperFunction,Plated,PTH,ViaDrill
T2C0.0118
; #@! TA.AperFunction,Plated,PTH,ComponentDrill
T3C0.0118
; #@! TA.AperFunction,Plated,PTH,ComponentDrill
T4C0.0236
; #@! TA.AperFunction,Plated,PTH,ComponentDrill
T5C0.0394
; #@! TA.AperFunction,Plated,PTH,ComponentDrill
T6C0.0551
%
G90
G05
T1
X1.9823Y-0.9114
X1.9823Y-1.0177
X2.0886Y-0.9114
X2.0886Y-1.0177
T2
X1.3091Y-1.1614
X1.3583Y-1.0315
X1.3858Y-0.7441
X1.4134Y-0.9646
X1.4567Y-1.6929
X1.4646Y-0.9016
X1.4646Y-1.0315
X1.4764Y-1.9724
X1.4764Y-2.0039
X1.4862Y-0.7185
X1.5748Y-0.8661
X1.5945Y-1.8799
X1.5945Y-1.9193
X1.6043Y-2.1063
X1.6043Y-2.1654
X1.624Y-0.7283
X1.624Y-0.935
X1.6339Y-1.8799
X1.6339Y-1.9193
X1.6732Y-1.6535
X1.6732Y-1.6929
X1.6816Y-0.9016
X1.6816Y-0.9331
X1.6831Y-0.7677
X1.6831Y-1.7913
X1.6831Y-1.8307
X1.7126Y-1.6535
X1.7126Y-1.6929
X1.7224Y-1.8307
X1.8012Y-1.6634
X1.811Y-1.1909
X1.8701Y-1.8209
X1.8799Y-1.6634
X1.8996Y-2.1949
X1.8996Y-2.2539
X1.9016Y-0.7087
X1.939Y-1.1909
X1.939Y-1.8504
X1.939Y-1.939
X1.939Y-1.998
X1.9488Y-0.7087
X1.9587Y-1.6634
X1.9685Y-1.9685
X1.998Y-1.939
X1.998Y-1.998
X2.0177Y-0.7087
X2.0571Y-1.1909
X2.0571Y-1.6634
X2.0571Y-2.2343
X2.0669Y-1.8209
X2.0748Y-0.7087
X2.0965Y-2.3228
X2.1949Y-1.1909
X2.2244Y-1.0138
X2.2244Y-1.4075
X2.2441Y-1.7028
X2.2441Y-1.7913
X2.2441Y-1.8799
X2.2441Y-2.0571
X2.2441Y-2.1457
X2.2441Y-2.2343
X2.2638Y-1.4075
X2.2736Y-0.8366
X2.2835Y-1.0138
X2.2953Y-0.8189
X2.3031Y-1.4075
X2.3425Y-0.8268
X2.3425Y-1.0827
X2.3425Y-1.4075
X2.3425Y-1.6437
X2.3622Y-1.6043
X2.3819Y-1.4075
X2.3917Y-0.7244
X2.3917Y-0.7835
X2.3917Y-1.0827
X2.4114Y-1.2106
X2.4213Y-0.8268
X2.4311Y-1.1909
X2.4409Y-1.0827
X2.4508Y-1.1713
X2.4606Y-0.876
X2.4705Y-1.4862
X2.4705Y-1.5453
X2.4902Y-0.9154
X2.4902Y-1.063
X2.4902Y-1.5157
X2.5197Y-0.7972
X2.5492Y-1.1319
X2.8248Y-1.1909
T3
X1.5236Y-1.3839
X1.5236Y-1.4311
X1.5669Y-1.3839
X1.5669Y-1.4311
X1.6181Y-1.3839
X1.6181Y-1.4311
X1.6654Y-1.3839
X1.6654Y-1.4311
T5
X2.188Y-0.5423
X2.288Y-0.5423
X2.388Y-0.5423
X2.6673Y-1.0008
X2.6673Y-1.1008
X2.6673Y-1.2008
X2.6673Y-1.3008
T6
X2.4989Y-1.8685
X2.4989Y-2.0685
T4
G00X1.3484Y-1.7984
M15
G01X1.3248Y-1.7984
M16
G05
G00X1.3484Y-2.1386
M15
G01X1.3248Y-2.1386
M16
G05
G00X1.5228Y-1.7984
M15
G01X1.4795Y-1.7984
M16
G05
G00X1.5228Y-2.1386
M15
G01X1.4795Y-2.1386
M16
G05
T0
M30
