%TF.GenerationSoftware,KiCad,Pcbnew,(7.0.0)*%
%TF.CreationDate,2023-10-01T16:50:46+07:00*%
%TF.ProjectId,CYPD3177,43595044-3331-4373-972e-6b696361645f,rev?*%
%TF.SameCoordinates,Original*%
%TF.FileFunction,Legend,Top*%
%TF.FilePolarity,Positive*%
%FSLAX46Y46*%
G04 Gerber Fmt 4.6, Leading zero omitted, Abs format (unit mm)*
G04 Created by KiCad (PCBNEW (7.0.0)) date 2023-10-01 16:50:46*
%MOMM*%
%LPD*%
G01*
G04 APERTURE LIST*
G04 Aperture macros list*
%AMRoundRect*
0 Rectangle with rounded corners*
0 $1 Rounding radius*
0 $2 $3 $4 $5 $6 $7 $8 $9 X,Y pos of 4 corners*
0 Add a 4 corners polygon primitive as box body*
4,1,4,$2,$3,$4,$5,$6,$7,$8,$9,$2,$3,0*
0 Add four circle primitives for the rounded corners*
1,1,$1+$1,$2,$3*
1,1,$1+$1,$4,$5*
1,1,$1+$1,$6,$7*
1,1,$1+$1,$8,$9*
0 Add four rect primitives between the rounded corners*
20,1,$1+$1,$2,$3,$4,$5,0*
20,1,$1+$1,$4,$5,$6,$7,0*
20,1,$1+$1,$6,$7,$8,$9,0*
20,1,$1+$1,$8,$9,$2,$3,0*%
G04 Aperture macros list end*
%ADD10C,0.110000*%
%ADD11C,0.120000*%
%ADD12C,0.130000*%
%ADD13C,0.100000*%
%ADD14C,0.150000*%
%ADD15C,0.040000*%
%ADD16RoundRect,0.200000X0.200000X0.275000X-0.200000X0.275000X-0.200000X-0.275000X0.200000X-0.275000X0*%
%ADD17RoundRect,0.250000X0.475000X-0.250000X0.475000X0.250000X-0.475000X0.250000X-0.475000X-0.250000X0*%
%ADD18RoundRect,0.200000X-0.275000X0.200000X-0.275000X-0.200000X0.275000X-0.200000X0.275000X0.200000X0*%
%ADD19RoundRect,0.225000X0.225000X0.250000X-0.225000X0.250000X-0.225000X-0.250000X0.225000X-0.250000X0*%
%ADD20RoundRect,0.225000X-0.225000X-0.250000X0.225000X-0.250000X0.225000X0.250000X-0.225000X0.250000X0*%
%ADD21RoundRect,0.200000X-0.200000X-0.275000X0.200000X-0.275000X0.200000X0.275000X-0.200000X0.275000X0*%
%ADD22C,3.200000*%
%ADD23RoundRect,0.250000X0.250000X0.475000X-0.250000X0.475000X-0.250000X-0.475000X0.250000X-0.475000X0*%
%ADD24R,1.700000X0.900000*%
%ADD25RoundRect,0.225000X-0.250000X0.225000X-0.250000X-0.225000X0.250000X-0.225000X0.250000X0.225000X0*%
%ADD26R,1.700000X1.700000*%
%ADD27O,1.700000X1.700000*%
%ADD28RoundRect,0.150000X-0.587500X-0.150000X0.587500X-0.150000X0.587500X0.150000X-0.587500X0.150000X0*%
%ADD29RoundRect,0.249999X1.550001X-0.790001X1.550001X0.790001X-1.550001X0.790001X-1.550001X-0.790001X0*%
%ADD30O,3.600000X2.080000*%
%ADD31R,1.200000X1.400000*%
%ADD32RoundRect,0.200000X0.275000X-0.200000X0.275000X0.200000X-0.275000X0.200000X-0.275000X-0.200000X0*%
%ADD33R,0.600000X1.550000*%
%ADD34R,3.100000X2.600000*%
%ADD35RoundRect,0.150000X-0.725000X-0.150000X0.725000X-0.150000X0.725000X0.150000X-0.725000X0.150000X0*%
%ADD36RoundRect,0.218750X-0.218750X-0.256250X0.218750X-0.256250X0.218750X0.256250X-0.218750X0.256250X0*%
%ADD37R,0.900000X1.700000*%
%ADD38RoundRect,0.250000X0.650000X-1.000000X0.650000X1.000000X-0.650000X1.000000X-0.650000X-1.000000X0*%
%ADD39C,0.650000*%
%ADD40R,1.450000X0.600000*%
%ADD41R,1.450000X0.300000*%
%ADD42O,2.100000X1.000000*%
%ADD43O,1.600000X1.000000*%
%ADD44R,2.350000X3.500000*%
%ADD45RoundRect,0.250000X-0.475000X0.250000X-0.475000X-0.250000X0.475000X-0.250000X0.475000X0.250000X0*%
%ADD46RoundRect,0.150000X0.150000X-0.650000X0.150000X0.650000X-0.150000X0.650000X-0.150000X-0.650000X0*%
%ADD47RoundRect,0.062500X0.375000X0.062500X-0.375000X0.062500X-0.375000X-0.062500X0.375000X-0.062500X0*%
%ADD48RoundRect,0.062500X0.062500X0.375000X-0.062500X0.375000X-0.062500X-0.375000X0.062500X-0.375000X0*%
%ADD49R,2.500000X2.500000*%
%ADD50RoundRect,0.050000X0.050000X-0.387500X0.050000X0.387500X-0.050000X0.387500X-0.050000X-0.387500X0*%
%ADD51RoundRect,0.050000X0.387500X-0.050000X0.387500X0.050000X-0.387500X0.050000X-0.387500X-0.050000X0*%
%ADD52R,3.200000X3.200000*%
G04 APERTURE END LIST*
D10*
X71816667Y-38057166D02*
X71950000Y-38057166D01*
X71950000Y-38057166D02*
X72016667Y-38090500D01*
X72016667Y-38090500D02*
X72083333Y-38157166D01*
X72083333Y-38157166D02*
X72116667Y-38290500D01*
X72116667Y-38290500D02*
X72116667Y-38523833D01*
X72116667Y-38523833D02*
X72083333Y-38657166D01*
X72083333Y-38657166D02*
X72016667Y-38723833D01*
X72016667Y-38723833D02*
X71950000Y-38757166D01*
X71950000Y-38757166D02*
X71816667Y-38757166D01*
X71816667Y-38757166D02*
X71750000Y-38723833D01*
X71750000Y-38723833D02*
X71683333Y-38657166D01*
X71683333Y-38657166D02*
X71650000Y-38523833D01*
X71650000Y-38523833D02*
X71650000Y-38290500D01*
X71650000Y-38290500D02*
X71683333Y-38157166D01*
X71683333Y-38157166D02*
X71750000Y-38090500D01*
X71750000Y-38090500D02*
X71816667Y-38057166D01*
X72416666Y-38757166D02*
X72416666Y-38057166D01*
X72416666Y-38057166D02*
X72816666Y-38757166D01*
X72816666Y-38757166D02*
X72816666Y-38057166D01*
D11*
X69761904Y-29897857D02*
X69761904Y-32183571D01*
X70142857Y-31612142D02*
X69761904Y-32183571D01*
X69761904Y-32183571D02*
X69380952Y-31612142D01*
X40300001Y-22640500D02*
X40400001Y-22673833D01*
X40400001Y-22673833D02*
X40433334Y-22707166D01*
X40433334Y-22707166D02*
X40466667Y-22773833D01*
X40466667Y-22773833D02*
X40466667Y-22873833D01*
X40466667Y-22873833D02*
X40433334Y-22940500D01*
X40433334Y-22940500D02*
X40400001Y-22973833D01*
X40400001Y-22973833D02*
X40333334Y-23007166D01*
X40333334Y-23007166D02*
X40066667Y-23007166D01*
X40066667Y-23007166D02*
X40066667Y-22307166D01*
X40066667Y-22307166D02*
X40300001Y-22307166D01*
X40300001Y-22307166D02*
X40366667Y-22340500D01*
X40366667Y-22340500D02*
X40400001Y-22373833D01*
X40400001Y-22373833D02*
X40433334Y-22440500D01*
X40433334Y-22440500D02*
X40433334Y-22507166D01*
X40433334Y-22507166D02*
X40400001Y-22573833D01*
X40400001Y-22573833D02*
X40366667Y-22607166D01*
X40366667Y-22607166D02*
X40300001Y-22640500D01*
X40300001Y-22640500D02*
X40066667Y-22640500D01*
X40900001Y-22307166D02*
X41033334Y-22307166D01*
X41033334Y-22307166D02*
X41100001Y-22340500D01*
X41100001Y-22340500D02*
X41166667Y-22407166D01*
X41166667Y-22407166D02*
X41200001Y-22540500D01*
X41200001Y-22540500D02*
X41200001Y-22773833D01*
X41200001Y-22773833D02*
X41166667Y-22907166D01*
X41166667Y-22907166D02*
X41100001Y-22973833D01*
X41100001Y-22973833D02*
X41033334Y-23007166D01*
X41033334Y-23007166D02*
X40900001Y-23007166D01*
X40900001Y-23007166D02*
X40833334Y-22973833D01*
X40833334Y-22973833D02*
X40766667Y-22907166D01*
X40766667Y-22907166D02*
X40733334Y-22773833D01*
X40733334Y-22773833D02*
X40733334Y-22540500D01*
X40733334Y-22540500D02*
X40766667Y-22407166D01*
X40766667Y-22407166D02*
X40833334Y-22340500D01*
X40833334Y-22340500D02*
X40900001Y-22307166D01*
X41633334Y-22307166D02*
X41766667Y-22307166D01*
X41766667Y-22307166D02*
X41833334Y-22340500D01*
X41833334Y-22340500D02*
X41900000Y-22407166D01*
X41900000Y-22407166D02*
X41933334Y-22540500D01*
X41933334Y-22540500D02*
X41933334Y-22773833D01*
X41933334Y-22773833D02*
X41900000Y-22907166D01*
X41900000Y-22907166D02*
X41833334Y-22973833D01*
X41833334Y-22973833D02*
X41766667Y-23007166D01*
X41766667Y-23007166D02*
X41633334Y-23007166D01*
X41633334Y-23007166D02*
X41566667Y-22973833D01*
X41566667Y-22973833D02*
X41500000Y-22907166D01*
X41500000Y-22907166D02*
X41466667Y-22773833D01*
X41466667Y-22773833D02*
X41466667Y-22540500D01*
X41466667Y-22540500D02*
X41500000Y-22407166D01*
X41500000Y-22407166D02*
X41566667Y-22340500D01*
X41566667Y-22340500D02*
X41633334Y-22307166D01*
X42133333Y-22307166D02*
X42533333Y-22307166D01*
X42333333Y-23007166D02*
X42333333Y-22307166D01*
D10*
X71133334Y-42890500D02*
X70900000Y-42890500D01*
X70900000Y-43257166D02*
X70900000Y-42557166D01*
X70900000Y-42557166D02*
X71233334Y-42557166D01*
X71466667Y-43057166D02*
X71800000Y-43057166D01*
X71400000Y-43257166D02*
X71633334Y-42557166D01*
X71633334Y-42557166D02*
X71866667Y-43257166D01*
X72100000Y-42557166D02*
X72100000Y-43123833D01*
X72100000Y-43123833D02*
X72133334Y-43190500D01*
X72133334Y-43190500D02*
X72166667Y-43223833D01*
X72166667Y-43223833D02*
X72233334Y-43257166D01*
X72233334Y-43257166D02*
X72366667Y-43257166D01*
X72366667Y-43257166D02*
X72433334Y-43223833D01*
X72433334Y-43223833D02*
X72466667Y-43190500D01*
X72466667Y-43190500D02*
X72500000Y-43123833D01*
X72500000Y-43123833D02*
X72500000Y-42557166D01*
X73166667Y-43257166D02*
X72833333Y-43257166D01*
X72833333Y-43257166D02*
X72833333Y-42557166D01*
X73300000Y-42557166D02*
X73700000Y-42557166D01*
X73500000Y-43257166D02*
X73500000Y-42557166D01*
D11*
X62983333Y-23007166D02*
X62750000Y-22673833D01*
X62583333Y-23007166D02*
X62583333Y-22307166D01*
X62583333Y-22307166D02*
X62850000Y-22307166D01*
X62850000Y-22307166D02*
X62916667Y-22340500D01*
X62916667Y-22340500D02*
X62950000Y-22373833D01*
X62950000Y-22373833D02*
X62983333Y-22440500D01*
X62983333Y-22440500D02*
X62983333Y-22540500D01*
X62983333Y-22540500D02*
X62950000Y-22607166D01*
X62950000Y-22607166D02*
X62916667Y-22640500D01*
X62916667Y-22640500D02*
X62850000Y-22673833D01*
X62850000Y-22673833D02*
X62583333Y-22673833D01*
X63283333Y-22640500D02*
X63516667Y-22640500D01*
X63616667Y-23007166D02*
X63283333Y-23007166D01*
X63283333Y-23007166D02*
X63283333Y-22307166D01*
X63283333Y-22307166D02*
X63616667Y-22307166D01*
X63883333Y-22973833D02*
X63983333Y-23007166D01*
X63983333Y-23007166D02*
X64150000Y-23007166D01*
X64150000Y-23007166D02*
X64216666Y-22973833D01*
X64216666Y-22973833D02*
X64250000Y-22940500D01*
X64250000Y-22940500D02*
X64283333Y-22873833D01*
X64283333Y-22873833D02*
X64283333Y-22807166D01*
X64283333Y-22807166D02*
X64250000Y-22740500D01*
X64250000Y-22740500D02*
X64216666Y-22707166D01*
X64216666Y-22707166D02*
X64150000Y-22673833D01*
X64150000Y-22673833D02*
X64016666Y-22640500D01*
X64016666Y-22640500D02*
X63950000Y-22607166D01*
X63950000Y-22607166D02*
X63916666Y-22573833D01*
X63916666Y-22573833D02*
X63883333Y-22507166D01*
X63883333Y-22507166D02*
X63883333Y-22440500D01*
X63883333Y-22440500D02*
X63916666Y-22373833D01*
X63916666Y-22373833D02*
X63950000Y-22340500D01*
X63950000Y-22340500D02*
X64016666Y-22307166D01*
X64016666Y-22307166D02*
X64183333Y-22307166D01*
X64183333Y-22307166D02*
X64283333Y-22340500D01*
X64583333Y-22640500D02*
X64816667Y-22640500D01*
X64916667Y-23007166D02*
X64583333Y-23007166D01*
X64583333Y-23007166D02*
X64583333Y-22307166D01*
X64583333Y-22307166D02*
X64916667Y-22307166D01*
X65116666Y-22307166D02*
X65516666Y-22307166D01*
X65316666Y-23007166D02*
X65316666Y-22307166D01*
X65150000Y-36723833D02*
X65250000Y-36757166D01*
X65250000Y-36757166D02*
X65416667Y-36757166D01*
X65416667Y-36757166D02*
X65483333Y-36723833D01*
X65483333Y-36723833D02*
X65516667Y-36690500D01*
X65516667Y-36690500D02*
X65550000Y-36623833D01*
X65550000Y-36623833D02*
X65550000Y-36557166D01*
X65550000Y-36557166D02*
X65516667Y-36490500D01*
X65516667Y-36490500D02*
X65483333Y-36457166D01*
X65483333Y-36457166D02*
X65416667Y-36423833D01*
X65416667Y-36423833D02*
X65283333Y-36390500D01*
X65283333Y-36390500D02*
X65216667Y-36357166D01*
X65216667Y-36357166D02*
X65183333Y-36323833D01*
X65183333Y-36323833D02*
X65150000Y-36257166D01*
X65150000Y-36257166D02*
X65150000Y-36190500D01*
X65150000Y-36190500D02*
X65183333Y-36123833D01*
X65183333Y-36123833D02*
X65216667Y-36090500D01*
X65216667Y-36090500D02*
X65283333Y-36057166D01*
X65283333Y-36057166D02*
X65450000Y-36057166D01*
X65450000Y-36057166D02*
X65550000Y-36090500D01*
X65850000Y-36390500D02*
X66083334Y-36390500D01*
X66183334Y-36757166D02*
X65850000Y-36757166D01*
X65850000Y-36757166D02*
X65850000Y-36057166D01*
X65850000Y-36057166D02*
X66183334Y-36057166D01*
X66816667Y-36757166D02*
X66483333Y-36757166D01*
X66483333Y-36757166D02*
X66483333Y-36057166D01*
X67050000Y-36390500D02*
X67283334Y-36390500D01*
X67383334Y-36757166D02*
X67050000Y-36757166D01*
X67050000Y-36757166D02*
X67050000Y-36057166D01*
X67050000Y-36057166D02*
X67383334Y-36057166D01*
X68083333Y-36690500D02*
X68050000Y-36723833D01*
X68050000Y-36723833D02*
X67950000Y-36757166D01*
X67950000Y-36757166D02*
X67883333Y-36757166D01*
X67883333Y-36757166D02*
X67783333Y-36723833D01*
X67783333Y-36723833D02*
X67716667Y-36657166D01*
X67716667Y-36657166D02*
X67683333Y-36590500D01*
X67683333Y-36590500D02*
X67650000Y-36457166D01*
X67650000Y-36457166D02*
X67650000Y-36357166D01*
X67650000Y-36357166D02*
X67683333Y-36223833D01*
X67683333Y-36223833D02*
X67716667Y-36157166D01*
X67716667Y-36157166D02*
X67783333Y-36090500D01*
X67783333Y-36090500D02*
X67883333Y-36057166D01*
X67883333Y-36057166D02*
X67950000Y-36057166D01*
X67950000Y-36057166D02*
X68050000Y-36090500D01*
X68050000Y-36090500D02*
X68083333Y-36123833D01*
X68283333Y-36057166D02*
X68683333Y-36057166D01*
X68483333Y-36757166D02*
X68483333Y-36057166D01*
D12*
X35235807Y-53754361D02*
X35816378Y-53754361D01*
X35816378Y-53754361D02*
X35932492Y-53793066D01*
X35932492Y-53793066D02*
X36009902Y-53870475D01*
X36009902Y-53870475D02*
X36048607Y-53986590D01*
X36048607Y-53986590D02*
X36048607Y-54063999D01*
X36048607Y-52980266D02*
X36048607Y-53367314D01*
X36048607Y-53367314D02*
X35235807Y-53367314D01*
X35971197Y-52244876D02*
X36009902Y-52283580D01*
X36009902Y-52283580D02*
X36048607Y-52399695D01*
X36048607Y-52399695D02*
X36048607Y-52477104D01*
X36048607Y-52477104D02*
X36009902Y-52593218D01*
X36009902Y-52593218D02*
X35932492Y-52670628D01*
X35932492Y-52670628D02*
X35855083Y-52709333D01*
X35855083Y-52709333D02*
X35700264Y-52748037D01*
X35700264Y-52748037D02*
X35584150Y-52748037D01*
X35584150Y-52748037D02*
X35429331Y-52709333D01*
X35429331Y-52709333D02*
X35351921Y-52670628D01*
X35351921Y-52670628D02*
X35274512Y-52593218D01*
X35274512Y-52593218D02*
X35235807Y-52477104D01*
X35235807Y-52477104D02*
X35235807Y-52399695D01*
X35235807Y-52399695D02*
X35274512Y-52283580D01*
X35274512Y-52283580D02*
X35313216Y-52244876D01*
X35235807Y-51664304D02*
X35816378Y-51664304D01*
X35816378Y-51664304D02*
X35932492Y-51703009D01*
X35932492Y-51703009D02*
X36009902Y-51780418D01*
X36009902Y-51780418D02*
X36048607Y-51896533D01*
X36048607Y-51896533D02*
X36048607Y-51973942D01*
X36048607Y-50890209D02*
X36048607Y-51277257D01*
X36048607Y-51277257D02*
X35235807Y-51277257D01*
X35971197Y-50154819D02*
X36009902Y-50193523D01*
X36009902Y-50193523D02*
X36048607Y-50309638D01*
X36048607Y-50309638D02*
X36048607Y-50387047D01*
X36048607Y-50387047D02*
X36009902Y-50503161D01*
X36009902Y-50503161D02*
X35932492Y-50580571D01*
X35932492Y-50580571D02*
X35855083Y-50619276D01*
X35855083Y-50619276D02*
X35700264Y-50657980D01*
X35700264Y-50657980D02*
X35584150Y-50657980D01*
X35584150Y-50657980D02*
X35429331Y-50619276D01*
X35429331Y-50619276D02*
X35351921Y-50580571D01*
X35351921Y-50580571D02*
X35274512Y-50503161D01*
X35274512Y-50503161D02*
X35235807Y-50387047D01*
X35235807Y-50387047D02*
X35235807Y-50309638D01*
X35235807Y-50309638D02*
X35274512Y-50193523D01*
X35274512Y-50193523D02*
X35313216Y-50154819D01*
X35235807Y-49574247D02*
X35816378Y-49574247D01*
X35816378Y-49574247D02*
X35932492Y-49612952D01*
X35932492Y-49612952D02*
X36009902Y-49690361D01*
X36009902Y-49690361D02*
X36048607Y-49806476D01*
X36048607Y-49806476D02*
X36048607Y-49883885D01*
X36048607Y-48800152D02*
X36048607Y-49187200D01*
X36048607Y-49187200D02*
X35235807Y-49187200D01*
X35971197Y-48064762D02*
X36009902Y-48103466D01*
X36009902Y-48103466D02*
X36048607Y-48219581D01*
X36048607Y-48219581D02*
X36048607Y-48296990D01*
X36048607Y-48296990D02*
X36009902Y-48413104D01*
X36009902Y-48413104D02*
X35932492Y-48490514D01*
X35932492Y-48490514D02*
X35855083Y-48529219D01*
X35855083Y-48529219D02*
X35700264Y-48567923D01*
X35700264Y-48567923D02*
X35584150Y-48567923D01*
X35584150Y-48567923D02*
X35429331Y-48529219D01*
X35429331Y-48529219D02*
X35351921Y-48490514D01*
X35351921Y-48490514D02*
X35274512Y-48413104D01*
X35274512Y-48413104D02*
X35235807Y-48296990D01*
X35235807Y-48296990D02*
X35235807Y-48219581D01*
X35235807Y-48219581D02*
X35274512Y-48103466D01*
X35274512Y-48103466D02*
X35313216Y-48064762D01*
X35235807Y-47484190D02*
X35816378Y-47484190D01*
X35816378Y-47484190D02*
X35932492Y-47522895D01*
X35932492Y-47522895D02*
X36009902Y-47600304D01*
X36009902Y-47600304D02*
X36048607Y-47716419D01*
X36048607Y-47716419D02*
X36048607Y-47793828D01*
X36048607Y-46710095D02*
X36048607Y-47097143D01*
X36048607Y-47097143D02*
X35235807Y-47097143D01*
X35971197Y-45974705D02*
X36009902Y-46013409D01*
X36009902Y-46013409D02*
X36048607Y-46129524D01*
X36048607Y-46129524D02*
X36048607Y-46206933D01*
X36048607Y-46206933D02*
X36009902Y-46323047D01*
X36009902Y-46323047D02*
X35932492Y-46400457D01*
X35932492Y-46400457D02*
X35855083Y-46439162D01*
X35855083Y-46439162D02*
X35700264Y-46477866D01*
X35700264Y-46477866D02*
X35584150Y-46477866D01*
X35584150Y-46477866D02*
X35429331Y-46439162D01*
X35429331Y-46439162D02*
X35351921Y-46400457D01*
X35351921Y-46400457D02*
X35274512Y-46323047D01*
X35274512Y-46323047D02*
X35235807Y-46206933D01*
X35235807Y-46206933D02*
X35235807Y-46129524D01*
X35235807Y-46129524D02*
X35274512Y-46013409D01*
X35274512Y-46013409D02*
X35313216Y-45974705D01*
D11*
X69761905Y-27102142D02*
X69761905Y-24816428D01*
X69380952Y-25387857D02*
X69761905Y-24816428D01*
X69761905Y-24816428D02*
X70142857Y-25387857D01*
D13*
%TO.C,R5*%
X57650000Y-56970428D02*
X57450000Y-56684714D01*
X57307143Y-56970428D02*
X57307143Y-56370428D01*
X57307143Y-56370428D02*
X57535714Y-56370428D01*
X57535714Y-56370428D02*
X57592857Y-56399000D01*
X57592857Y-56399000D02*
X57621428Y-56427571D01*
X57621428Y-56427571D02*
X57650000Y-56484714D01*
X57650000Y-56484714D02*
X57650000Y-56570428D01*
X57650000Y-56570428D02*
X57621428Y-56627571D01*
X57621428Y-56627571D02*
X57592857Y-56656142D01*
X57592857Y-56656142D02*
X57535714Y-56684714D01*
X57535714Y-56684714D02*
X57307143Y-56684714D01*
X58192857Y-56370428D02*
X57907143Y-56370428D01*
X57907143Y-56370428D02*
X57878571Y-56656142D01*
X57878571Y-56656142D02*
X57907143Y-56627571D01*
X57907143Y-56627571D02*
X57964286Y-56599000D01*
X57964286Y-56599000D02*
X58107143Y-56599000D01*
X58107143Y-56599000D02*
X58164286Y-56627571D01*
X58164286Y-56627571D02*
X58192857Y-56656142D01*
X58192857Y-56656142D02*
X58221428Y-56713285D01*
X58221428Y-56713285D02*
X58221428Y-56856142D01*
X58221428Y-56856142D02*
X58192857Y-56913285D01*
X58192857Y-56913285D02*
X58164286Y-56941857D01*
X58164286Y-56941857D02*
X58107143Y-56970428D01*
X58107143Y-56970428D02*
X57964286Y-56970428D01*
X57964286Y-56970428D02*
X57907143Y-56941857D01*
X57907143Y-56941857D02*
X57878571Y-56913285D01*
%TO.C,C8*%
X57400000Y-58413285D02*
X57371428Y-58441857D01*
X57371428Y-58441857D02*
X57285714Y-58470428D01*
X57285714Y-58470428D02*
X57228571Y-58470428D01*
X57228571Y-58470428D02*
X57142857Y-58441857D01*
X57142857Y-58441857D02*
X57085714Y-58384714D01*
X57085714Y-58384714D02*
X57057143Y-58327571D01*
X57057143Y-58327571D02*
X57028571Y-58213285D01*
X57028571Y-58213285D02*
X57028571Y-58127571D01*
X57028571Y-58127571D02*
X57057143Y-58013285D01*
X57057143Y-58013285D02*
X57085714Y-57956142D01*
X57085714Y-57956142D02*
X57142857Y-57899000D01*
X57142857Y-57899000D02*
X57228571Y-57870428D01*
X57228571Y-57870428D02*
X57285714Y-57870428D01*
X57285714Y-57870428D02*
X57371428Y-57899000D01*
X57371428Y-57899000D02*
X57400000Y-57927571D01*
X57742857Y-58127571D02*
X57685714Y-58099000D01*
X57685714Y-58099000D02*
X57657143Y-58070428D01*
X57657143Y-58070428D02*
X57628571Y-58013285D01*
X57628571Y-58013285D02*
X57628571Y-57984714D01*
X57628571Y-57984714D02*
X57657143Y-57927571D01*
X57657143Y-57927571D02*
X57685714Y-57899000D01*
X57685714Y-57899000D02*
X57742857Y-57870428D01*
X57742857Y-57870428D02*
X57857143Y-57870428D01*
X57857143Y-57870428D02*
X57914286Y-57899000D01*
X57914286Y-57899000D02*
X57942857Y-57927571D01*
X57942857Y-57927571D02*
X57971428Y-57984714D01*
X57971428Y-57984714D02*
X57971428Y-58013285D01*
X57971428Y-58013285D02*
X57942857Y-58070428D01*
X57942857Y-58070428D02*
X57914286Y-58099000D01*
X57914286Y-58099000D02*
X57857143Y-58127571D01*
X57857143Y-58127571D02*
X57742857Y-58127571D01*
X57742857Y-58127571D02*
X57685714Y-58156142D01*
X57685714Y-58156142D02*
X57657143Y-58184714D01*
X57657143Y-58184714D02*
X57628571Y-58241857D01*
X57628571Y-58241857D02*
X57628571Y-58356142D01*
X57628571Y-58356142D02*
X57657143Y-58413285D01*
X57657143Y-58413285D02*
X57685714Y-58441857D01*
X57685714Y-58441857D02*
X57742857Y-58470428D01*
X57742857Y-58470428D02*
X57857143Y-58470428D01*
X57857143Y-58470428D02*
X57914286Y-58441857D01*
X57914286Y-58441857D02*
X57942857Y-58413285D01*
X57942857Y-58413285D02*
X57971428Y-58356142D01*
X57971428Y-58356142D02*
X57971428Y-58241857D01*
X57971428Y-58241857D02*
X57942857Y-58184714D01*
X57942857Y-58184714D02*
X57914286Y-58156142D01*
X57914286Y-58156142D02*
X57857143Y-58127571D01*
%TO.C,R4*%
X57400000Y-55470428D02*
X57200000Y-55184714D01*
X57057143Y-55470428D02*
X57057143Y-54870428D01*
X57057143Y-54870428D02*
X57285714Y-54870428D01*
X57285714Y-54870428D02*
X57342857Y-54899000D01*
X57342857Y-54899000D02*
X57371428Y-54927571D01*
X57371428Y-54927571D02*
X57400000Y-54984714D01*
X57400000Y-54984714D02*
X57400000Y-55070428D01*
X57400000Y-55070428D02*
X57371428Y-55127571D01*
X57371428Y-55127571D02*
X57342857Y-55156142D01*
X57342857Y-55156142D02*
X57285714Y-55184714D01*
X57285714Y-55184714D02*
X57057143Y-55184714D01*
X57914286Y-55070428D02*
X57914286Y-55470428D01*
X57771428Y-54841857D02*
X57628571Y-55270428D01*
X57628571Y-55270428D02*
X58000000Y-55270428D01*
D14*
%TO.C,J5*%
X52672380Y-9723333D02*
X53386666Y-9723333D01*
X53386666Y-9723333D02*
X53529523Y-9770952D01*
X53529523Y-9770952D02*
X53624761Y-9866190D01*
X53624761Y-9866190D02*
X53672380Y-10009047D01*
X53672380Y-10009047D02*
X53672380Y-10104285D01*
X52672380Y-8770952D02*
X52672380Y-9247142D01*
X52672380Y-9247142D02*
X53148571Y-9294761D01*
X53148571Y-9294761D02*
X53100952Y-9247142D01*
X53100952Y-9247142D02*
X53053333Y-9151904D01*
X53053333Y-9151904D02*
X53053333Y-8913809D01*
X53053333Y-8913809D02*
X53100952Y-8818571D01*
X53100952Y-8818571D02*
X53148571Y-8770952D01*
X53148571Y-8770952D02*
X53243809Y-8723333D01*
X53243809Y-8723333D02*
X53481904Y-8723333D01*
X53481904Y-8723333D02*
X53577142Y-8770952D01*
X53577142Y-8770952D02*
X53624761Y-8818571D01*
X53624761Y-8818571D02*
X53672380Y-8913809D01*
X53672380Y-8913809D02*
X53672380Y-9151904D01*
X53672380Y-9151904D02*
X53624761Y-9247142D01*
X53624761Y-9247142D02*
X53577142Y-9294761D01*
D13*
%TO.C,J2*%
X64620428Y-50200000D02*
X65049000Y-50200000D01*
X65049000Y-50200000D02*
X65134714Y-50228571D01*
X65134714Y-50228571D02*
X65191857Y-50285714D01*
X65191857Y-50285714D02*
X65220428Y-50371428D01*
X65220428Y-50371428D02*
X65220428Y-50428571D01*
X64677571Y-49942857D02*
X64649000Y-49914285D01*
X64649000Y-49914285D02*
X64620428Y-49857143D01*
X64620428Y-49857143D02*
X64620428Y-49714285D01*
X64620428Y-49714285D02*
X64649000Y-49657143D01*
X64649000Y-49657143D02*
X64677571Y-49628571D01*
X64677571Y-49628571D02*
X64734714Y-49600000D01*
X64734714Y-49600000D02*
X64791857Y-49600000D01*
X64791857Y-49600000D02*
X64877571Y-49628571D01*
X64877571Y-49628571D02*
X65220428Y-49971428D01*
X65220428Y-49971428D02*
X65220428Y-49600000D01*
%TO.C,Y1*%
X58534714Y-26535714D02*
X58820428Y-26535714D01*
X58220428Y-26735714D02*
X58534714Y-26535714D01*
X58534714Y-26535714D02*
X58220428Y-26335714D01*
X58820428Y-25821428D02*
X58820428Y-26164285D01*
X58820428Y-25992856D02*
X58220428Y-25992856D01*
X58220428Y-25992856D02*
X58306142Y-26049999D01*
X58306142Y-26049999D02*
X58363285Y-26107142D01*
X58363285Y-26107142D02*
X58391857Y-26164285D01*
%TO.C,R9*%
X57650000Y-43470428D02*
X57450000Y-43184714D01*
X57307143Y-43470428D02*
X57307143Y-42870428D01*
X57307143Y-42870428D02*
X57535714Y-42870428D01*
X57535714Y-42870428D02*
X57592857Y-42899000D01*
X57592857Y-42899000D02*
X57621428Y-42927571D01*
X57621428Y-42927571D02*
X57650000Y-42984714D01*
X57650000Y-42984714D02*
X57650000Y-43070428D01*
X57650000Y-43070428D02*
X57621428Y-43127571D01*
X57621428Y-43127571D02*
X57592857Y-43156142D01*
X57592857Y-43156142D02*
X57535714Y-43184714D01*
X57535714Y-43184714D02*
X57307143Y-43184714D01*
X57935714Y-43470428D02*
X58050000Y-43470428D01*
X58050000Y-43470428D02*
X58107143Y-43441857D01*
X58107143Y-43441857D02*
X58135714Y-43413285D01*
X58135714Y-43413285D02*
X58192857Y-43327571D01*
X58192857Y-43327571D02*
X58221428Y-43213285D01*
X58221428Y-43213285D02*
X58221428Y-42984714D01*
X58221428Y-42984714D02*
X58192857Y-42927571D01*
X58192857Y-42927571D02*
X58164286Y-42899000D01*
X58164286Y-42899000D02*
X58107143Y-42870428D01*
X58107143Y-42870428D02*
X57992857Y-42870428D01*
X57992857Y-42870428D02*
X57935714Y-42899000D01*
X57935714Y-42899000D02*
X57907143Y-42927571D01*
X57907143Y-42927571D02*
X57878571Y-42984714D01*
X57878571Y-42984714D02*
X57878571Y-43127571D01*
X57878571Y-43127571D02*
X57907143Y-43184714D01*
X57907143Y-43184714D02*
X57935714Y-43213285D01*
X57935714Y-43213285D02*
X57992857Y-43241857D01*
X57992857Y-43241857D02*
X58107143Y-43241857D01*
X58107143Y-43241857D02*
X58164286Y-43213285D01*
X58164286Y-43213285D02*
X58192857Y-43184714D01*
X58192857Y-43184714D02*
X58221428Y-43127571D01*
%TO.C,R6*%
X57400000Y-53970428D02*
X57200000Y-53684714D01*
X57057143Y-53970428D02*
X57057143Y-53370428D01*
X57057143Y-53370428D02*
X57285714Y-53370428D01*
X57285714Y-53370428D02*
X57342857Y-53399000D01*
X57342857Y-53399000D02*
X57371428Y-53427571D01*
X57371428Y-53427571D02*
X57400000Y-53484714D01*
X57400000Y-53484714D02*
X57400000Y-53570428D01*
X57400000Y-53570428D02*
X57371428Y-53627571D01*
X57371428Y-53627571D02*
X57342857Y-53656142D01*
X57342857Y-53656142D02*
X57285714Y-53684714D01*
X57285714Y-53684714D02*
X57057143Y-53684714D01*
X57914286Y-53370428D02*
X57800000Y-53370428D01*
X57800000Y-53370428D02*
X57742857Y-53399000D01*
X57742857Y-53399000D02*
X57714286Y-53427571D01*
X57714286Y-53427571D02*
X57657143Y-53513285D01*
X57657143Y-53513285D02*
X57628571Y-53627571D01*
X57628571Y-53627571D02*
X57628571Y-53856142D01*
X57628571Y-53856142D02*
X57657143Y-53913285D01*
X57657143Y-53913285D02*
X57685714Y-53941857D01*
X57685714Y-53941857D02*
X57742857Y-53970428D01*
X57742857Y-53970428D02*
X57857143Y-53970428D01*
X57857143Y-53970428D02*
X57914286Y-53941857D01*
X57914286Y-53941857D02*
X57942857Y-53913285D01*
X57942857Y-53913285D02*
X57971428Y-53856142D01*
X57971428Y-53856142D02*
X57971428Y-53713285D01*
X57971428Y-53713285D02*
X57942857Y-53656142D01*
X57942857Y-53656142D02*
X57914286Y-53627571D01*
X57914286Y-53627571D02*
X57857143Y-53599000D01*
X57857143Y-53599000D02*
X57742857Y-53599000D01*
X57742857Y-53599000D02*
X57685714Y-53627571D01*
X57685714Y-53627571D02*
X57657143Y-53656142D01*
X57657143Y-53656142D02*
X57628571Y-53713285D01*
%TO.C,R15*%
X57364285Y-49470428D02*
X57164285Y-49184714D01*
X57021428Y-49470428D02*
X57021428Y-48870428D01*
X57021428Y-48870428D02*
X57249999Y-48870428D01*
X57249999Y-48870428D02*
X57307142Y-48899000D01*
X57307142Y-48899000D02*
X57335713Y-48927571D01*
X57335713Y-48927571D02*
X57364285Y-48984714D01*
X57364285Y-48984714D02*
X57364285Y-49070428D01*
X57364285Y-49070428D02*
X57335713Y-49127571D01*
X57335713Y-49127571D02*
X57307142Y-49156142D01*
X57307142Y-49156142D02*
X57249999Y-49184714D01*
X57249999Y-49184714D02*
X57021428Y-49184714D01*
X57935713Y-49470428D02*
X57592856Y-49470428D01*
X57764285Y-49470428D02*
X57764285Y-48870428D01*
X57764285Y-48870428D02*
X57707142Y-48956142D01*
X57707142Y-48956142D02*
X57649999Y-49013285D01*
X57649999Y-49013285D02*
X57592856Y-49041857D01*
X58478571Y-48870428D02*
X58192857Y-48870428D01*
X58192857Y-48870428D02*
X58164285Y-49156142D01*
X58164285Y-49156142D02*
X58192857Y-49127571D01*
X58192857Y-49127571D02*
X58250000Y-49099000D01*
X58250000Y-49099000D02*
X58392857Y-49099000D01*
X58392857Y-49099000D02*
X58450000Y-49127571D01*
X58450000Y-49127571D02*
X58478571Y-49156142D01*
X58478571Y-49156142D02*
X58507142Y-49213285D01*
X58507142Y-49213285D02*
X58507142Y-49356142D01*
X58507142Y-49356142D02*
X58478571Y-49413285D01*
X58478571Y-49413285D02*
X58450000Y-49441857D01*
X58450000Y-49441857D02*
X58392857Y-49470428D01*
X58392857Y-49470428D02*
X58250000Y-49470428D01*
X58250000Y-49470428D02*
X58192857Y-49441857D01*
X58192857Y-49441857D02*
X58164285Y-49413285D01*
%TO.C,R10*%
X57364285Y-46470428D02*
X57164285Y-46184714D01*
X57021428Y-46470428D02*
X57021428Y-45870428D01*
X57021428Y-45870428D02*
X57249999Y-45870428D01*
X57249999Y-45870428D02*
X57307142Y-45899000D01*
X57307142Y-45899000D02*
X57335713Y-45927571D01*
X57335713Y-45927571D02*
X57364285Y-45984714D01*
X57364285Y-45984714D02*
X57364285Y-46070428D01*
X57364285Y-46070428D02*
X57335713Y-46127571D01*
X57335713Y-46127571D02*
X57307142Y-46156142D01*
X57307142Y-46156142D02*
X57249999Y-46184714D01*
X57249999Y-46184714D02*
X57021428Y-46184714D01*
X57935713Y-46470428D02*
X57592856Y-46470428D01*
X57764285Y-46470428D02*
X57764285Y-45870428D01*
X57764285Y-45870428D02*
X57707142Y-45956142D01*
X57707142Y-45956142D02*
X57649999Y-46013285D01*
X57649999Y-46013285D02*
X57592856Y-46041857D01*
X58307142Y-45870428D02*
X58364285Y-45870428D01*
X58364285Y-45870428D02*
X58421428Y-45899000D01*
X58421428Y-45899000D02*
X58450000Y-45927571D01*
X58450000Y-45927571D02*
X58478571Y-45984714D01*
X58478571Y-45984714D02*
X58507142Y-46099000D01*
X58507142Y-46099000D02*
X58507142Y-46241857D01*
X58507142Y-46241857D02*
X58478571Y-46356142D01*
X58478571Y-46356142D02*
X58450000Y-46413285D01*
X58450000Y-46413285D02*
X58421428Y-46441857D01*
X58421428Y-46441857D02*
X58364285Y-46470428D01*
X58364285Y-46470428D02*
X58307142Y-46470428D01*
X58307142Y-46470428D02*
X58250000Y-46441857D01*
X58250000Y-46441857D02*
X58221428Y-46413285D01*
X58221428Y-46413285D02*
X58192857Y-46356142D01*
X58192857Y-46356142D02*
X58164285Y-46241857D01*
X58164285Y-46241857D02*
X58164285Y-46099000D01*
X58164285Y-46099000D02*
X58192857Y-45984714D01*
X58192857Y-45984714D02*
X58221428Y-45927571D01*
X58221428Y-45927571D02*
X58250000Y-45899000D01*
X58250000Y-45899000D02*
X58307142Y-45870428D01*
%TO.C,R7*%
X57650000Y-52470428D02*
X57450000Y-52184714D01*
X57307143Y-52470428D02*
X57307143Y-51870428D01*
X57307143Y-51870428D02*
X57535714Y-51870428D01*
X57535714Y-51870428D02*
X57592857Y-51899000D01*
X57592857Y-51899000D02*
X57621428Y-51927571D01*
X57621428Y-51927571D02*
X57650000Y-51984714D01*
X57650000Y-51984714D02*
X57650000Y-52070428D01*
X57650000Y-52070428D02*
X57621428Y-52127571D01*
X57621428Y-52127571D02*
X57592857Y-52156142D01*
X57592857Y-52156142D02*
X57535714Y-52184714D01*
X57535714Y-52184714D02*
X57307143Y-52184714D01*
X57850000Y-51870428D02*
X58250000Y-51870428D01*
X58250000Y-51870428D02*
X57992857Y-52470428D01*
%TO.C,R17*%
X57364285Y-50970428D02*
X57164285Y-50684714D01*
X57021428Y-50970428D02*
X57021428Y-50370428D01*
X57021428Y-50370428D02*
X57249999Y-50370428D01*
X57249999Y-50370428D02*
X57307142Y-50399000D01*
X57307142Y-50399000D02*
X57335713Y-50427571D01*
X57335713Y-50427571D02*
X57364285Y-50484714D01*
X57364285Y-50484714D02*
X57364285Y-50570428D01*
X57364285Y-50570428D02*
X57335713Y-50627571D01*
X57335713Y-50627571D02*
X57307142Y-50656142D01*
X57307142Y-50656142D02*
X57249999Y-50684714D01*
X57249999Y-50684714D02*
X57021428Y-50684714D01*
X57935713Y-50970428D02*
X57592856Y-50970428D01*
X57764285Y-50970428D02*
X57764285Y-50370428D01*
X57764285Y-50370428D02*
X57707142Y-50456142D01*
X57707142Y-50456142D02*
X57649999Y-50513285D01*
X57649999Y-50513285D02*
X57592856Y-50541857D01*
X58135714Y-50370428D02*
X58535714Y-50370428D01*
X58535714Y-50370428D02*
X58278571Y-50970428D01*
%TO.C,U1*%
X49542857Y-46620428D02*
X49542857Y-47106142D01*
X49542857Y-47106142D02*
X49571428Y-47163285D01*
X49571428Y-47163285D02*
X49600000Y-47191857D01*
X49600000Y-47191857D02*
X49657142Y-47220428D01*
X49657142Y-47220428D02*
X49771428Y-47220428D01*
X49771428Y-47220428D02*
X49828571Y-47191857D01*
X49828571Y-47191857D02*
X49857142Y-47163285D01*
X49857142Y-47163285D02*
X49885714Y-47106142D01*
X49885714Y-47106142D02*
X49885714Y-46620428D01*
X50485713Y-47220428D02*
X50142856Y-47220428D01*
X50314285Y-47220428D02*
X50314285Y-46620428D01*
X50314285Y-46620428D02*
X50257142Y-46706142D01*
X50257142Y-46706142D02*
X50199999Y-46763285D01*
X50199999Y-46763285D02*
X50142856Y-46791857D01*
%TO.C,R8*%
X57400000Y-44970428D02*
X57200000Y-44684714D01*
X57057143Y-44970428D02*
X57057143Y-44370428D01*
X57057143Y-44370428D02*
X57285714Y-44370428D01*
X57285714Y-44370428D02*
X57342857Y-44399000D01*
X57342857Y-44399000D02*
X57371428Y-44427571D01*
X57371428Y-44427571D02*
X57400000Y-44484714D01*
X57400000Y-44484714D02*
X57400000Y-44570428D01*
X57400000Y-44570428D02*
X57371428Y-44627571D01*
X57371428Y-44627571D02*
X57342857Y-44656142D01*
X57342857Y-44656142D02*
X57285714Y-44684714D01*
X57285714Y-44684714D02*
X57057143Y-44684714D01*
X57742857Y-44627571D02*
X57685714Y-44599000D01*
X57685714Y-44599000D02*
X57657143Y-44570428D01*
X57657143Y-44570428D02*
X57628571Y-44513285D01*
X57628571Y-44513285D02*
X57628571Y-44484714D01*
X57628571Y-44484714D02*
X57657143Y-44427571D01*
X57657143Y-44427571D02*
X57685714Y-44399000D01*
X57685714Y-44399000D02*
X57742857Y-44370428D01*
X57742857Y-44370428D02*
X57857143Y-44370428D01*
X57857143Y-44370428D02*
X57914286Y-44399000D01*
X57914286Y-44399000D02*
X57942857Y-44427571D01*
X57942857Y-44427571D02*
X57971428Y-44484714D01*
X57971428Y-44484714D02*
X57971428Y-44513285D01*
X57971428Y-44513285D02*
X57942857Y-44570428D01*
X57942857Y-44570428D02*
X57914286Y-44599000D01*
X57914286Y-44599000D02*
X57857143Y-44627571D01*
X57857143Y-44627571D02*
X57742857Y-44627571D01*
X57742857Y-44627571D02*
X57685714Y-44656142D01*
X57685714Y-44656142D02*
X57657143Y-44684714D01*
X57657143Y-44684714D02*
X57628571Y-44741857D01*
X57628571Y-44741857D02*
X57628571Y-44856142D01*
X57628571Y-44856142D02*
X57657143Y-44913285D01*
X57657143Y-44913285D02*
X57685714Y-44941857D01*
X57685714Y-44941857D02*
X57742857Y-44970428D01*
X57742857Y-44970428D02*
X57857143Y-44970428D01*
X57857143Y-44970428D02*
X57914286Y-44941857D01*
X57914286Y-44941857D02*
X57942857Y-44913285D01*
X57942857Y-44913285D02*
X57971428Y-44856142D01*
X57971428Y-44856142D02*
X57971428Y-44741857D01*
X57971428Y-44741857D02*
X57942857Y-44684714D01*
X57942857Y-44684714D02*
X57914286Y-44656142D01*
X57914286Y-44656142D02*
X57857143Y-44627571D01*
%TO.C,U4*%
X54292857Y-19370428D02*
X54292857Y-19856142D01*
X54292857Y-19856142D02*
X54321428Y-19913285D01*
X54321428Y-19913285D02*
X54350000Y-19941857D01*
X54350000Y-19941857D02*
X54407142Y-19970428D01*
X54407142Y-19970428D02*
X54521428Y-19970428D01*
X54521428Y-19970428D02*
X54578571Y-19941857D01*
X54578571Y-19941857D02*
X54607142Y-19913285D01*
X54607142Y-19913285D02*
X54635714Y-19856142D01*
X54635714Y-19856142D02*
X54635714Y-19370428D01*
X55178571Y-19570428D02*
X55178571Y-19970428D01*
X55035713Y-19341857D02*
X54892856Y-19770428D01*
X54892856Y-19770428D02*
X55264285Y-19770428D01*
%TO.C,R11*%
X57614285Y-47970428D02*
X57414285Y-47684714D01*
X57271428Y-47970428D02*
X57271428Y-47370428D01*
X57271428Y-47370428D02*
X57499999Y-47370428D01*
X57499999Y-47370428D02*
X57557142Y-47399000D01*
X57557142Y-47399000D02*
X57585713Y-47427571D01*
X57585713Y-47427571D02*
X57614285Y-47484714D01*
X57614285Y-47484714D02*
X57614285Y-47570428D01*
X57614285Y-47570428D02*
X57585713Y-47627571D01*
X57585713Y-47627571D02*
X57557142Y-47656142D01*
X57557142Y-47656142D02*
X57499999Y-47684714D01*
X57499999Y-47684714D02*
X57271428Y-47684714D01*
X58185713Y-47970428D02*
X57842856Y-47970428D01*
X58014285Y-47970428D02*
X58014285Y-47370428D01*
X58014285Y-47370428D02*
X57957142Y-47456142D01*
X57957142Y-47456142D02*
X57899999Y-47513285D01*
X57899999Y-47513285D02*
X57842856Y-47541857D01*
X58757142Y-47970428D02*
X58414285Y-47970428D01*
X58585714Y-47970428D02*
X58585714Y-47370428D01*
X58585714Y-47370428D02*
X58528571Y-47456142D01*
X58528571Y-47456142D02*
X58471428Y-47513285D01*
X58471428Y-47513285D02*
X58414285Y-47541857D01*
D14*
%TO.C,J4*%
X65275535Y-28959999D02*
X66025535Y-28709999D01*
X66025535Y-28709999D02*
X65275535Y-28459999D01*
X65954107Y-27781428D02*
X65989821Y-27817142D01*
X65989821Y-27817142D02*
X66025535Y-27924285D01*
X66025535Y-27924285D02*
X66025535Y-27995713D01*
X66025535Y-27995713D02*
X65989821Y-28102856D01*
X65989821Y-28102856D02*
X65918392Y-28174285D01*
X65918392Y-28174285D02*
X65846964Y-28209999D01*
X65846964Y-28209999D02*
X65704107Y-28245713D01*
X65704107Y-28245713D02*
X65596964Y-28245713D01*
X65596964Y-28245713D02*
X65454107Y-28209999D01*
X65454107Y-28209999D02*
X65382678Y-28174285D01*
X65382678Y-28174285D02*
X65311250Y-28102856D01*
X65311250Y-28102856D02*
X65275535Y-27995713D01*
X65275535Y-27995713D02*
X65275535Y-27924285D01*
X65275535Y-27924285D02*
X65311250Y-27817142D01*
X65311250Y-27817142D02*
X65346964Y-27781428D01*
X65954107Y-27031428D02*
X65989821Y-27067142D01*
X65989821Y-27067142D02*
X66025535Y-27174285D01*
X66025535Y-27174285D02*
X66025535Y-27245713D01*
X66025535Y-27245713D02*
X65989821Y-27352856D01*
X65989821Y-27352856D02*
X65918392Y-27424285D01*
X65918392Y-27424285D02*
X65846964Y-27459999D01*
X65846964Y-27459999D02*
X65704107Y-27495713D01*
X65704107Y-27495713D02*
X65596964Y-27495713D01*
X65596964Y-27495713D02*
X65454107Y-27459999D01*
X65454107Y-27459999D02*
X65382678Y-27424285D01*
X65382678Y-27424285D02*
X65311250Y-27352856D01*
X65311250Y-27352856D02*
X65275535Y-27245713D01*
X65275535Y-27245713D02*
X65275535Y-27174285D01*
X65275535Y-27174285D02*
X65311250Y-27067142D01*
X65311250Y-27067142D02*
X65346964Y-27031428D01*
X65311250Y-25991428D02*
X65275535Y-26062857D01*
X65275535Y-26062857D02*
X65275535Y-26169999D01*
X65275535Y-26169999D02*
X65311250Y-26277142D01*
X65311250Y-26277142D02*
X65382678Y-26348571D01*
X65382678Y-26348571D02*
X65454107Y-26384285D01*
X65454107Y-26384285D02*
X65596964Y-26419999D01*
X65596964Y-26419999D02*
X65704107Y-26419999D01*
X65704107Y-26419999D02*
X65846964Y-26384285D01*
X65846964Y-26384285D02*
X65918392Y-26348571D01*
X65918392Y-26348571D02*
X65989821Y-26277142D01*
X65989821Y-26277142D02*
X66025535Y-26169999D01*
X66025535Y-26169999D02*
X66025535Y-26098571D01*
X66025535Y-26098571D02*
X65989821Y-25991428D01*
X65989821Y-25991428D02*
X65954107Y-25955714D01*
X65954107Y-25955714D02*
X65704107Y-25955714D01*
X65704107Y-25955714D02*
X65704107Y-26098571D01*
X66025535Y-25634285D02*
X65275535Y-25634285D01*
X65275535Y-25634285D02*
X66025535Y-25205714D01*
X66025535Y-25205714D02*
X65275535Y-25205714D01*
X66025535Y-24848571D02*
X65275535Y-24848571D01*
X65275535Y-24848571D02*
X65275535Y-24670000D01*
X65275535Y-24670000D02*
X65311250Y-24562857D01*
X65311250Y-24562857D02*
X65382678Y-24491428D01*
X65382678Y-24491428D02*
X65454107Y-24455714D01*
X65454107Y-24455714D02*
X65596964Y-24420000D01*
X65596964Y-24420000D02*
X65704107Y-24420000D01*
X65704107Y-24420000D02*
X65846964Y-24455714D01*
X65846964Y-24455714D02*
X65918392Y-24491428D01*
X65918392Y-24491428D02*
X65989821Y-24562857D01*
X65989821Y-24562857D02*
X66025535Y-24670000D01*
X66025535Y-24670000D02*
X66025535Y-24848571D01*
X65989821Y-33950713D02*
X66025535Y-33843571D01*
X66025535Y-33843571D02*
X66025535Y-33664999D01*
X66025535Y-33664999D02*
X65989821Y-33593571D01*
X65989821Y-33593571D02*
X65954107Y-33557856D01*
X65954107Y-33557856D02*
X65882678Y-33522142D01*
X65882678Y-33522142D02*
X65811250Y-33522142D01*
X65811250Y-33522142D02*
X65739821Y-33557856D01*
X65739821Y-33557856D02*
X65704107Y-33593571D01*
X65704107Y-33593571D02*
X65668392Y-33664999D01*
X65668392Y-33664999D02*
X65632678Y-33807856D01*
X65632678Y-33807856D02*
X65596964Y-33879285D01*
X65596964Y-33879285D02*
X65561250Y-33914999D01*
X65561250Y-33914999D02*
X65489821Y-33950713D01*
X65489821Y-33950713D02*
X65418392Y-33950713D01*
X65418392Y-33950713D02*
X65346964Y-33914999D01*
X65346964Y-33914999D02*
X65311250Y-33879285D01*
X65311250Y-33879285D02*
X65275535Y-33807856D01*
X65275535Y-33807856D02*
X65275535Y-33629285D01*
X65275535Y-33629285D02*
X65311250Y-33522142D01*
X66025535Y-33200713D02*
X65275535Y-33200713D01*
X65275535Y-33200713D02*
X65275535Y-33022142D01*
X65275535Y-33022142D02*
X65311250Y-32914999D01*
X65311250Y-32914999D02*
X65382678Y-32843570D01*
X65382678Y-32843570D02*
X65454107Y-32807856D01*
X65454107Y-32807856D02*
X65596964Y-32772142D01*
X65596964Y-32772142D02*
X65704107Y-32772142D01*
X65704107Y-32772142D02*
X65846964Y-32807856D01*
X65846964Y-32807856D02*
X65918392Y-32843570D01*
X65918392Y-32843570D02*
X65989821Y-32914999D01*
X65989821Y-32914999D02*
X66025535Y-33022142D01*
X66025535Y-33022142D02*
X66025535Y-33200713D01*
X65811250Y-32486427D02*
X65811250Y-32129285D01*
X66025535Y-32557856D02*
X65275535Y-32307856D01*
X65275535Y-32307856D02*
X66025535Y-32057856D01*
X65989821Y-31392856D02*
X66025535Y-31285714D01*
X66025535Y-31285714D02*
X66025535Y-31107142D01*
X66025535Y-31107142D02*
X65989821Y-31035714D01*
X65989821Y-31035714D02*
X65954107Y-30999999D01*
X65954107Y-30999999D02*
X65882678Y-30964285D01*
X65882678Y-30964285D02*
X65811250Y-30964285D01*
X65811250Y-30964285D02*
X65739821Y-30999999D01*
X65739821Y-30999999D02*
X65704107Y-31035714D01*
X65704107Y-31035714D02*
X65668392Y-31107142D01*
X65668392Y-31107142D02*
X65632678Y-31249999D01*
X65632678Y-31249999D02*
X65596964Y-31321428D01*
X65596964Y-31321428D02*
X65561250Y-31357142D01*
X65561250Y-31357142D02*
X65489821Y-31392856D01*
X65489821Y-31392856D02*
X65418392Y-31392856D01*
X65418392Y-31392856D02*
X65346964Y-31357142D01*
X65346964Y-31357142D02*
X65311250Y-31321428D01*
X65311250Y-31321428D02*
X65275535Y-31249999D01*
X65275535Y-31249999D02*
X65275535Y-31071428D01*
X65275535Y-31071428D02*
X65311250Y-30964285D01*
X65954107Y-30214285D02*
X65989821Y-30249999D01*
X65989821Y-30249999D02*
X66025535Y-30357142D01*
X66025535Y-30357142D02*
X66025535Y-30428570D01*
X66025535Y-30428570D02*
X65989821Y-30535713D01*
X65989821Y-30535713D02*
X65918392Y-30607142D01*
X65918392Y-30607142D02*
X65846964Y-30642856D01*
X65846964Y-30642856D02*
X65704107Y-30678570D01*
X65704107Y-30678570D02*
X65596964Y-30678570D01*
X65596964Y-30678570D02*
X65454107Y-30642856D01*
X65454107Y-30642856D02*
X65382678Y-30607142D01*
X65382678Y-30607142D02*
X65311250Y-30535713D01*
X65311250Y-30535713D02*
X65275535Y-30428570D01*
X65275535Y-30428570D02*
X65275535Y-30357142D01*
X65275535Y-30357142D02*
X65311250Y-30249999D01*
X65311250Y-30249999D02*
X65346964Y-30214285D01*
X66025535Y-29535713D02*
X66025535Y-29892856D01*
X66025535Y-29892856D02*
X65275535Y-29892856D01*
D11*
%TO.C,R23*%
X44737258Y-23072500D02*
X44262742Y-23072500D01*
X44737258Y-22027500D02*
X44262742Y-22027500D01*
%TO.C,C15*%
X58765000Y-34011252D02*
X58765000Y-33488748D01*
X60235000Y-34011252D02*
X60235000Y-33488748D01*
%TO.C,R1*%
X63272500Y-40762742D02*
X63272500Y-41237258D01*
X62227500Y-40762742D02*
X62227500Y-41237258D01*
%TO.C,C3*%
X50140580Y-56260000D02*
X49859420Y-56260000D01*
X50140580Y-55240000D02*
X49859420Y-55240000D01*
%TO.C,C20*%
X48809420Y-18490000D02*
X49090580Y-18490000D01*
X48809420Y-19510000D02*
X49090580Y-19510000D01*
%TO.C,C28*%
X35859420Y-17490000D02*
X36140580Y-17490000D01*
X35859420Y-18510000D02*
X36140580Y-18510000D01*
%TO.C,R5*%
X55012742Y-56227500D02*
X55487258Y-56227500D01*
X55012742Y-57272500D02*
X55487258Y-57272500D01*
%TO.C,C5*%
X43261252Y-54985000D02*
X42738748Y-54985000D01*
X43261252Y-53515000D02*
X42738748Y-53515000D01*
%TO.C,C8*%
X55109420Y-57740000D02*
X55390580Y-57740000D01*
X55109420Y-58760000D02*
X55390580Y-58760000D01*
%TO.C,SW_RESET1*%
X62600000Y-21150000D02*
X62600000Y-17850000D01*
X62900000Y-21150000D02*
X62600000Y-21150000D01*
X65100000Y-21150000D02*
X65400000Y-21150000D01*
X65400000Y-21150000D02*
X65400000Y-17850000D01*
X62600000Y-17850000D02*
X62900000Y-17850000D01*
X65400000Y-17850000D02*
X65100000Y-17850000D01*
%TO.C,C29*%
X63810000Y-24959420D02*
X63810000Y-25240580D01*
X62790000Y-24959420D02*
X62790000Y-25240580D01*
%TO.C,R4*%
X55487258Y-55772500D02*
X55012742Y-55772500D01*
X55487258Y-54727500D02*
X55012742Y-54727500D01*
%TO.C,J5*%
X54305000Y-15045000D02*
X54305000Y-13775000D01*
X55575000Y-15045000D02*
X54305000Y-15045000D01*
X57735000Y-12732071D02*
X57735000Y-12335000D01*
X58495000Y-12732071D02*
X58495000Y-12335000D01*
X60275000Y-12732071D02*
X60275000Y-12335000D01*
X61035000Y-12732071D02*
X61035000Y-12335000D01*
X55195000Y-12665000D02*
X55195000Y-12335000D01*
X55955000Y-12665000D02*
X55955000Y-12335000D01*
X54245000Y-12335000D02*
X61985000Y-12335000D01*
X56845000Y-12335000D02*
X56845000Y-9675000D01*
X59385000Y-12335000D02*
X59385000Y-9675000D01*
X61985000Y-12335000D02*
X61985000Y-9675000D01*
X54245000Y-9675000D02*
X54245000Y-12335000D01*
X55195000Y-9675000D02*
X55195000Y-3675000D01*
X55255000Y-9675000D02*
X55255000Y-3675000D01*
X55375000Y-9675000D02*
X55375000Y-3675000D01*
X55495000Y-9675000D02*
X55495000Y-3675000D01*
X55615000Y-9675000D02*
X55615000Y-3675000D01*
X55735000Y-9675000D02*
X55735000Y-3675000D01*
X55855000Y-9675000D02*
X55855000Y-3675000D01*
X57735000Y-9675000D02*
X57735000Y-3675000D01*
X60275000Y-9675000D02*
X60275000Y-3675000D01*
X61985000Y-9675000D02*
X54245000Y-9675000D01*
X55195000Y-3675000D02*
X55955000Y-3675000D01*
X55955000Y-3675000D02*
X55955000Y-9675000D01*
X57735000Y-3675000D02*
X58495000Y-3675000D01*
X58495000Y-3675000D02*
X58495000Y-9675000D01*
X60275000Y-3675000D02*
X61035000Y-3675000D01*
X61035000Y-3675000D02*
X61035000Y-9675000D01*
%TO.C,C26*%
X58859420Y-19390000D02*
X59140580Y-19390000D01*
X58859420Y-20410000D02*
X59140580Y-20410000D01*
%TO.C,Q1*%
X65500000Y-39440000D02*
X63825000Y-39440000D01*
X65500000Y-39440000D02*
X66150000Y-39440000D01*
X65500000Y-42560000D02*
X64850000Y-42560000D01*
X65500000Y-42560000D02*
X66150000Y-42560000D01*
%TO.C,C4*%
X50140580Y-54760000D02*
X49859420Y-54760000D01*
X50140580Y-53740000D02*
X49859420Y-53740000D01*
%TO.C,C25*%
X53809420Y-29740000D02*
X54090580Y-29740000D01*
X53809420Y-30760000D02*
X54090580Y-30760000D01*
%TO.C,J2*%
X61362500Y-56190000D02*
X73582500Y-56190000D01*
X70282500Y-56190000D02*
X70282500Y-43810000D01*
X72082500Y-56190000D02*
X70282500Y-56190000D01*
X73582500Y-56190000D02*
X73582500Y-43810000D01*
X73582500Y-53540000D02*
X73582500Y-51540000D01*
X72082500Y-53290000D02*
X73582500Y-53540000D01*
X60562500Y-52840000D02*
X60562500Y-52240000D01*
X61162500Y-52540000D02*
X60562500Y-52840000D01*
X60562500Y-52240000D02*
X61162500Y-52540000D01*
X72082500Y-51790000D02*
X72082500Y-53290000D01*
X73582500Y-51540000D02*
X72082500Y-51790000D01*
X73582500Y-48460000D02*
X73582500Y-46460000D01*
X72082500Y-48210000D02*
X73582500Y-48460000D01*
X72082500Y-46710000D02*
X72082500Y-48210000D01*
X73582500Y-46460000D02*
X72082500Y-46710000D01*
X61362500Y-43810000D02*
X61362500Y-56190000D01*
X70282500Y-43810000D02*
X72082500Y-43810000D01*
X72082500Y-43810000D02*
X72082500Y-56190000D01*
X73582500Y-43810000D02*
X61362500Y-43810000D01*
%TO.C,R22*%
X44737258Y-24572500D02*
X44262742Y-24572500D01*
X44737258Y-23527500D02*
X44262742Y-23527500D01*
%TO.C,C6*%
X46859420Y-53740000D02*
X47140580Y-53740000D01*
X46859420Y-54760000D02*
X47140580Y-54760000D01*
%TO.C,Y1*%
X58950000Y-27100000D02*
X62250000Y-27100000D01*
X62250000Y-27100000D02*
X62250000Y-23100000D01*
%TO.C,C19*%
X52090580Y-19510000D02*
X51809420Y-19510000D01*
X52090580Y-18490000D02*
X51809420Y-18490000D01*
%TO.C,R9*%
X55012742Y-42727500D02*
X55487258Y-42727500D01*
X55012742Y-43772500D02*
X55487258Y-43772500D01*
%TO.C,SW2*%
X73150000Y-29350000D02*
X73150000Y-32650000D01*
X72850000Y-29350000D02*
X73150000Y-29350000D01*
X70650000Y-29350000D02*
X70350000Y-29350000D01*
X70350000Y-29350000D02*
X70350000Y-32650000D01*
X73150000Y-32650000D02*
X72850000Y-32650000D01*
X70350000Y-32650000D02*
X70650000Y-32650000D01*
%TO.C,R14*%
X46272500Y-43762742D02*
X46272500Y-44237258D01*
X45227500Y-43762742D02*
X45227500Y-44237258D01*
%TO.C,R34*%
X31477500Y-27987258D02*
X31477500Y-27512742D01*
X32522500Y-27987258D02*
X32522500Y-27512742D01*
%TO.C,R3*%
X50272500Y-43762742D02*
X50272500Y-44237258D01*
X49227500Y-43762742D02*
X49227500Y-44237258D01*
%TO.C,R16*%
X42272500Y-62512742D02*
X42272500Y-62987258D01*
X41227500Y-62512742D02*
X41227500Y-62987258D01*
%TO.C,R12*%
X52772500Y-43762742D02*
X52772500Y-44237258D01*
X51727500Y-43762742D02*
X51727500Y-44237258D01*
D14*
%TO.C,U2*%
X43075000Y-33675000D02*
X43025000Y-33675000D01*
X43075000Y-33675000D02*
X43075000Y-37825000D01*
X43025000Y-33675000D02*
X43025000Y-32275000D01*
X37925000Y-33675000D02*
X38070000Y-33675000D01*
X37925000Y-33675000D02*
X37925000Y-37825000D01*
X43075000Y-37825000D02*
X42930000Y-37825000D01*
X37925000Y-37825000D02*
X38070000Y-37825000D01*
D11*
%TO.C,C11*%
X40761252Y-42985000D02*
X40238748Y-42985000D01*
X40761252Y-41515000D02*
X40238748Y-41515000D01*
%TO.C,R2*%
X69237258Y-42022500D02*
X68762742Y-42022500D01*
X69237258Y-40977500D02*
X68762742Y-40977500D01*
%TO.C,Q2*%
X43000000Y-55690000D02*
X39550000Y-55690000D01*
X43000000Y-55690000D02*
X44950000Y-55690000D01*
X43000000Y-60810000D02*
X41050000Y-60810000D01*
X43000000Y-60810000D02*
X44950000Y-60810000D01*
%TO.C,R33*%
X32522500Y-24262742D02*
X32522500Y-24737258D01*
X31477500Y-24262742D02*
X31477500Y-24737258D01*
%TO.C,R6*%
X55487258Y-54272500D02*
X55012742Y-54272500D01*
X55487258Y-53227500D02*
X55012742Y-53227500D01*
%TO.C,R15*%
X55012742Y-48727500D02*
X55487258Y-48727500D01*
X55012742Y-49772500D02*
X55487258Y-49772500D01*
%TO.C,R19*%
X36477500Y-41487258D02*
X36477500Y-41012742D01*
X37522500Y-41487258D02*
X37522500Y-41012742D01*
%TO.C,D3*%
X70765000Y-39015000D02*
X70765000Y-40485000D01*
X70765000Y-40485000D02*
X73050000Y-40485000D01*
X73050000Y-39015000D02*
X70765000Y-39015000D01*
%TO.C,R31*%
X54762742Y-18477500D02*
X55237258Y-18477500D01*
X54762742Y-19522500D02*
X55237258Y-19522500D01*
%TO.C,C2*%
X50140580Y-57760000D02*
X49859420Y-57760000D01*
X50140580Y-56740000D02*
X49859420Y-56740000D01*
%TO.C,SW3*%
X69600000Y-35100000D02*
X72900000Y-35100000D01*
X69600000Y-35400000D02*
X69600000Y-35100000D01*
X69600000Y-37600000D02*
X69600000Y-37900000D01*
X69600000Y-37900000D02*
X72900000Y-37900000D01*
X72900000Y-35100000D02*
X72900000Y-35400000D01*
X72900000Y-37900000D02*
X72900000Y-37600000D01*
%TO.C,C17*%
X59140580Y-18910000D02*
X58859420Y-18910000D01*
X59140580Y-17890000D02*
X58859420Y-17890000D01*
%TO.C,R10*%
X55487258Y-46772500D02*
X55012742Y-46772500D01*
X55487258Y-45727500D02*
X55012742Y-45727500D01*
%TO.C,C23*%
X44640580Y-18510000D02*
X44359420Y-18510000D01*
X44640580Y-17490000D02*
X44359420Y-17490000D01*
%TO.C,C1*%
X52760000Y-54859420D02*
X52760000Y-55140580D01*
X51740000Y-54859420D02*
X51740000Y-55140580D01*
%TO.C,SW1*%
X70350000Y-27650000D02*
X70350000Y-24350000D01*
X70650000Y-27650000D02*
X70350000Y-27650000D01*
X72850000Y-27650000D02*
X73150000Y-27650000D01*
X73150000Y-27650000D02*
X73150000Y-24350000D01*
X70350000Y-24350000D02*
X70650000Y-24350000D01*
X73150000Y-24350000D02*
X72850000Y-24350000D01*
%TO.C,C14*%
X56765000Y-34011252D02*
X56765000Y-33488748D01*
X58235000Y-34011252D02*
X58235000Y-33488748D01*
%TO.C,R7*%
X55012742Y-51727500D02*
X55487258Y-51727500D01*
X55012742Y-52772500D02*
X55487258Y-52772500D01*
%TO.C,R13*%
X48272500Y-43762742D02*
X48272500Y-44237258D01*
X47227500Y-43762742D02*
X47227500Y-44237258D01*
%TO.C,R18*%
X43772500Y-62512742D02*
X43772500Y-62987258D01*
X42727500Y-62512742D02*
X42727500Y-62987258D01*
%TO.C,C18*%
X44359420Y-20490000D02*
X44640580Y-20490000D01*
X44359420Y-21510000D02*
X44640580Y-21510000D01*
%TO.C,D2*%
X43600000Y-41010000D02*
X46900000Y-41010000D01*
X43600000Y-41010000D02*
X43600000Y-35500000D01*
X46900000Y-41010000D02*
X46900000Y-35500000D01*
%TO.C,J1*%
X36900000Y-45300000D02*
X34900000Y-45300000D01*
X36900000Y-54700000D02*
X34900000Y-54700000D01*
%TO.C,C30*%
X60459420Y-21590000D02*
X60740580Y-21590000D01*
X60459420Y-22610000D02*
X60740580Y-22610000D01*
%TO.C,R29*%
X58422500Y-23162742D02*
X58422500Y-23637258D01*
X57377500Y-23162742D02*
X57377500Y-23637258D01*
%TO.C,C16*%
X41159420Y-25990000D02*
X41440580Y-25990000D01*
X41159420Y-27010000D02*
X41440580Y-27010000D01*
%TO.C,L1*%
X47840000Y-32190000D02*
X47840000Y-33740000D01*
X47840000Y-32190000D02*
X55660000Y-32190000D01*
X47840000Y-39310000D02*
X47840000Y-37760000D01*
X47840000Y-39310000D02*
X55660000Y-39310000D01*
X55660000Y-32190000D02*
X55660000Y-33740000D01*
X55660000Y-39310000D02*
X55660000Y-37760000D01*
%TO.C,SW_BOOT1*%
X42650000Y-17850000D02*
X42650000Y-21150000D01*
X42350000Y-17850000D02*
X42650000Y-17850000D01*
X40150000Y-17850000D02*
X39850000Y-17850000D01*
X39850000Y-17850000D02*
X39850000Y-21150000D01*
X42650000Y-21150000D02*
X42350000Y-21150000D01*
X39850000Y-21150000D02*
X40150000Y-21150000D01*
%TO.C,C13*%
X60235000Y-37488748D02*
X60235000Y-38011252D01*
X58765000Y-37488748D02*
X58765000Y-38011252D01*
%TO.C,C10*%
X58235000Y-37488748D02*
X58235000Y-38011252D01*
X56765000Y-37488748D02*
X56765000Y-38011252D01*
%TO.C,C9*%
X45109420Y-32240000D02*
X45390580Y-32240000D01*
X45109420Y-33260000D02*
X45390580Y-33260000D01*
%TO.C,R21*%
X69237258Y-40272500D02*
X68762742Y-40272500D01*
X69237258Y-39227500D02*
X68762742Y-39227500D01*
%TO.C,R17*%
X55487258Y-51272500D02*
X55012742Y-51272500D01*
X55487258Y-50227500D02*
X55012742Y-50227500D01*
%TO.C,U5*%
X33180000Y-27225000D02*
X33440000Y-27225000D01*
X33440000Y-27225000D02*
X33440000Y-28900000D01*
X38630000Y-27225000D02*
X38370000Y-27225000D01*
X33180000Y-24500000D02*
X33180000Y-27225000D01*
X33180000Y-24500000D02*
X33180000Y-21775000D01*
X38630000Y-24500000D02*
X38630000Y-27225000D01*
X38630000Y-24500000D02*
X38630000Y-21775000D01*
X33180000Y-21775000D02*
X33440000Y-21775000D01*
X38630000Y-21775000D02*
X38370000Y-21775000D01*
%TO.C,R20*%
X36022501Y-41012742D02*
X36022501Y-41487258D01*
X34977501Y-41012742D02*
X34977501Y-41487258D01*
%TO.C,C22*%
X44640580Y-20010000D02*
X44359420Y-20010000D01*
X44640580Y-18990000D02*
X44359420Y-18990000D01*
%TO.C,C21*%
X41440580Y-25510000D02*
X41159420Y-25510000D01*
X41440580Y-24490000D02*
X41159420Y-24490000D01*
%TO.C,C7*%
X45985000Y-62738748D02*
X45985000Y-63261252D01*
X44515000Y-62738748D02*
X44515000Y-63261252D01*
%TO.C,U1*%
X52110000Y-47890000D02*
X52110000Y-48365000D01*
X51635000Y-52110000D02*
X52110000Y-52110000D01*
X51635000Y-47890000D02*
X52110000Y-47890000D01*
X48365000Y-52110000D02*
X47890000Y-52110000D01*
X48365000Y-47890000D02*
X47890000Y-47890000D01*
X47890000Y-52110000D02*
X47890000Y-51635000D01*
X47890000Y-47890000D02*
X47890000Y-48365000D01*
%TO.C,D1*%
X70765000Y-40765000D02*
X70765000Y-42235000D01*
X70765000Y-42235000D02*
X73050000Y-42235000D01*
X73050000Y-40765000D02*
X70765000Y-40765000D01*
%TO.C,R8*%
X55487258Y-45272500D02*
X55012742Y-45272500D01*
X55487258Y-44227500D02*
X55012742Y-44227500D01*
%TO.C,C24*%
X47840580Y-30760000D02*
X47559420Y-30760000D01*
X47840580Y-29740000D02*
X47559420Y-29740000D01*
%TO.C,U4*%
X55310000Y-28110000D02*
X54660000Y-28110000D01*
X48090000Y-27460000D02*
X48090000Y-28110000D01*
X55310000Y-27460000D02*
X55310000Y-28110000D01*
X48090000Y-21540000D02*
X48090000Y-20890000D01*
X55310000Y-21540000D02*
X55310000Y-20890000D01*
X48090000Y-20890000D02*
X48740000Y-20890000D01*
X55310000Y-20890000D02*
X54660000Y-20890000D01*
%TO.C,R11*%
X55012742Y-47227500D02*
X55487258Y-47227500D01*
X55012742Y-48272500D02*
X55487258Y-48272500D01*
%TO.C,C12*%
X40640580Y-41010000D02*
X40359420Y-41010000D01*
X40640580Y-39990000D02*
X40359420Y-39990000D01*
D15*
%TO.C,J4*%
X64250000Y-23230000D02*
X64250000Y-35230000D01*
X64250000Y-35230000D02*
X69250000Y-35230000D01*
X69250000Y-23230000D02*
X64250000Y-23230000D01*
X69250000Y-35230000D02*
X69250000Y-23230000D01*
%TD*%
%LPC*%
D16*
%TO.C,R23*%
X45325000Y-22550000D03*
X43675000Y-22550000D03*
%TD*%
D17*
%TO.C,C15*%
X59500000Y-34700000D03*
X59500000Y-32800000D03*
%TD*%
D18*
%TO.C,R1*%
X62750000Y-40175000D03*
X62750000Y-41825000D03*
%TD*%
D19*
%TO.C,C3*%
X50775000Y-55750000D03*
X49225000Y-55750000D03*
%TD*%
D20*
%TO.C,C20*%
X48175000Y-19000000D03*
X49725000Y-19000000D03*
%TD*%
%TO.C,C28*%
X35225000Y-18000000D03*
X36775000Y-18000000D03*
%TD*%
D21*
%TO.C,R5*%
X54425000Y-56750000D03*
X56075000Y-56750000D03*
%TD*%
D22*
%TO.C,REF\u002A\u002A*%
X34250000Y-65750000D03*
%TD*%
D23*
%TO.C,C5*%
X43950000Y-54250000D03*
X42050000Y-54250000D03*
%TD*%
D20*
%TO.C,C8*%
X54475000Y-58250000D03*
X56025000Y-58250000D03*
%TD*%
D24*
%TO.C,SW_RESET1*%
X63999999Y-21199999D03*
X63999999Y-17799999D03*
%TD*%
D25*
%TO.C,C29*%
X63300000Y-24325000D03*
X63300000Y-25875000D03*
%TD*%
D16*
%TO.C,R4*%
X56075000Y-55250000D03*
X54425000Y-55250000D03*
%TD*%
D26*
%TO.C,J5*%
X55574999Y-13774999D03*
D27*
X58114999Y-13774999D03*
X60654999Y-13774999D03*
%TD*%
D20*
%TO.C,C26*%
X58225000Y-19900000D03*
X59775000Y-19900000D03*
%TD*%
D28*
%TO.C,Q1*%
X64562500Y-40050000D03*
X64562500Y-41950000D03*
X66437500Y-41000000D03*
%TD*%
D19*
%TO.C,C4*%
X50775000Y-54250000D03*
X49225000Y-54250000D03*
%TD*%
D20*
%TO.C,C25*%
X53175000Y-30250000D03*
X54725000Y-30250000D03*
%TD*%
D29*
%TO.C,J2*%
X63472500Y-52540000D03*
D30*
X63472499Y-47459999D03*
%TD*%
D16*
%TO.C,R22*%
X45325000Y-24050000D03*
X43675000Y-24050000D03*
%TD*%
D20*
%TO.C,C6*%
X46225000Y-54250000D03*
X47775000Y-54250000D03*
%TD*%
D31*
%TO.C,Y1*%
X61449999Y-26199999D03*
X61449999Y-23999999D03*
X59749999Y-23999999D03*
X59749999Y-26199999D03*
%TD*%
D19*
%TO.C,C19*%
X52725000Y-19000000D03*
X51175000Y-19000000D03*
%TD*%
D21*
%TO.C,R9*%
X54425000Y-43250000D03*
X56075000Y-43250000D03*
%TD*%
D24*
%TO.C,SW2*%
X71749999Y-29299999D03*
X71749999Y-32699999D03*
%TD*%
D18*
%TO.C,R14*%
X45750000Y-43175000D03*
X45750000Y-44825000D03*
%TD*%
D32*
%TO.C,R34*%
X32000000Y-28575000D03*
X32000000Y-26925000D03*
%TD*%
D18*
%TO.C,R3*%
X49750000Y-43175000D03*
X49750000Y-44825000D03*
%TD*%
%TO.C,R16*%
X41750000Y-61925000D03*
X41750000Y-63575000D03*
%TD*%
%TO.C,R12*%
X52250000Y-43175000D03*
X52250000Y-44825000D03*
%TD*%
D33*
%TO.C,U2*%
X42404999Y-33049999D03*
X41134999Y-33049999D03*
X39864999Y-33049999D03*
X38594999Y-33049999D03*
X38594999Y-38449999D03*
X39864999Y-38449999D03*
X41134999Y-38449999D03*
X42404999Y-38449999D03*
D34*
X40499999Y-35749999D03*
%TD*%
D23*
%TO.C,C11*%
X41450000Y-42250000D03*
X39550000Y-42250000D03*
%TD*%
D16*
%TO.C,R2*%
X69825000Y-41500000D03*
X68175000Y-41500000D03*
%TD*%
D35*
%TO.C,Q2*%
X40425000Y-56345000D03*
X40425000Y-57615000D03*
X40425000Y-58885000D03*
X40425000Y-60155000D03*
X45575000Y-60155000D03*
X45575000Y-58885000D03*
X45575000Y-57615000D03*
X45575000Y-56345000D03*
%TD*%
D18*
%TO.C,R33*%
X32000000Y-23675000D03*
X32000000Y-25325000D03*
%TD*%
D16*
%TO.C,R6*%
X56075000Y-53750000D03*
X54425000Y-53750000D03*
%TD*%
D21*
%TO.C,R15*%
X54425000Y-49250000D03*
X56075000Y-49250000D03*
%TD*%
D32*
%TO.C,R19*%
X37000000Y-42075000D03*
X37000000Y-40425000D03*
%TD*%
D36*
%TO.C,D3*%
X71462500Y-39750000D03*
X73037500Y-39750000D03*
%TD*%
D21*
%TO.C,R31*%
X54175000Y-19000000D03*
X55825000Y-19000000D03*
%TD*%
D19*
%TO.C,C2*%
X50775000Y-57250000D03*
X49225000Y-57250000D03*
%TD*%
D37*
%TO.C,SW3*%
X69549999Y-36499999D03*
X72949999Y-36499999D03*
%TD*%
D19*
%TO.C,C17*%
X59775000Y-18400000D03*
X58225000Y-18400000D03*
%TD*%
D16*
%TO.C,R10*%
X56075000Y-46250000D03*
X54425000Y-46250000D03*
%TD*%
D22*
%TO.C,REF\u002A\u002A*%
X70750000Y-20000000D03*
%TD*%
%TO.C,REF\u002A\u002A*%
X34250000Y-34250000D03*
%TD*%
D19*
%TO.C,C23*%
X45275000Y-18000000D03*
X43725000Y-18000000D03*
%TD*%
D25*
%TO.C,C1*%
X52250000Y-54225000D03*
X52250000Y-55775000D03*
%TD*%
D24*
%TO.C,SW1*%
X71749999Y-27699999D03*
X71749999Y-24299999D03*
%TD*%
D17*
%TO.C,C14*%
X57500000Y-34700000D03*
X57500000Y-32800000D03*
%TD*%
D21*
%TO.C,R7*%
X54425000Y-52250000D03*
X56075000Y-52250000D03*
%TD*%
D18*
%TO.C,R13*%
X47750000Y-43175000D03*
X47750000Y-44825000D03*
%TD*%
%TO.C,R18*%
X43250000Y-61925000D03*
X43250000Y-63575000D03*
%TD*%
D20*
%TO.C,C18*%
X43725000Y-21000000D03*
X45275000Y-21000000D03*
%TD*%
D38*
%TO.C,D2*%
X45250000Y-39500000D03*
X45250000Y-35500000D03*
%TD*%
D39*
%TO.C,J1*%
X37600000Y-47110000D03*
X37600000Y-52890000D03*
D40*
X39044999Y-46749999D03*
X39044999Y-47549999D03*
D41*
X39044999Y-48749999D03*
X39044999Y-49749999D03*
X39044999Y-50249999D03*
X39044999Y-51249999D03*
D40*
X39044999Y-52449999D03*
X39044999Y-53249999D03*
X39044999Y-53249999D03*
X39044999Y-52449999D03*
D41*
X39044999Y-51749999D03*
X39044999Y-50749999D03*
X39044999Y-49249999D03*
X39044999Y-48249999D03*
D40*
X39044999Y-47549999D03*
X39044999Y-46749999D03*
D42*
X38129999Y-45679999D03*
D43*
X33949999Y-45679999D03*
D42*
X38129999Y-54319999D03*
D43*
X33949999Y-54319999D03*
%TD*%
D20*
%TO.C,C30*%
X59825000Y-22100000D03*
X61375000Y-22100000D03*
%TD*%
D18*
%TO.C,R29*%
X57900000Y-22575000D03*
X57900000Y-24225000D03*
%TD*%
D20*
%TO.C,C16*%
X40525000Y-26500000D03*
X42075000Y-26500000D03*
%TD*%
D44*
%TO.C,L1*%
X48724999Y-35749999D03*
X54774999Y-35749999D03*
%TD*%
D24*
%TO.C,SW_BOOT1*%
X41249999Y-17799999D03*
X41249999Y-21199999D03*
%TD*%
D45*
%TO.C,C13*%
X59500000Y-36800000D03*
X59500000Y-38700000D03*
%TD*%
%TO.C,C10*%
X57500000Y-36800000D03*
X57500000Y-38700000D03*
%TD*%
D20*
%TO.C,C9*%
X44475000Y-32750000D03*
X46025000Y-32750000D03*
%TD*%
D16*
%TO.C,R21*%
X69825000Y-39750000D03*
X68175000Y-39750000D03*
%TD*%
D22*
%TO.C,REF\u002A\u002A*%
X70750000Y-65750000D03*
%TD*%
D16*
%TO.C,R17*%
X56075000Y-50750000D03*
X54425000Y-50750000D03*
%TD*%
D46*
%TO.C,U5*%
X34000000Y-28100000D03*
X35270000Y-28100000D03*
X36540000Y-28100000D03*
X37810000Y-28100000D03*
X37810000Y-20900000D03*
X36540000Y-20900000D03*
X35270000Y-20900000D03*
X34000000Y-20900000D03*
%TD*%
D18*
%TO.C,R20*%
X35500001Y-40425000D03*
X35500001Y-42075000D03*
%TD*%
D19*
%TO.C,C22*%
X45275000Y-19500000D03*
X43725000Y-19500000D03*
%TD*%
%TO.C,C21*%
X42075000Y-25000000D03*
X40525000Y-25000000D03*
%TD*%
D45*
%TO.C,C7*%
X45250000Y-62050000D03*
X45250000Y-63950000D03*
%TD*%
D47*
%TO.C,U1*%
X51937500Y-51250000D03*
X51937500Y-50750000D03*
X51937500Y-50250000D03*
X51937500Y-49750000D03*
X51937500Y-49250000D03*
X51937500Y-48750000D03*
D48*
X51250000Y-48062500D03*
X50750000Y-48062500D03*
X50250000Y-48062500D03*
X49750000Y-48062500D03*
X49250000Y-48062500D03*
X48750000Y-48062500D03*
D47*
X48062500Y-48750000D03*
X48062500Y-49250000D03*
X48062500Y-49750000D03*
X48062500Y-50250000D03*
X48062500Y-50750000D03*
X48062500Y-51250000D03*
D48*
X48750000Y-51937500D03*
X49250000Y-51937500D03*
X49750000Y-51937500D03*
X50250000Y-51937500D03*
X50750000Y-51937500D03*
X51250000Y-51937500D03*
D49*
X49999999Y-49999999D03*
%TD*%
D36*
%TO.C,D1*%
X71462500Y-41500000D03*
X73037500Y-41500000D03*
%TD*%
D16*
%TO.C,R8*%
X56075000Y-44750000D03*
X54425000Y-44750000D03*
%TD*%
D19*
%TO.C,C24*%
X48475000Y-30250000D03*
X46925000Y-30250000D03*
%TD*%
D50*
%TO.C,U4*%
X49100000Y-27937500D03*
X49500000Y-27937500D03*
X49900000Y-27937500D03*
X50300000Y-27937500D03*
X50700000Y-27937500D03*
X51100000Y-27937500D03*
X51500000Y-27937500D03*
X51900000Y-27937500D03*
X52300000Y-27937500D03*
X52700000Y-27937500D03*
X53100000Y-27937500D03*
X53500000Y-27937500D03*
X53900000Y-27937500D03*
X54300000Y-27937500D03*
D51*
X55137500Y-27100000D03*
X55137500Y-26700000D03*
X55137500Y-26300000D03*
X55137500Y-25900000D03*
X55137500Y-25500000D03*
X55137500Y-25100000D03*
X55137500Y-24700000D03*
X55137500Y-24300000D03*
X55137500Y-23900000D03*
X55137500Y-23500000D03*
X55137500Y-23100000D03*
X55137500Y-22700000D03*
X55137500Y-22300000D03*
X55137500Y-21900000D03*
D50*
X54300000Y-21062500D03*
X53900000Y-21062500D03*
X53500000Y-21062500D03*
X53100000Y-21062500D03*
X52700000Y-21062500D03*
X52300000Y-21062500D03*
X51900000Y-21062500D03*
X51500000Y-21062500D03*
X51100000Y-21062500D03*
X50700000Y-21062500D03*
X50300000Y-21062500D03*
X49900000Y-21062500D03*
X49500000Y-21062500D03*
X49100000Y-21062500D03*
D51*
X48262500Y-21900000D03*
X48262500Y-22300000D03*
X48262500Y-22700000D03*
X48262500Y-23100000D03*
X48262500Y-23500000D03*
X48262500Y-23900000D03*
X48262500Y-24300000D03*
X48262500Y-24700000D03*
X48262500Y-25100000D03*
X48262500Y-25500000D03*
X48262500Y-25900000D03*
X48262500Y-26300000D03*
X48262500Y-26700000D03*
X48262500Y-27100000D03*
D52*
X51699999Y-24499999D03*
%TD*%
D21*
%TO.C,R11*%
X54425000Y-47750000D03*
X56075000Y-47750000D03*
%TD*%
D19*
%TO.C,C12*%
X41275000Y-40500000D03*
X39725000Y-40500000D03*
%TD*%
D26*
%TO.C,J4*%
X67749999Y-25419999D03*
D27*
X67749999Y-27959999D03*
X67749999Y-30499999D03*
X67749999Y-33039999D03*
%TD*%
M02*
